<svg xmlns="http://www.w3.org/2000/svg" xmlns:xlink="http://www.w3.org/1999/xlink" width="200" zoomAndPan="magnify" viewBox="0 0 150 157.92" height="200" preserveAspectRatio="xMidYMid meet" version="1.0"><defs><clipPath id="8c46223610"><path d="M 23.203125 117 L 41 117 L 41 134.933594 L 23.203125 134.933594 Z M 23.203125 117 " clip-rule="nonzero"/></clipPath><clipPath id="6075cfed9d"><path d="M 109 117 L 126.648438 117 L 126.648438 134.933594 L 109 134.933594 Z M 109 117 " clip-rule="nonzero"/></clipPath></defs><path fill="#000000" d="M 74.925781 65.648438 C 88.867188 65.648438 100.175781 54.324219 100.175781 40.363281 C 100.175781 26.402344 88.867188 15.082031 74.925781 15.082031 C 60.984375 15.082031 49.675781 26.402344 49.675781 40.363281 C 49.675781 54.324219 60.976562 65.648438 74.925781 65.648438 Z M 74.925781 65.648438 " fill-opacity="1" fill-rule="nonzero"/><path fill="#000000" d="M 83.597656 102.8125 C 81.609375 101.410156 80.972656 98.691406 82.117188 96.5 C 82.96875 94.882812 84.640625 93.886719 86.488281 93.886719 C 86.949219 93.886719 87.402344 93.949219 87.847656 94.070312 C 88.667969 94.292969 89.257812 94.675781 89.613281 94.90625 C 91.539062 96.15625 96.53125 99.378906 96.53125 99.378906 L 96.730469 99.503906 C 96.917969 97.21875 98.621094 95.25 100.859375 94.859375 C 101.105469 94.820312 101.351562 94.796875 101.597656 94.796875 C 103.875 94.796875 106.101562 96.660156 106.570312 98.953125 C 106.761719 99.878906 107.167969 100.804688 107.867188 101.863281 C 108.5625 102.929688 109.667969 103.863281 110.835938 104.84375 L 111.125 105.082031 C 112.285156 106.070312 113.773438 107.433594 114.953125 109.273438 C 115.820312 110.644531 116.335938 112.007812 116.527344 113.464844 C 116.542969 113.578125 116.558594 113.679688 116.566406 113.792969 L 119.097656 115.25 C 121.691406 116.746094 124.875 114.453125 124.207031 111.527344 C 124.199219 111.503906 124.199219 111.488281 124.191406 111.464844 C 118.867188 89.152344 98.828125 72.570312 74.925781 72.570312 C 51.011719 72.570312 30.976562 89.152344 25.652344 111.464844 C 25.644531 111.488281 25.644531 111.511719 25.636719 111.535156 C 24.984375 114.460938 28.152344 116.757812 30.746094 115.257812 L 33.277344 113.800781 C 33.285156 113.6875 33.300781 113.578125 33.316406 113.472656 C 33.507812 112.015625 34.023438 110.652344 34.890625 109.28125 C 36.0625 107.441406 37.546875 106.078125 38.71875 105.089844 L 39.003906 104.851562 C 40.175781 103.871094 41.28125 102.9375 41.972656 101.871094 C 42.664062 100.8125 43.078125 99.886719 43.261719 98.960938 C 43.730469 96.667969 45.960938 94.804688 48.234375 94.804688 C 48.480469 94.804688 48.738281 94.828125 48.976562 94.867188 C 51.210938 95.257812 52.914062 97.226562 53.105469 99.511719 C 53.105469 99.511719 58.359375 96.117188 60.21875 94.914062 C 60.578125 94.683594 61.175781 94.300781 61.984375 94.078125 C 62.433594 93.957031 62.894531 93.894531 63.347656 93.894531 C 65.191406 93.894531 66.871094 94.898438 67.714844 96.507812 C 68.871094 98.699219 68.234375 101.410156 66.234375 102.820312 C 65.910156 103.042969 64.820312 103.765625 63.25 104.789062 C 63.746094 105.617188 63.984375 106.582031 63.917969 107.570312 C 63.894531 107.992188 63.816406 108.398438 63.695312 108.789062 C 63.945312 109.050781 64.175781 109.335938 64.367188 109.65625 C 65.226562 111.066406 65.289062 112.753906 64.667969 114.183594 C 65.144531 114.765625 65.496094 115.472656 65.6875 116.277344 C 65.835938 116.929688 65.863281 117.578125 65.773438 118.199219 L 84.035156 118.199219 C 83.949219 117.578125 83.972656 116.921875 84.125 116.277344 C 84.308594 115.472656 84.65625 114.765625 85.140625 114.183594 C 84.523438 112.753906 84.59375 111.066406 85.445312 109.65625 C 85.636719 109.335938 85.867188 109.050781 86.113281 108.789062 C 85.984375 108.398438 85.914062 107.992188 85.890625 107.570312 C 85.835938 106.582031 86.074219 105.617188 86.566406 104.789062 C 85.007812 103.757812 83.917969 103.042969 83.597656 102.8125 Z M 83.597656 102.8125 " fill-opacity="1" fill-rule="nonzero"/><path fill="#000000" d="M 61.207031 115.777344 C 60.738281 115.695312 60.308594 115.816406 59.917969 116.0625 C 59.3125 116.453125 56.425781 118.324219 55.8125 118.707031 C 55.390625 118.972656 54.96875 118.898438 54.746094 118.539062 C 54.515625 118.183594 54.632812 117.800781 55.054688 117.503906 C 55.167969 117.425781 60.042969 114.367188 61.144531 113.511719 C 61.851562 112.972656 61.984375 112.0625 61.5625 111.359375 C 61.152344 110.675781 60.316406 110.414062 59.503906 110.714844 C 59.160156 110.84375 58.875 111.066406 58.5625 111.257812 C 57.640625 111.855469 54.441406 113.933594 53.503906 114.515625 C 53.089844 114.773438 52.707031 114.675781 52.484375 114.308594 C 52.261719 113.949219 52.375 113.570312 52.761719 113.296875 C 52.828125 113.257812 58.277344 109.75 59.789062 108.746094 C 60.824219 108.0625 60.9375 106.753906 60.058594 106.015625 C 59.503906 105.542969 58.652344 105.527344 57.902344 106.007812 C 57.035156 106.554688 51.601562 110.09375 50.871094 110.539062 C 50.503906 110.765625 50.128906 110.652344 49.914062 110.332031 C 49.699219 110 49.761719 109.65625 50.097656 109.378906 C 50.175781 109.304688 63.226562 100.890625 64.347656 100.101562 C 65.027344 99.625 65.175781 98.730469 64.8125 98.03125 C 64.453125 97.351562 63.664062 97.035156 62.871094 97.25 C 62.558594 97.335938 62.289062 97.503906 62.027344 97.671875 C 59.472656 99.328125 57.664062 100.484375 55.109375 102.140625 C 55.109375 102.140625 47.933594 106.789062 47.089844 107.320312 C 46.644531 107.601562 46.476562 107.617188 46.246094 107.265625 C 46.101562 107.035156 46.53125 106.539062 46.890625 106.09375 C 47.027344 105.925781 47.648438 105.179688 47.917969 104.730469 C 48.695312 103.449219 49.300781 102.085938 49.730469 100.652344 C 49.796875 100.453125 49.820312 100.238281 49.828125 100.03125 C 49.882812 99.019531 49.132812 98.238281 48.417969 98.109375 C 47.628906 97.972656 46.667969 98.804688 46.507812 99.609375 C 46.207031 101.082031 45.5625 102.414062 44.742188 103.664062 C 43.707031 105.242188 42.265625 106.414062 40.851562 107.609375 C 39.648438 108.621094 38.535156 109.703125 37.683594 111.042969 C 37.125 111.917969 36.730469 112.859375 36.59375 113.894531 C 36.347656 115.726562 36.707031 117.464844 37.476562 119.121094 C 38.390625 121.082031 39.5 122.9375 41.003906 124.515625 C 42.824219 126.4375 45.050781 127.378906 47.734375 127.042969 C 48.894531 126.898438 49.996094 126.5 50.988281 125.878906 C 52.753906 124.78125 60.648438 119.664062 61.707031 118.957031 C 62.390625 118.492188 62.6875 117.832031 62.503906 117.019531 C 62.328125 116.316406 61.914062 115.894531 61.207031 115.777344 Z M 61.207031 115.777344 " fill-opacity="1" fill-rule="nonzero"/><g clip-path="url(#8c46223610)"><path fill="#000000" d="M 34.835938 120.367188 C 34.359375 119.355469 34.015625 118.324219 33.816406 117.296875 L 24.265625 122.804688 C 23.464844 123.265625 23.210938 124.308594 23.710938 125.089844 L 29.359375 133.855469 C 29.863281 134.636719 30.921875 134.835938 31.675781 134.292969 L 40.476562 127.953125 C 39.921875 127.535156 39.386719 127.066406 38.878906 126.53125 C 37.324219 124.890625 36.042969 122.929688 34.835938 120.367188 Z M 34.835938 120.367188 " fill-opacity="1" fill-rule="nonzero"/></g><path fill="#000000" d="M 113.257812 113.902344 C 113.121094 112.867188 112.722656 111.933594 112.167969 111.050781 C 111.316406 109.710938 110.199219 108.628906 109 107.617188 C 107.582031 106.421875 106.132812 105.257812 105.101562 103.671875 C 104.28125 102.414062 103.636719 101.089844 103.332031 99.617188 C 103.167969 98.8125 102.203125 97.984375 101.421875 98.117188 C 100.707031 98.246094 99.953125 99.035156 100.015625 100.039062 C 100.023438 100.246094 100.046875 100.460938 100.109375 100.660156 C 100.539062 102.09375 101.144531 103.457031 101.925781 104.738281 C 102.195312 105.1875 102.824219 105.933594 102.953125 106.101562 C 103.308594 106.546875 103.738281 107.042969 103.597656 107.273438 C 103.363281 107.625 103.199219 107.609375 102.753906 107.328125 C 101.910156 106.796875 94.730469 102.148438 94.730469 102.148438 C 92.175781 100.5 90.378906 99.335938 87.816406 97.679688 C 87.554688 97.503906 87.28125 97.335938 86.972656 97.257812 C 86.175781 97.042969 85.390625 97.359375 85.03125 98.039062 C 84.664062 98.738281 84.816406 99.632812 85.484375 100.109375 C 86.605469 100.898438 99.65625 109.320312 99.738281 109.386719 C 100.070312 109.664062 100.132812 110.015625 99.917969 110.339844 C 99.703125 110.660156 99.332031 110.773438 98.964844 110.546875 C 98.234375 110.101562 92.796875 106.5625 91.929688 106.015625 C 91.183594 105.535156 90.332031 105.550781 89.773438 106.023438 C 88.898438 106.773438 89.011719 108.070312 90.042969 108.753906 C 91.554688 109.75 97.007812 113.257812 97.070312 113.304688 C 97.460938 113.578125 97.570312 113.960938 97.347656 114.316406 C 97.125 114.683594 96.738281 114.78125 96.332031 114.523438 C 95.398438 113.941406 92.199219 111.863281 91.269531 111.265625 C 90.96875 111.074219 90.679688 110.84375 90.332031 110.722656 C 89.511719 110.421875 88.683594 110.683594 88.261719 111.371094 C 87.832031 112.070312 87.976562 112.980469 88.683594 113.519531 C 89.78125 114.375 94.660156 117.433594 94.769531 117.511719 C 95.199219 117.808594 95.3125 118.191406 95.082031 118.546875 C 94.859375 118.90625 94.4375 118.980469 94.015625 118.714844 C 93.402344 118.332031 90.515625 116.460938 89.910156 116.070312 C 89.511719 115.816406 89.089844 115.695312 88.621094 115.785156 C 87.910156 115.910156 87.503906 116.324219 87.339844 117.035156 C 87.148438 117.847656 87.441406 118.515625 88.132812 118.972656 C 89.183594 119.671875 97.085938 124.789062 98.851562 125.894531 C 99.847656 126.515625 100.9375 126.90625 102.109375 127.058594 C 104.789062 127.394531 107.019531 126.453125 108.839844 124.53125 C 110.335938 122.957031 111.441406 121.097656 112.363281 119.136719 C 113.144531 117.472656 113.503906 115.734375 113.257812 113.902344 Z M 113.257812 113.902344 " fill-opacity="1" fill-rule="nonzero"/><g clip-path="url(#6075cfed9d)"><path fill="#000000" d="M 125.574219 122.804688 L 116.027344 117.296875 C 115.828125 118.324219 115.484375 119.355469 115.007812 120.367188 C 113.804688 122.929688 112.515625 124.890625 110.957031 126.53125 C 110.449219 127.066406 109.914062 127.546875 109.355469 127.960938 L 118.167969 134.300781 C 118.921875 134.84375 119.972656 134.644531 120.472656 133.863281 L 126.125 125.097656 C 126.632812 124.308594 126.378906 123.265625 125.574219 122.804688 Z M 125.574219 122.804688 " fill-opacity="1" fill-rule="nonzero"/></g></svg>