<svg xmlns="http://www.w3.org/2000/svg" xmlns:xlink="http://www.w3.org/1999/xlink" width="200" zoomAndPan="magnify" viewBox="0 0 150 149.999998" height="200" preserveAspectRatio="xMidYMid meet" version="1.0"><path fill="#000000" d="M 141.40625 26.027344 L 8.464844 26.027344 C 7.90625 26.027344 7.351562 26.082031 6.804688 26.191406 C 6.257812 26.300781 5.722656 26.460938 5.207031 26.675781 C 4.691406 26.890625 4.199219 27.152344 3.734375 27.460938 C 3.269531 27.769531 2.839844 28.125 2.445312 28.519531 C 2.046875 28.914062 1.695312 29.34375 1.382812 29.808594 C 1.074219 30.269531 0.8125 30.761719 0.597656 31.277344 C 0.382812 31.792969 0.21875 32.324219 0.109375 32.871094 C 0 33.417969 -0.0546875 33.96875 -0.0546875 34.527344 L -0.0546875 115.390625 C -0.0546875 115.949219 0 116.503906 0.109375 117.050781 C 0.21875 117.597656 0.382812 118.128906 0.597656 118.644531 C 0.8125 119.160156 1.074219 119.652344 1.382812 120.113281 C 1.695312 120.578125 2.046875 121.007812 2.445312 121.402344 C 2.839844 121.796875 3.269531 122.148438 3.734375 122.460938 C 4.199219 122.769531 4.691406 123.03125 5.207031 123.246094 C 5.722656 123.460938 6.257812 123.621094 6.804688 123.730469 C 7.351562 123.839844 7.90625 123.894531 8.464844 123.894531 L 141.40625 123.894531 C 141.964844 123.894531 142.519531 123.839844 143.066406 123.730469 C 143.617188 123.621094 144.148438 123.460938 144.664062 123.246094 C 145.183594 123.03125 145.671875 122.769531 146.136719 122.460938 C 146.605469 122.148438 147.035156 121.796875 147.429688 121.402344 C 147.824219 121.007812 148.179688 120.578125 148.488281 120.113281 C 148.800781 119.652344 149.0625 119.160156 149.277344 118.644531 C 149.492188 118.128906 149.652344 117.597656 149.761719 117.050781 C 149.871094 116.503906 149.925781 115.949219 149.929688 115.390625 L 149.929688 34.527344 C 149.925781 33.96875 149.871094 33.417969 149.761719 32.871094 C 149.652344 32.324219 149.492188 31.792969 149.277344 31.277344 C 149.0625 30.761719 148.800781 30.269531 148.488281 29.804688 C 148.179688 29.34375 147.824219 28.914062 147.429688 28.519531 C 147.035156 28.125 146.605469 27.769531 146.136719 27.460938 C 145.671875 27.152344 145.183594 26.886719 144.664062 26.675781 C 144.148438 26.460938 143.617188 26.300781 143.066406 26.191406 C 142.519531 26.082031 141.964844 26.027344 141.40625 26.027344 Z M 98.507812 74.960938 L 145.3125 33.324219 C 145.441406 33.714844 145.507812 34.117188 145.515625 34.527344 L 145.515625 115.390625 C 145.507812 115.804688 145.441406 116.207031 145.3125 116.597656 Z M 141.402344 30.433594 C 141.558594 30.4375 141.714844 30.453125 141.867188 30.480469 L 77.65625 87.601562 C 77.277344 87.933594 76.855469 88.191406 76.386719 88.371094 C 75.914062 88.550781 75.429688 88.636719 74.925781 88.636719 C 74.421875 88.636719 73.933594 88.550781 73.464844 88.371094 C 72.996094 88.191406 72.570312 87.933594 72.195312 87.601562 L 8 30.480469 C 8.15625 30.453125 8.308594 30.4375 8.464844 30.433594 Z M 4.5625 116.597656 C 4.433594 116.207031 4.367188 115.804688 4.359375 115.390625 L 4.359375 34.527344 C 4.367188 34.117188 4.433594 33.714844 4.5625 33.324219 L 51.367188 74.960938 Z M 8.464844 119.492188 C 8.308594 119.488281 8.15625 119.472656 8 119.445312 L 54.679688 77.914062 L 69.269531 90.890625 C 69.65625 91.234375 70.074219 91.539062 70.515625 91.808594 C 70.957031 92.078125 71.421875 92.304688 71.90625 92.488281 C 72.390625 92.671875 72.886719 92.8125 73.394531 92.90625 C 73.90625 93 74.417969 93.042969 74.9375 93.042969 C 75.453125 93.042969 75.96875 93 76.476562 92.90625 C 76.988281 92.8125 77.484375 92.671875 77.96875 92.488281 C 78.453125 92.304688 78.914062 92.078125 79.359375 91.808594 C 79.800781 91.539062 80.214844 91.234375 80.601562 90.890625 L 95.191406 77.910156 L 141.871094 119.441406 C 141.714844 119.46875 141.558594 119.484375 141.402344 119.488281 Z M 8.464844 119.492188 " fill-opacity="1" fill-rule="nonzero"/></svg>