<svg xmlns="http://www.w3.org/2000/svg" xmlns:xlink="http://www.w3.org/1999/xlink" width="200" zoomAndPan="magnify" viewBox="0 0 150 149.999998" height="200" preserveAspectRatio="xMidYMid meet" version="1.2"><g id="4a2e6d78b3"><path style=" stroke:none;fill-rule:nonzero;fill:#ffffff;fill-opacity:1;" d="M 75 0 C 33.636719 0 0 33.636719 0 75 C 0 116.363281 33.636719 150 75 150 C 116.363281 150 150 116.363281 150 75 C 150 33.636719 116.363281 0 75 0 Z M 75 144.738281 C 36.492188 144.738281 5.261719 113.507812 5.261719 75 C 5.261719 36.492188 36.492188 5.261719 75 5.261719 C 113.507812 5.261719 144.738281 36.492188 144.738281 75 C 144.738281 113.507812 113.507812 144.738281 75 144.738281 Z M 75 144.738281 "/><path style=" stroke:none;fill-rule:nonzero;fill:#ffffff;fill-opacity:1;" d="M 112.761719 50.839844 L 87.371094 75 L 112.761719 99.160156 C 113.441406 98.230469 113.875 97.199219 114.066406 96.0625 L 114.066406 53.9375 C 113.875 52.800781 113.441406 51.769531 112.761719 50.839844 Z M 112.761719 50.839844 "/><path style=" stroke:none;fill-rule:nonzero;fill:#ffffff;fill-opacity:1;" d="M 75 86.773438 L 64.550781 76.828125 L 39.179688 100.96875 C 40.375 101.757812 41.6875 102.148438 43.117188 102.144531 L 106.882812 102.144531 C 108.3125 102.148438 109.625 101.757812 110.820312 100.96875 L 85.449219 76.828125 Z M 75 86.773438 "/><path style=" stroke:none;fill-rule:nonzero;fill:#ffffff;fill-opacity:1;" d="M 37.238281 50.839844 C 36.558594 51.769531 36.125 52.800781 35.933594 53.9375 L 35.933594 96.0625 C 36.125 97.199219 36.558594 98.230469 37.238281 99.160156 L 62.628906 75 Z M 37.238281 50.839844 "/><path style=" stroke:none;fill-rule:nonzero;fill:#ffffff;fill-opacity:1;" d="M 64.550781 73.171875 L 75 83.132812 L 110.820312 49.03125 C 109.625 48.242188 108.3125 47.851562 106.882812 47.855469 L 43.117188 47.855469 C 41.6875 47.851562 40.375 48.242188 39.179688 49.03125 Z M 64.550781 73.171875 "/></g></svg>