<svg xmlns="http://www.w3.org/2000/svg" xmlns:xlink="http://www.w3.org/1999/xlink" width="200" zoomAndPan="magnify" viewBox="0 0 150 157.92" height="200" preserveAspectRatio="xMidYMid meet" version="1.0"><defs><clipPath id="edf71290c1"><path d="M 0.0390625 0 L 149.960938 0 L 149.960938 149.925781 L 0.0390625 149.925781 Z M 0.0390625 0 " clip-rule="nonzero"/></clipPath><clipPath id="80dbd6e685"><path d="M 6.785156 0 L 143.214844 0 C 146.941406 0 149.960938 3.019531 149.960938 6.746094 L 149.960938 143.175781 C 149.960938 146.902344 146.941406 149.925781 143.214844 149.925781 L 6.785156 149.925781 C 3.058594 149.925781 0.0390625 146.902344 0.0390625 143.175781 L 0.0390625 6.746094 C 0.0390625 3.019531 3.058594 0 6.785156 0 Z M 6.785156 0 " clip-rule="nonzero"/></clipPath><clipPath id="caa90eab34"><path d="M 25.199219 25.164062 L 124.902344 25.164062 L 124.902344 124.863281 L 25.199219 124.863281 Z M 25.199219 25.164062 " clip-rule="nonzero"/></clipPath></defs><g clip-path="url(#edf71290c1)"><g clip-path="url(#80dbd6e685)"><path fill="#000000" d="M 0.0390625 0 L 149.960938 0 L 149.960938 149.925781 L 0.0390625 149.925781 Z M 0.0390625 0 " fill-opacity="1" fill-rule="nonzero"/></g></g><g clip-path="url(#caa90eab34)"><path fill="#ffffff" d="M 74.996094 25.164062 C 47.496094 25.164062 25.199219 47.457031 25.199219 74.960938 C 25.199219 102.460938 47.496094 124.757812 74.996094 124.757812 C 102.5 124.757812 124.796875 102.460938 124.796875 74.960938 C 124.796875 47.457031 102.5 25.164062 74.996094 25.164062 Z M 74.996094 120.984375 C 49.578125 120.984375 28.972656 100.378906 28.972656 74.960938 C 28.972656 49.542969 49.578125 28.933594 74.996094 28.933594 C 100.417969 28.933594 121.023438 49.542969 121.023438 74.960938 C 121.023438 100.378906 100.417969 120.984375 74.996094 120.984375 Z M 74.996094 120.984375 " fill-opacity="1" fill-rule="nonzero"/></g><path fill="#ffffff" d="M 69.152344 99.367188 C 67.90625 99.488281 66.90625 99.625 65.90625 99.671875 C 60.222656 99.941406 56.015625 97.703125 53.464844 92.480469 C 52.652344 90.816406 51.613281 89.246094 50.53125 87.738281 C 49.878906 86.832031 48.96875 86.105469 48.125 85.351562 L 48.117188 85.34375 C 47.59375 84.886719 47.824219 84.027344 48.507812 83.914062 C 49.3125 83.777344 50.058594 83.921875 50.789062 84.109375 C 53.074219 84.691406 54.539062 86.308594 55.710938 88.246094 C 58.351562 92.628906 62.902344 94.457031 67.820312 93.152344 C 68.65625 92.929688 69.027344 92.570312 69.207031 91.65625 C 69.417969 90.59375 69.707031 89.546875 70.019531 88.480469 C 70.109375 88.164062 70.136719 87.839844 70.09375 87.511719 C 70.054688 87.183594 69.949219 86.875 69.785156 86.589844 C 69.617188 86.304688 69.402344 86.0625 69.136719 85.867188 C 68.867188 85.667969 68.574219 85.53125 68.253906 85.457031 L 68.226562 85.449219 C 63.121094 84.230469 58.710938 81.953125 55.867188 77.289062 C 54.347656 74.792969 53.597656 72.046875 53.632812 69.183594 C 53.679688 65.933594 53.964844 62.679688 54.339844 59.449219 C 54.601562 57.175781 55.65625 55.160156 57.289062 53.523438 C 57.859375 52.953125 57.910156 52.476562 57.632812 51.738281 C 56.507812 48.714844 56.703125 45.6875 57.703125 42.660156 C 57.984375 41.804688 58.386719 41.683594 59.203125 41.941406 C 61.734375 42.734375 63.621094 44.382812 65.277344 46.351562 L 65.296875 46.375 C 65.722656 46.886719 66.253906 47.234375 66.894531 47.417969 C 67.535156 47.605469 68.171875 47.59375 68.804688 47.386719 C 74.054688 45.667969 82.019531 45.644531 86.972656 47.347656 C 87.28125 47.453125 87.601562 47.511719 87.929688 47.519531 C 88.257812 47.527344 88.582031 47.488281 88.898438 47.398438 C 89.214844 47.308594 89.511719 47.175781 89.785156 46.996094 C 90.0625 46.820312 90.304688 46.605469 90.515625 46.351562 L 90.53125 46.332031 C 92.191406 44.359375 94.089844 42.726562 96.617188 41.929688 C 97.464844 41.660156 97.824219 41.867188 98.09375 42.691406 C 99.082031 45.71875 99.25 48.730469 98.183594 51.785156 C 98.03125 52.214844 98.039062 52.960938 98.304688 53.234375 C 100.570312 55.53125 101.566406 58.386719 101.816406 61.480469 C 102.058594 64.46875 102.324219 67.507812 102.046875 70.472656 C 101.324219 78.1875 96.632812 82.683594 89.5 84.917969 C 88.886719 85.109375 88.269531 85.269531 87.632812 85.417969 C 87.300781 85.496094 87 85.640625 86.726562 85.847656 C 86.453125 86.054688 86.234375 86.308594 86.070312 86.605469 C 85.90625 86.90625 85.808594 87.226562 85.78125 87.566406 C 85.753906 87.910156 85.792969 88.242188 85.90625 88.5625 C 86.878906 91.378906 86.730469 94.390625 86.714844 97.378906 C 86.710938 98.066406 86.710938 98.753906 86.707031 99.441406 C 86.707031 100.007812 86.648438 100.574219 86.539062 101.132812 C 86.425781 101.6875 86.261719 102.230469 86.042969 102.757812 C 85.824219 103.28125 85.554688 103.78125 85.238281 104.253906 C 84.921875 104.726562 84.5625 105.164062 84.160156 105.566406 C 83.757812 105.96875 83.316406 106.328125 82.84375 106.640625 C 82.371094 106.957031 81.871094 107.222656 81.34375 107.441406 C 80.820312 107.660156 80.277344 107.824219 79.71875 107.933594 C 79.160156 108.046875 78.597656 108.101562 78.027344 108.101562 L 77.832031 108.101562 C 77.261719 108.101562 76.699219 108.046875 76.140625 107.933594 C 75.582031 107.824219 75.039062 107.65625 74.511719 107.441406 C 73.984375 107.222656 73.484375 106.953125 73.011719 106.636719 C 72.535156 106.320312 72.097656 105.960938 71.695312 105.558594 C 71.292969 105.15625 70.933594 104.71875 70.617188 104.242188 C 70.300781 103.769531 70.03125 103.269531 69.8125 102.742188 C 69.597656 102.214844 69.429688 101.671875 69.320312 101.113281 C 69.207031 100.554688 69.152344 99.992188 69.152344 99.421875 Z M 69.152344 99.367188 " fill-opacity="1" fill-rule="nonzero"/></svg>