<svg xmlns="http://www.w3.org/2000/svg" xmlns:xlink="http://www.w3.org/1999/xlink" width="200" zoomAndPan="magnify" viewBox="0 0 150 149.999998" height="200" preserveAspectRatio="xMidYMid meet" version="1.0"><path fill="#ffffff" d="M 75 0 C 33.578125 0 0 33.578125 0 75 C 0 116.421875 33.578125 150 75 150 C 116.421875 150 150 116.421875 150 75 C 150 33.578125 116.421875 0 75 0 Z M 75 144.320312 C 36.714844 144.320312 5.679688 113.285156 5.679688 75 C 5.679688 36.714844 36.714844 5.679688 75 5.679688 C 113.285156 5.679688 144.320312 36.714844 144.320312 75 C 144.320312 113.285156 113.285156 144.320312 75 144.320312 Z M 75 144.320312 " fill-opacity="1" fill-rule="nonzero"/><path fill="#ffffff" d="M 66.199219 111.761719 C 64.316406 111.941406 62.8125 112.148438 61.304688 112.222656 C 52.746094 112.625 46.410156 109.253906 42.570312 101.386719 C 41.347656 98.878906 39.78125 96.515625 38.148438 94.246094 C 37.167969 92.882812 35.796875 91.789062 34.527344 90.652344 L 34.511719 90.636719 C 33.730469 89.949219 34.074219 88.65625 35.105469 88.484375 C 36.3125 88.28125 37.441406 88.5 38.539062 88.78125 C 41.980469 89.65625 44.1875 92.09375 45.949219 95.011719 C 49.929688 101.609375 56.78125 104.363281 64.191406 102.398438 C 65.449219 102.0625 66.003906 101.519531 66.277344 100.148438 C 66.597656 98.550781 67.03125 96.972656 67.5 95.363281 C 67.566406 95.125 67.613281 94.886719 67.632812 94.640625 C 67.652344 94.394531 67.644531 94.148438 67.617188 93.902344 C 67.585938 93.660156 67.53125 93.417969 67.453125 93.1875 C 67.375 92.953125 67.269531 92.730469 67.148438 92.515625 C 67.023438 92.304688 66.878906 92.105469 66.714844 91.921875 C 66.550781 91.738281 66.367188 91.574219 66.167969 91.425781 C 65.972656 91.277344 65.761719 91.152344 65.535156 91.050781 C 65.3125 90.945312 65.082031 90.867188 64.839844 90.808594 L 64.800781 90.800781 C 57.109375 88.960938 50.46875 85.535156 46.1875 78.507812 C 43.898438 74.75 42.765625 70.609375 42.824219 66.296875 C 42.890625 61.40625 43.324219 56.503906 43.886719 51.636719 C 44.28125 48.210938 45.867188 45.179688 48.332031 42.714844 C 49.1875 41.855469 49.261719 41.136719 48.847656 40.027344 C 47.152344 35.472656 47.445312 30.914062 48.953125 26.351562 C 49.375 25.0625 49.980469 24.878906 51.210938 25.269531 C 55.019531 26.46875 57.863281 28.945312 60.363281 31.914062 L 60.386719 31.945312 C 60.699219 32.324219 61.0625 32.644531 61.472656 32.914062 C 61.882812 33.183594 62.324219 33.382812 62.796875 33.519531 C 63.269531 33.65625 63.75 33.722656 64.238281 33.714844 C 64.730469 33.707031 65.207031 33.625 65.675781 33.472656 C 73.582031 30.882812 85.578125 30.847656 93.035156 33.414062 C 93.503906 33.570312 93.984375 33.65625 94.480469 33.671875 C 94.972656 33.683594 95.460938 33.625 95.933594 33.488281 C 96.410156 33.355469 96.859375 33.15625 97.273438 32.886719 C 97.6875 32.617188 98.054688 32.292969 98.371094 31.910156 L 98.394531 31.882812 C 100.898438 28.914062 103.753906 26.453125 107.558594 25.253906 C 108.835938 24.847656 109.382812 25.15625 109.785156 26.398438 C 111.273438 30.960938 111.523438 35.496094 109.917969 40.09375 C 109.691406 40.742188 109.699219 41.867188 110.105469 42.277344 C 113.515625 45.738281 115.011719 50.039062 115.390625 54.695312 C 115.757812 59.195312 116.15625 63.773438 115.738281 68.242188 C 114.648438 79.863281 107.582031 86.632812 96.839844 89.996094 C 95.917969 90.285156 94.984375 90.523438 94.03125 90.75 C 93.785156 90.808594 93.546875 90.894531 93.316406 91 C 93.085938 91.109375 92.867188 91.242188 92.664062 91.394531 C 92.460938 91.550781 92.277344 91.722656 92.109375 91.917969 C 91.945312 92.109375 91.800781 92.316406 91.675781 92.542969 C 91.554688 92.765625 91.457031 93 91.382812 93.242188 C 91.308594 93.484375 91.261719 93.734375 91.242188 93.988281 C 91.21875 94.242188 91.226562 94.496094 91.257812 94.75 C 91.289062 95 91.347656 95.25 91.429688 95.488281 C 92.894531 99.730469 92.667969 104.261719 92.648438 108.765625 C 92.640625 109.796875 92.636719 110.835938 92.636719 111.871094 C 92.632812 112.726562 92.550781 113.578125 92.378906 114.417969 C 92.210938 115.257812 91.960938 116.074219 91.632812 116.863281 C 91.304688 117.65625 90.902344 118.40625 90.421875 119.121094 C 89.945312 119.832031 89.40625 120.488281 88.796875 121.09375 C 88.191406 121.699219 87.53125 122.242188 86.816406 122.71875 C 86.105469 123.191406 85.351562 123.59375 84.558594 123.921875 C 83.769531 124.25 82.953125 124.496094 82.109375 124.664062 C 81.269531 124.832031 80.421875 124.914062 79.5625 124.914062 L 79.269531 124.914062 C 78.410156 124.914062 77.5625 124.828125 76.71875 124.664062 C 75.878906 124.496094 75.058594 124.246094 74.265625 123.917969 C 73.472656 123.589844 72.71875 123.1875 72.007812 122.710938 C 71.292969 122.234375 70.632812 121.691406 70.027344 121.085938 C 69.417969 120.476562 68.878906 119.816406 68.398438 119.105469 C 67.921875 118.390625 67.519531 117.636719 67.191406 116.84375 C 66.863281 116.050781 66.617188 115.234375 66.449219 114.390625 C 66.28125 113.550781 66.195312 112.699219 66.195312 111.839844 Z M 66.199219 111.761719 " fill-opacity="1" fill-rule="nonzero"/></svg>