<svg xmlns="http://www.w3.org/2000/svg" xmlns:xlink="http://www.w3.org/1999/xlink" width="200" zoomAndPan="magnify" viewBox="0 0 150 149.999998" height="200" preserveAspectRatio="xMidYMid meet" version="1.0"><defs><clipPath id="194fff7ecf"><path d="M 6.75 0 L 143.25 0 C 146.976562 0 150 3.023438 150 6.75 L 150 143.25 C 150 146.976562 146.976562 150 143.25 150 L 6.75 150 C 3.023438 150 0 146.976562 0 143.25 L 0 6.75 C 0 3.023438 3.023438 0 6.75 0 Z M 6.75 0 " clip-rule="nonzero"/></clipPath><clipPath id="369809348f"><path d="M 13.3125 13.3125 L 136.3125 13.3125 L 136.3125 136.3125 L 13.3125 136.3125 Z M 13.3125 13.3125 " clip-rule="nonzero"/></clipPath></defs><rect x="-15" width="180" fill="#ffffff" y="-15" height="179.999997" fill-opacity="1"/><rect x="-15" width="180" fill="#ffffff" y="-15" height="179.999997" fill-opacity="1"/><g clip-path="url(#194fff7ecf)"><rect x="-15" width="180" fill="#ffffff" y="-15" height="179.999997" fill-opacity="1"/></g><g clip-path="url(#369809348f)"><path fill="#000000" d="M 74.8125 13.3125 C 40.847656 13.3125 13.3125 40.847656 13.3125 74.8125 C 13.3125 108.777344 40.847656 136.3125 74.8125 136.3125 C 108.777344 136.3125 136.3125 108.777344 136.3125 74.8125 C 136.3125 40.847656 108.777344 13.3125 74.8125 13.3125 Z M 74.8125 131.65625 C 43.421875 131.65625 17.972656 106.207031 17.972656 74.8125 C 17.972656 43.421875 43.421875 17.972656 74.8125 17.972656 C 106.207031 17.972656 131.65625 43.421875 131.65625 74.8125 C 131.65625 106.207031 106.207031 131.65625 74.8125 131.65625 Z M 74.8125 131.65625 " fill-opacity="1" fill-rule="nonzero"/></g><path fill="#000000" d="M 67.59375 104.957031 C 66.050781 105.105469 64.820312 105.277344 63.582031 105.335938 C 56.566406 105.667969 51.371094 102.898438 48.21875 96.449219 C 47.214844 94.394531 45.933594 92.457031 44.59375 90.59375 C 43.792969 89.476562 42.664062 88.578125 41.625 87.648438 L 41.613281 87.636719 C 40.96875 87.070312 41.253906 86.011719 42.097656 85.871094 C 43.089844 85.703125 44.015625 85.882812 44.914062 86.113281 C 47.738281 86.832031 49.546875 88.832031 50.992188 91.222656 C 54.253906 96.632812 59.875 98.890625 65.949219 97.277344 C 66.980469 97.003906 67.4375 96.558594 67.660156 95.433594 C 67.921875 94.121094 68.28125 92.828125 68.664062 91.511719 C 68.777344 91.117188 68.808594 90.71875 68.757812 90.3125 C 68.707031 89.90625 68.578125 89.527344 68.375 89.175781 C 68.167969 88.824219 67.898438 88.523438 67.570312 88.28125 C 67.242188 88.039062 66.878906 87.871094 66.480469 87.777344 L 66.449219 87.769531 C 60.144531 86.257812 54.695312 83.449219 51.1875 77.6875 C 49.308594 74.605469 48.382812 71.214844 48.429688 67.675781 C 48.484375 63.664062 48.835938 59.644531 49.296875 55.65625 C 49.625 52.847656 50.925781 50.359375 52.945312 48.339844 C 53.648438 47.636719 53.707031 47.046875 53.367188 46.132812 C 51.976562 42.402344 52.21875 38.660156 53.453125 34.921875 C 53.800781 33.867188 54.296875 33.714844 55.304688 34.03125 C 58.429688 35.015625 60.761719 37.046875 62.808594 39.484375 L 62.828125 39.507812 C 63.085938 39.816406 63.382812 40.082031 63.722656 40.300781 C 64.058594 40.523438 64.417969 40.6875 64.804688 40.800781 C 65.191406 40.910156 65.585938 40.964844 65.988281 40.957031 C 66.390625 40.953125 66.785156 40.886719 67.167969 40.761719 C 73.648438 38.636719 83.484375 38.605469 89.601562 40.710938 C 89.984375 40.84375 90.378906 40.914062 90.785156 40.921875 C 91.191406 40.933594 91.589844 40.882812 91.980469 40.773438 C 92.371094 40.664062 92.734375 40.5 93.078125 40.277344 C 93.417969 40.058594 93.71875 39.792969 93.976562 39.480469 L 93.996094 39.457031 C 96.050781 37.023438 98.390625 35.007812 101.511719 34.019531 C 102.558594 33.6875 103.003906 33.941406 103.335938 34.960938 C 104.554688 38.703125 104.761719 42.417969 103.445312 46.191406 C 103.261719 46.722656 103.265625 47.644531 103.597656 47.980469 C 106.398438 50.820312 107.621094 54.34375 107.933594 58.164062 C 108.234375 61.855469 108.558594 65.605469 108.21875 69.269531 C 107.324219 78.800781 101.53125 84.351562 92.722656 87.109375 C 91.96875 87.34375 91.199219 87.542969 90.417969 87.726562 C 90.214844 87.777344 90.019531 87.84375 89.832031 87.933594 C 89.640625 88.023438 89.464844 88.132812 89.296875 88.257812 C 89.132812 88.382812 88.980469 88.527344 88.84375 88.683594 C 88.707031 88.84375 88.589844 89.011719 88.488281 89.195312 C 88.386719 89.378906 88.308594 89.570312 88.246094 89.769531 C 88.1875 89.972656 88.148438 90.175781 88.128906 90.382812 C 88.113281 90.59375 88.117188 90.800781 88.144531 91.007812 C 88.167969 91.214844 88.214844 91.417969 88.285156 91.613281 C 89.484375 95.09375 89.300781 98.808594 89.285156 102.5 C 89.277344 103.347656 89.277344 104.195312 89.273438 105.046875 C 89.273438 105.75 89.203125 106.445312 89.066406 107.132812 C 88.925781 107.824219 88.722656 108.492188 88.453125 109.140625 C 88.183594 109.789062 87.851562 110.40625 87.460938 110.992188 C 87.070312 111.574219 86.625 112.113281 86.125 112.609375 C 85.628906 113.109375 85.089844 113.550781 84.503906 113.941406 C 83.917969 114.332031 83.300781 114.660156 82.652344 114.929688 C 82.003906 115.195312 81.332031 115.398438 80.644531 115.535156 C 79.953125 115.671875 79.257812 115.742188 78.554688 115.742188 L 78.3125 115.742188 C 77.609375 115.742188 76.914062 115.671875 76.222656 115.535156 C 75.53125 115.398438 74.863281 115.195312 74.210938 114.925781 C 73.5625 114.65625 72.945312 114.328125 72.359375 113.933594 C 71.773438 113.542969 71.230469 113.101562 70.734375 112.601562 C 70.238281 112.105469 69.792969 111.5625 69.402344 110.976562 C 69.011719 110.394531 68.679688 109.773438 68.410156 109.125 C 68.140625 108.472656 67.9375 107.804688 67.800781 107.113281 C 67.664062 106.421875 67.59375 105.726562 67.59375 105.023438 Z M 67.59375 104.957031 " fill-opacity="1" fill-rule="nonzero"/></svg>