<svg xmlns="http://www.w3.org/2000/svg" xmlns:xlink="http://www.w3.org/1999/xlink" width="200" zoomAndPan="magnify" viewBox="0 0 150 149.999998" height="200" preserveAspectRatio="xMidYMid meet" version="1.0"><defs><clipPath id="480afaf241"><path d="M 22.890625 16.648438 L 149.238281 16.648438 L 149.238281 150 L 22.890625 150 Z M 22.890625 16.648438 " clip-rule="nonzero"/></clipPath></defs><g clip-path="url(#480afaf241)"><path fill="#000000" d="M 34.695312 85.226562 C 32.996094 85.226562 31.917969 85.675781 31.476562 86.09375 C 28.910156 88.527344 28.550781 89.660156 31.253906 94.386719 C 32.136719 95.929688 33.273438 97.339844 34.953125 98.96875 C 43.054688 106.832031 51.699219 114.417969 60.0625 121.757812 L 60.109375 121.800781 C 62.464844 123.867188 64.894531 126.003906 67.28125 128.113281 C 68.125 128.863281 68.96875 129.613281 69.8125 130.367188 C 74.539062 134.589844 79.425781 138.953125 84.796875 142.414062 C 89.425781 145.394531 94.304688 146.84375 99.710938 146.84375 C 102.789062 146.84375 106.09375 146.355469 109.53125 145.382812 C 116.492188 143.402344 124.105469 138.824219 129.894531 133.144531 C 134.757812 128.367188 140.660156 120.539062 141.144531 110.375 L 141.148438 110.28125 L 141.164062 110.183594 C 142.015625 104.011719 140.996094 97.625 140.011719 91.449219 L 140.011719 91.433594 C 139.589844 88.792969 139.15625 86.0625 138.863281 83.347656 C 138.734375 82.167969 138.566406 80.957031 138.402344 79.789062 L 138.398438 79.769531 C 137.925781 76.414062 137.4375 72.949219 137.765625 69.265625 C 138.351562 62.691406 141.132812 57.171875 143.824219 51.828125 L 143.847656 51.777344 C 144.363281 50.761719 144.890625 49.710938 145.390625 48.675781 C 146.773438 45.820312 146.058594 43.355469 143.425781 41.910156 C 142.648438 41.480469 141.40625 41.246094 139.9375 41.246094 C 135.726562 41.246094 130.480469 43.109375 128.476562 45.316406 C 124.554688 49.640625 122.683594 55.019531 122.765625 61.761719 C 122.816406 66.015625 120.660156 69.238281 116.847656 70.609375 C 115.753906 71.003906 114.652344 71.203125 113.582031 71.203125 C 110.953125 71.203125 108.515625 70.039062 106.335938 67.738281 C 103.976562 65.246094 98.757812 58.457031 94.15625 52.460938 L 94.148438 52.449219 C 90.640625 47.886719 87.332031 43.574219 85.917969 41.984375 C 83.339844 39.089844 80.578125 35.5625 77.902344 32.152344 C 74.203125 27.429688 70.371094 22.546875 68.363281 21.160156 C 67.1875 20.347656 65.980469 19.9375 64.769531 19.9375 C 64.441406 19.9375 64.105469 19.96875 63.769531 20.027344 C 61.679688 20.40625 59.824219 21.871094 58.929688 23.847656 C 58.257812 25.335938 58.242188 26.683594 58.890625 27.96875 C 60.527344 31.0625 63.664062 35.160156 66.433594 38.777344 L 66.445312 38.796875 C 66.902344 39.394531 67.351562 39.980469 67.78125 40.542969 C 77.613281 53.492188 84.289062 62.746094 87.082031 67.296875 C 87.589844 68.125 87.613281 69.15625 87.148438 69.992188 C 86.667969 70.847656 85.761719 71.378906 84.789062 71.378906 C 84.039062 71.378906 83.3125 71.050781 82.800781 70.484375 C 77 64.035156 61.785156 46.84375 54.167969 38.097656 C 53.414062 37.234375 52.683594 36.34375 51.976562 35.480469 C 49.90625 32.957031 47.761719 30.34375 45.089844 28.488281 C 43.5625 27.429688 42.042969 26.890625 40.570312 26.890625 C 39.269531 26.890625 38 27.320312 36.796875 28.167969 C 34.464844 29.808594 33.710938 32.515625 34.832031 35.234375 C 36.34375 38.910156 41.78125 44.761719 46.152344 49.464844 C 48.050781 51.507812 49.691406 53.269531 50.851562 54.679688 C 53.460938 57.851562 56.25 60.980469 58.945312 64.003906 C 62.003906 67.441406 65.171875 70.992188 68.125 74.660156 C 68.773438 75.464844 69.628906 76.386719 70.535156 77.367188 C 72.257812 79.226562 74.203125 81.328125 75.605469 83.535156 C 76.1875 84.449219 76.226562 85.601562 75.710938 86.539062 C 75.183594 87.5 74.183594 88.09375 73.105469 88.09375 C 72.441406 88.09375 71.808594 87.871094 71.269531 87.449219 C 67.726562 84.644531 61.898438 78.410156 57.640625 73.855469 C 56.328125 72.453125 55.199219 71.246094 54.328125 70.34375 C 52.878906 68.839844 51.433594 67.289062 50.039062 65.789062 C 46.324219 61.792969 42.484375 57.667969 38.300781 54.207031 C 36.316406 52.566406 33.957031 51.621094 31.824219 51.621094 C 29.179688 51.621094 27.3125 53.042969 26.433594 55.726562 C 25.355469 59.015625 27.15625 61.738281 30.414062 65.070312 C 34.175781 68.914062 38.074219 72.761719 41.847656 76.484375 L 41.882812 76.519531 C 43.953125 78.5625 46.09375 80.671875 48.1875 82.761719 C 52.761719 87.324219 62.460938 97.292969 66.417969 102.347656 C 67.09375 103.210938 67.214844 104.351562 66.742188 105.324219 C 66.261719 106.304688 65.257812 106.9375 64.183594 106.9375 C 63.542969 106.9375 62.933594 106.722656 62.417969 106.3125 C 59.78125 104.21875 56.105469 100.882812 52.210938 97.355469 C 47.308594 92.914062 42.246094 88.328125 39.6875 86.628906 C 38.339844 85.738281 36.519531 85.226562 34.695312 85.226562 Z M 99.710938 150 C 93.679688 150 88.242188 148.386719 83.085938 145.066406 C 77.503906 141.46875 72.523438 137.023438 67.710938 132.722656 C 66.867188 131.96875 66.027344 131.21875 65.1875 130.472656 C 62.804688 128.367188 60.375 126.234375 58.027344 124.171875 L 57.976562 124.128906 C 49.585938 116.761719 40.910156 109.148438 32.75 101.230469 C 30.851562 99.390625 29.542969 97.761719 28.511719 95.949219 C 26.800781 92.960938 26.140625 91.023438 26.230469 89.253906 C 26.34375 86.90625 27.847656 85.183594 29.300781 83.804688 C 30.484375 82.6875 32.398438 82.070312 34.695312 82.070312 C 37.125 82.070312 39.582031 82.773438 41.433594 84.003906 C 44.191406 85.832031 49.34375 90.5 54.328125 95.015625 C 56.972656 97.410156 59.511719 99.710938 61.671875 101.578125 C 57.121094 96.332031 49.757812 88.785156 45.953125 84.992188 C 43.867188 82.910156 41.730469 80.804688 39.664062 78.761719 L 39.625 78.726562 C 35.84375 74.996094 31.9375 71.140625 28.15625 67.273438 C 25.84375 64.910156 21.539062 60.511719 23.429688 54.746094 C 24.738281 50.753906 27.800781 48.46875 31.824219 48.46875 C 34.679688 48.46875 37.773438 49.675781 40.316406 51.777344 C 44.65625 55.371094 48.570312 59.574219 52.351562 63.636719 C 53.738281 65.128906 55.175781 66.671875 56.601562 68.152344 C 57.488281 69.074219 58.628906 70.292969 59.949219 71.703125 C 63.710938 75.726562 68.71875 81.082031 72.132812 84.058594 C 70.96875 82.480469 69.523438 80.921875 68.21875 79.515625 C 67.273438 78.488281 66.382812 77.527344 65.664062 76.640625 C 62.757812 73.03125 59.621094 69.507812 56.585938 66.101562 C 53.867188 63.054688 51.0625 59.902344 48.414062 56.683594 C 47.3125 55.347656 45.703125 53.613281 43.839844 51.609375 C 39.292969 46.722656 33.636719 40.640625 31.910156 36.433594 C 31.089844 34.445312 30.945312 32.367188 31.488281 30.433594 C 32.039062 28.484375 33.242188 26.808594 34.976562 25.589844 C 36.722656 24.359375 38.605469 23.738281 40.570312 23.738281 C 42.699219 23.738281 44.824219 24.464844 46.894531 25.898438 C 49.925781 28.003906 52.210938 30.789062 54.421875 33.480469 C 55.113281 34.324219 55.828125 35.195312 56.550781 36.027344 C 62.632812 43.011719 73.570312 55.386719 80.667969 63.359375 C 77.167969 58.34375 71.957031 51.265625 65.261719 42.449219 C 64.835938 41.886719 64.390625 41.308594 63.9375 40.710938 L 63.921875 40.695312 C 61.074219 36.972656 57.847656 32.753906 56.089844 29.429688 L 56.074219 29.40625 C 54.996094 27.273438 54.988281 24.902344 56.050781 22.550781 C 57.363281 19.640625 60.105469 17.484375 63.207031 16.921875 C 63.726562 16.828125 64.25 16.78125 64.769531 16.78125 C 66.632812 16.78125 68.449219 17.382812 70.160156 18.566406 C 72.5625 20.226562 76.191406 24.851562 80.390625 30.207031 C 83.035156 33.578125 85.769531 37.066406 88.277344 39.890625 C 89.769531 41.5625 93.113281 45.917969 96.652344 50.53125 L 96.660156 50.539062 C 101.21875 56.476562 106.382812 63.199219 108.628906 65.566406 C 110.1875 67.214844 111.855469 68.050781 113.582031 68.050781 C 114.289062 68.050781 115.027344 67.910156 115.78125 67.640625 C 118.320312 66.726562 119.640625 64.707031 119.605469 61.800781 C 119.515625 54.222656 121.652344 48.136719 126.136719 43.195312 C 128.734375 40.332031 134.796875 38.089844 139.9375 38.089844 C 141.960938 38.089844 143.691406 38.457031 144.949219 39.144531 C 149.0625 41.402344 150.351562 45.683594 148.234375 50.050781 C 147.722656 51.109375 147.1875 52.171875 146.671875 53.195312 L 146.644531 53.25 C 144.085938 58.324219 141.445312 63.570312 140.910156 69.542969 C 140.613281 72.867188 141.078125 76.152344 141.523438 79.328125 L 141.527344 79.347656 C 141.695312 80.546875 141.871094 81.78125 142.003906 83.011719 C 142.289062 85.648438 142.714844 88.335938 143.128906 90.9375 L 143.132812 90.953125 C 144.152344 97.339844 145.203125 103.945312 144.296875 110.574219 C 143.742188 121.738281 137.367188 130.230469 132.109375 135.390625 C 125.960938 141.429688 117.84375 146.300781 110.390625 148.417969 C 106.671875 149.46875 103.082031 150 99.710938 150 " fill-opacity="1" fill-rule="nonzero"/></g><path fill="#000000" d="M 83.332031 3.957031 C 91.917969 8.785156 98.867188 16.210938 103.21875 25.03125 C 104.425781 27.472656 105.390625 30 106.160156 32.617188 C 106.765625 34.683594 110.007812 33.804688 109.398438 31.726562 C 106.46875 21.738281 100.449219 12.664062 92.371094 6.089844 C 90.066406 4.214844 87.621094 2.523438 85.027344 1.066406 C 83.140625 0.00390625 81.449219 2.898438 83.332031 3.957031 " fill-opacity="1" fill-rule="nonzero"/><path fill="#000000" d="M 79.894531 13.839844 C 87.5 18.296875 93.109375 25.75 95.523438 34.199219 C 96.117188 36.269531 99.355469 35.390625 98.761719 33.308594 C 96.707031 26.117188 92.523438 19.496094 86.800781 14.652344 C 85.171875 13.273438 83.429688 12.023438 81.589844 10.945312 C 79.722656 9.851562 78.03125 12.746094 79.894531 13.839844 " fill-opacity="1" fill-rule="nonzero"/><path fill="#000000" d="M 0.390625 101.140625 C 4.894531 110.5 12.359375 118.414062 21.367188 123.585938 C 23.960938 125.074219 26.695312 126.324219 29.507812 127.347656 C 30.359375 127.65625 31.34375 127 31.570312 126.175781 C 31.828125 125.242188 31.253906 124.425781 30.398438 124.113281 C 21.304688 120.804688 13.191406 114.589844 7.570312 106.699219 C 5.9375 104.410156 4.507812 101.980469 3.289062 99.445312 C 2.898438 98.632812 1.730469 98.414062 0.992188 98.847656 C 0.160156 99.335938 0 100.320312 0.390625 101.140625 " fill-opacity="1" fill-rule="nonzero"/><path fill="#000000" d="M 10.484375 98.351562 C 13.828125 104.984375 19.292969 110.527344 25.773438 114.144531 C 27.691406 115.214844 29.707031 116.113281 31.773438 116.847656 C 32.628906 117.152344 33.609375 116.503906 33.835938 115.675781 C 34.09375 114.75 33.523438 113.921875 32.667969 113.617188 C 24.378906 110.664062 17.339844 104.511719 13.382812 96.660156 C 12.976562 95.851562 11.835938 95.621094 11.089844 96.058594 C 10.265625 96.539062 10.078125 97.539062 10.484375 98.351562 " fill-opacity="1" fill-rule="nonzero"/></svg>