<svg xmlns="http://www.w3.org/2000/svg" xmlns:xlink="http://www.w3.org/1999/xlink" width="200" zoomAndPan="magnify" viewBox="0 0 150 157.92" height="200" preserveAspectRatio="xMidYMid meet" version="1.0"><defs><clipPath id="82f4d43c4e"><path d="M 10 8.898438 L 140 8.898438 L 140 140.832031 L 10 140.832031 Z M 10 8.898438 " clip-rule="nonzero"/></clipPath></defs><g clip-path="url(#82f4d43c4e)"><path fill="#000000" d="M 137.703125 70.25 L 82.382812 12.054688 C 81.414062 11.039062 80.285156 10.253906 78.996094 9.699219 C 77.707031 9.148438 76.359375 8.871094 74.953125 8.867188 C 73.550781 8.863281 72.199219 9.136719 70.910156 9.691406 C 69.617188 10.242188 68.492188 11.03125 67.527344 12.054688 C 49.089844 31.457031 30.652344 50.863281 12.210938 70.265625 C 11.75 70.753906 11.367188 71.296875 11.0625 71.894531 C 10.761719 72.492188 10.550781 73.121094 10.433594 73.777344 C 10.3125 74.4375 10.292969 75.101562 10.371094 75.765625 C 10.445312 76.433594 10.617188 77.074219 10.882812 77.6875 C 11.144531 78.304688 11.492188 78.871094 11.925781 79.382812 C 12.355469 79.898438 12.851562 80.339844 13.410156 80.707031 C 13.972656 81.074219 14.574219 81.355469 15.214844 81.546875 C 15.859375 81.742188 16.515625 81.835938 17.1875 81.835938 L 20.050781 81.835938 L 20.050781 130.453125 C 20.050781 131.132812 20.117188 131.804688 20.25 132.472656 C 20.386719 133.136719 20.582031 133.785156 20.84375 134.410156 C 21.105469 135.039062 21.421875 135.636719 21.800781 136.199219 C 22.179688 136.765625 22.609375 137.289062 23.089844 137.769531 C 23.570312 138.25 24.09375 138.679688 24.660156 139.054688 C 25.226562 139.433594 25.824219 139.753906 26.449219 140.011719 C 27.078125 140.273438 27.726562 140.46875 28.394531 140.605469 C 29.0625 140.738281 29.734375 140.804688 30.414062 140.804688 L 119.5 140.804688 C 120.179688 140.804688 120.851562 140.738281 121.519531 140.601562 C 122.1875 140.46875 122.832031 140.273438 123.460938 140.011719 C 124.089844 139.75 124.6875 139.433594 125.253906 139.054688 C 125.816406 138.675781 126.339844 138.25 126.820312 137.769531 C 127.304688 137.289062 127.734375 136.765625 128.109375 136.199219 C 128.488281 135.636719 128.808594 135.039062 129.070312 134.410156 C 129.328125 133.785156 129.527344 133.136719 129.660156 132.472656 C 129.792969 131.804688 129.863281 131.132812 129.863281 130.453125 L 129.863281 81.820312 L 132.726562 81.820312 C 133.394531 81.820312 134.050781 81.726562 134.695312 81.53125 C 135.339844 81.339844 135.941406 81.0625 136.5 80.691406 C 137.058594 80.324219 137.554688 79.882812 137.988281 79.367188 C 138.417969 78.855469 138.765625 78.289062 139.03125 77.675781 C 139.292969 77.058594 139.464844 76.417969 139.542969 75.75 C 139.617188 75.085938 139.597656 74.421875 139.480469 73.761719 C 139.359375 73.105469 139.152344 72.476562 138.847656 71.878906 C 138.542969 71.277344 138.160156 70.738281 137.699219 70.25 Z M 57.902344 134.589844 L 57.902344 85.457031 C 57.902344 85.125 57.964844 84.804688 58.09375 84.496094 C 58.222656 84.1875 58.402344 83.917969 58.636719 83.683594 C 58.871094 83.445312 59.144531 83.265625 59.453125 83.140625 C 59.761719 83.011719 60.082031 82.949219 60.414062 82.949219 L 89.496094 82.949219 C 89.828125 82.949219 90.148438 83.011719 90.457031 83.140625 C 90.765625 83.265625 91.035156 83.449219 91.269531 83.683594 C 91.507812 83.917969 91.6875 84.1875 91.816406 84.496094 C 91.941406 84.804688 92.007812 85.125 92.003906 85.457031 L 92.003906 134.589844 Z M 132.726562 75.710938 L 126.808594 75.710938 C 126.402344 75.710938 126.011719 75.789062 125.636719 75.945312 C 125.261719 76.097656 124.929688 76.320312 124.644531 76.605469 C 124.355469 76.890625 124.136719 77.222656 123.980469 77.597656 C 123.824219 77.972656 123.75 78.359375 123.75 78.765625 L 123.75 130.453125 C 123.746094 130.730469 123.71875 131.003906 123.664062 131.277344 C 123.609375 131.550781 123.527344 131.816406 123.421875 132.074219 C 123.3125 132.332031 123.183594 132.574219 123.027344 132.808594 C 122.871094 133.039062 122.695312 133.253906 122.5 133.449219 C 122.300781 133.648438 122.085938 133.824219 121.855469 133.976562 C 121.625 134.132812 121.378906 134.261719 121.121094 134.371094 C 120.863281 134.476562 120.601562 134.558594 120.328125 134.613281 C 120.054688 134.667969 119.777344 134.699219 119.496094 134.699219 L 98.121094 134.699219 L 98.121094 85.457031 C 98.121094 84.890625 98.066406 84.332031 97.957031 83.777344 C 97.847656 83.222656 97.683594 82.683594 97.464844 82.160156 C 97.25 81.636719 96.984375 81.140625 96.667969 80.671875 C 96.355469 80.199219 95.996094 79.765625 95.597656 79.367188 C 95.195312 78.964844 94.761719 78.609375 94.289062 78.292969 C 93.820312 77.980469 93.320312 77.714844 92.800781 77.5 C 92.277344 77.28125 91.738281 77.117188 91.179688 77.007812 C 90.625 76.898438 90.066406 76.84375 89.5 76.84375 L 60.414062 76.84375 C 59.847656 76.84375 59.285156 76.898438 58.730469 77.007812 C 58.175781 77.117188 57.636719 77.28125 57.113281 77.5 C 56.589844 77.714844 56.09375 77.980469 55.621094 78.292969 C 55.152344 78.609375 54.714844 78.964844 54.316406 79.367188 C 53.914062 79.765625 53.558594 80.199219 53.242188 80.671875 C 52.929688 81.140625 52.664062 81.636719 52.445312 82.160156 C 52.230469 82.683594 52.066406 83.222656 51.957031 83.777344 C 51.84375 84.332031 51.789062 84.890625 51.789062 85.457031 L 51.789062 134.703125 L 30.410156 134.703125 C 30.132812 134.699219 29.855469 134.671875 29.582031 134.617188 C 29.308594 134.5625 29.042969 134.480469 28.785156 134.375 C 28.53125 134.265625 28.285156 134.136719 28.054688 133.980469 C 27.820312 133.824219 27.605469 133.648438 27.410156 133.453125 C 27.210938 133.257812 27.035156 133.042969 26.882812 132.808594 C 26.726562 132.578125 26.59375 132.335938 26.488281 132.078125 C 26.382812 131.820312 26.300781 131.554688 26.246094 131.28125 C 26.191406 131.007812 26.160156 130.734375 26.160156 130.453125 L 26.160156 78.78125 C 26.160156 78.375 26.082031 77.988281 25.929688 77.613281 C 25.773438 77.238281 25.550781 76.90625 25.265625 76.621094 C 24.976562 76.335938 24.648438 76.113281 24.273438 75.957031 C 23.898438 75.804688 23.507812 75.726562 23.101562 75.726562 L 17.179688 75.726562 C 16.855469 75.726562 16.625 75.574219 16.5 75.277344 C 16.371094 74.976562 16.417969 74.710938 16.644531 74.472656 C 35.089844 55.070312 53.53125 35.664062 71.964844 16.261719 C 72.160156 16.0625 72.371094 15.886719 72.605469 15.734375 C 72.835938 15.578125 73.078125 15.449219 73.335938 15.339844 C 73.59375 15.234375 73.855469 15.152344 74.128906 15.101562 C 74.402344 15.046875 74.675781 15.019531 74.957031 15.019531 C 75.234375 15.019531 75.507812 15.046875 75.78125 15.101562 C 76.054688 15.152344 76.320312 15.234375 76.574219 15.339844 C 76.832031 15.449219 77.074219 15.578125 77.308594 15.734375 C 77.539062 15.886719 77.75 16.0625 77.945312 16.261719 L 133.269531 74.457031 C 133.449219 74.628906 133.515625 74.839844 133.464844 75.085938 C 133.4375 75.269531 133.351562 75.417969 133.214844 75.535156 C 133.074219 75.65625 132.910156 75.714844 132.726562 75.710938 Z M 132.726562 75.710938 " fill-opacity="1" fill-rule="nonzero"/></g></svg>