<svg xmlns="http://www.w3.org/2000/svg" xmlns:xlink="http://www.w3.org/1999/xlink" width="200" zoomAndPan="magnify" viewBox="0 0 150 149.999998" height="200" preserveAspectRatio="xMidYMid meet" version="1.2"><defs><clipPath id="f8ee5b4fff"><path d="M 75 0 C 33.578125 0 0 33.578125 0 75 C 0 116.421875 33.578125 150 75 150 C 116.421875 150 150 116.421875 150 75 C 150 33.578125 116.421875 0 75 0 Z M 75 0 "/></clipPath></defs><g id="d087992eac"><g style="fill:#ffffff;fill-opacity:1;"><g transform="translate(23.935726, 111.973697)"><path style="stroke:none" d="M 8.34375 -86.53125 C 10.582031 -88.769531 13.253906 -89.890625 16.359375 -89.890625 C 19.460938 -89.890625 22.128906 -88.769531 24.359375 -86.53125 C 26.597656 -84.289062 27.71875 -81.617188 27.71875 -78.515625 C 27.71875 -75.410156 26.597656 -72.738281 24.359375 -70.5 C 22.128906 -68.257812 19.460938 -67.140625 16.359375 -67.140625 C 13.253906 -67.140625 10.582031 -68.257812 8.34375 -70.5 C 6.101562 -72.738281 4.984375 -75.410156 4.984375 -78.515625 C 4.984375 -81.617188 6.101562 -84.289062 8.34375 -86.53125 Z M 6.5 -55.5625 L 6.5 0 L 25.671875 0 L 25.671875 -55.5625 Z M 6.5 -55.5625 "/></g></g><g style="fill:#ffffff;fill-opacity:1;"><g transform="translate(54.475019, 111.973697)"><path style="stroke:none" d="M 6.5 0 L 6.5 -55.5625 L 25.671875 -55.5625 L 25.671875 -49.703125 L 25.890625 -49.703125 C 30.867188 -54.691406 36.171875 -57.1875 41.796875 -57.1875 C 44.546875 -57.1875 47.273438 -56.820312 49.984375 -56.09375 C 52.691406 -55.375 55.289062 -54.253906 57.78125 -52.734375 C 60.269531 -51.222656 62.289062 -49.078125 63.84375 -46.296875 C 65.394531 -43.515625 66.171875 -40.285156 66.171875 -36.609375 L 66.171875 0 L 47 0 L 47 -31.40625 C 47 -34.289062 46.078125 -36.816406 44.234375 -38.984375 C 42.398438 -41.148438 40 -42.234375 37.03125 -42.234375 C 34.144531 -42.234375 31.53125 -41.113281 29.1875 -38.875 C 26.84375 -36.632812 25.671875 -34.144531 25.671875 -31.40625 L 25.671875 0 Z M 6.5 0 "/></g></g><g clip-rule="nonzero" clip-path="url(#f8ee5b4fff)"><path style="fill:none;stroke-width:8;stroke-linecap:butt;stroke-linejoin:miter;stroke:#ffffff;stroke-opacity:1;stroke-miterlimit:4;" d="M 100.000004 -0.00000266667 C 44.770834 -0.00000266667 -0.00000166667 44.770833 -0.00000166667 100.000003 C -0.00000166667 155.229173 44.770834 200.000009 100.000004 200.000009 C 155.229174 200.000009 200.00001 155.229173 200.00001 100.000003 C 200.00001 44.770833 155.229174 -0.00000266667 100.000004 -0.00000266667 Z M 100.000004 -0.00000266667 " transform="matrix(0.75,0,0,0.75,0.00000125,0.000002)"/></g></g></svg>