<svg xmlns="http://www.w3.org/2000/svg" xmlns:xlink="http://www.w3.org/1999/xlink" width="500" zoomAndPan="magnify" viewBox="0 0 375 149.999998" height="200" preserveAspectRatio="xMidYMid meet" version="1.0"><defs><g/></defs><g fill="#000000" fill-opacity="1"><g transform="translate(5.296966, 104.635644)"><g><path d="M 81.375 -17.625 C 81.375 -16.785156 80.992188 -15.984375 80.230469 -15.222656 C 79.617188 -14.613281 78.988281 -13.964844 78.339844 -13.277344 C 77.691406 -12.589844 77.0625 -11.902344 76.453125 -11.214844 C 75.15625 -9.765625 73.609375 -8.085938 71.816406 -6.179688 C 70.023438 -4.273438 68.136719 -2.402344 66.152344 -0.570312 C 64.167969 1.257812 62.242188 2.785156 60.371094 4.003906 C 58.503906 5.226562 56.804688 5.835938 55.28125 5.835938 C 53.523438 5.835938 52.1875 5.339844 51.273438 4.347656 C 50.359375 3.355469 49.730469 2.136719 49.386719 0.6875 C 49.042969 -0.761719 48.871094 -2.175781 48.871094 -3.546875 C 48.871094 -6.449219 49.214844 -9.804688 49.898438 -13.621094 C 50.585938 -17.433594 51.425781 -21.402344 52.417969 -25.523438 C 48.449219 -25.828125 44.558594 -26.039062 40.746094 -26.152344 C 36.929688 -26.265625 33.34375 -26.324219 29.984375 -26.324219 C 28.6875 -26.324219 27.429688 -26.324219 26.210938 -26.324219 C 24.988281 -26.324219 23.652344 -26.285156 22.203125 -26.210938 C 18.539062 -22.011719 15.222656 -17.777344 12.246094 -13.503906 C 9.269531 -9.230469 6.90625 -5.09375 5.148438 -1.085938 C 3.394531 2.917969 2.519531 6.636719 2.519531 10.070312 C 2.519531 11.214844 2.15625 12.074219 1.429688 12.648438 C 0.707031 13.21875 -0.078125 13.503906 -0.914062 13.503906 C -1.753906 13.503906 -2.535156 13.21875 -3.261719 12.648438 C -3.988281 12.074219 -4.347656 11.214844 -4.347656 10.070312 C -4.347656 5.796875 -3.414062 1.429688 -1.546875 -3.03125 C 0.324219 -7.496094 2.671875 -11.863281 5.492188 -16.136719 L 5.148438 -16.136719 C 3.546875 -16.136719 2.554688 -16.765625 2.175781 -18.027344 C 1.792969 -19.285156 1.601562 -20.523438 1.601562 -21.746094 C 1.601562 -24.492188 2.480469 -26.628906 4.234375 -28.15625 C 5.988281 -29.679688 8.203125 -30.804688 10.871094 -31.53125 C 13.542969 -32.253906 16.25 -32.734375 19 -32.960938 C 21.898438 -36.011719 24.742188 -38.875 27.523438 -41.546875 C 30.308594 -44.214844 32.886719 -46.582031 35.25 -48.640625 C 35.859375 -49.175781 37.023438 -50.1875 38.742188 -51.675781 C 40.457031 -53.160156 42.441406 -54.820312 44.691406 -56.652344 C 46.945312 -58.484375 49.269531 -60.257812 51.675781 -61.976562 C 54.078125 -63.691406 56.328125 -65.121094 58.425781 -66.265625 C 60.523438 -67.410156 62.222656 -67.984375 63.519531 -67.984375 C 65.351562 -67.984375 66.628906 -67.371094 67.355469 -66.152344 C 68.078125 -64.929688 68.441406 -63.558594 68.441406 -62.03125 C 68.441406 -61.34375 68.191406 -59.839844 67.695312 -57.511719 C 67.203125 -55.183594 66.589844 -52.4375 65.867188 -49.269531 C 65.140625 -46.105469 64.378906 -42.957031 63.578125 -39.828125 C 62.777344 -36.699219 62.070312 -33.992188 61.460938 -31.703125 L 62.71875 -31.589844 C 63.785156 -31.511719 64.570312 -31.128906 65.066406 -30.445312 C 65.5625 -29.757812 65.808594 -28.992188 65.808594 -28.15625 C 65.808594 -27.316406 65.523438 -26.535156 64.949219 -25.808594 C 64.378906 -25.082031 63.558594 -24.722656 62.488281 -24.722656 C 62.03125 -24.722656 61.515625 -24.757812 60.945312 -24.835938 C 60.371094 -24.910156 59.933594 -24.949219 59.628906 -24.949219 C 59.09375 -22.8125 58.523438 -20.449219 57.910156 -17.855469 C 57.300781 -15.261719 56.785156 -12.703125 56.367188 -10.1875 C 55.945312 -7.667969 55.738281 -5.457031 55.738281 -3.546875 C 55.738281 -2.175781 55.890625 -1.488281 56.195312 -1.488281 C 56.425781 -1.488281 56.996094 -1.832031 57.910156 -2.519531 C 59.363281 -3.585938 60.945312 -4.960938 62.660156 -6.636719 C 64.378906 -8.316406 66.074219 -10.070312 67.753906 -11.902344 C 69.433594 -13.734375 70.84375 -15.261719 71.988281 -16.480469 C 72.597656 -17.089844 73.191406 -17.703125 73.761719 -18.3125 C 74.335938 -18.921875 74.886719 -19.496094 75.421875 -20.027344 C 76.1875 -20.792969 76.988281 -21.171875 77.824219 -21.171875 C 78.742188 -21.171875 79.5625 -20.8125 80.285156 -20.085938 C 81.011719 -19.359375 81.375 -18.539062 81.375 -17.625 Z M 61.230469 -59.972656 C 58.484375 -58.445312 55.316406 -56.328125 51.730469 -53.621094 C 48.144531 -50.910156 44.367188 -47.820312 40.402344 -44.347656 C 36.433594 -40.878906 32.503906 -37.15625 28.613281 -33.191406 L 29.984375 -33.191406 C 33.570312 -33.191406 37.40625 -33.113281 41.488281 -32.960938 C 45.570312 -32.808594 49.785156 -32.582031 54.136719 -32.273438 C 55.433594 -37.3125 56.75 -42.25 58.082031 -47.097656 C 59.417969 -51.941406 60.46875 -56.234375 61.230469 -59.972656 Z M 12.132812 -24.949219 C 11.140625 -24.644531 10.28125 -24.226562 9.554688 -23.691406 C 8.832031 -23.15625 8.46875 -22.433594 8.46875 -21.515625 C 8.46875 -21.058594 8.507812 -20.714844 8.582031 -20.488281 C 9.117188 -21.171875 9.710938 -21.917969 10.359375 -22.71875 C 11.007812 -23.519531 11.597656 -24.261719 12.132812 -24.949219 Z M 12.132812 -24.949219 "/></g></g></g><g fill="#000000" fill-opacity="1"><g transform="translate(78.770708, 104.635644)"><g><path d="M 65.695312 -17.625 C 65.695312 -16.785156 65.3125 -15.984375 64.550781 -15.222656 L 62.71875 -13.390625 C 61.957031 -12.628906 60.792969 -11.464844 59.226562 -9.898438 C 57.664062 -8.335938 55.890625 -6.636719 53.90625 -4.808594 C 51.921875 -2.976562 49.898438 -1.238281 47.839844 0.402344 C 45.78125 2.042969 43.777344 3.394531 41.832031 4.464844 C 39.886719 5.53125 38.1875 6.066406 36.738281 6.066406 C 34.90625 6.066406 33.496094 5.457031 32.503906 4.234375 C 31.511719 3.015625 31.015625 1.5625 31.015625 -0.113281 C 31.015625 -2.175781 31.398438 -4.214844 32.160156 -6.238281 C 32.921875 -8.257812 33.800781 -10.207031 34.792969 -12.074219 C 35.785156 -13.945312 36.664062 -15.640625 37.425781 -17.167969 C 38.1875 -18.695312 38.570312 -19.914062 38.570312 -20.828125 C 38.570312 -22.128906 38.320312 -23.003906 37.824219 -23.460938 C 37.328125 -23.921875 36.546875 -24.148438 35.480469 -24.148438 C 33.265625 -24.148438 30.882812 -23.214844 28.328125 -21.34375 C 25.769531 -19.476562 23.234375 -17.1875 20.714844 -14.476562 C 18.199219 -11.769531 15.871094 -9.042969 13.734375 -6.292969 C 11.597656 -3.546875 9.804688 -1.257812 8.355469 0.570312 C 7.59375 1.5625 6.675781 2.058594 5.609375 2.058594 C 4.691406 2.058594 3.871094 1.753906 3.148438 1.144531 C 2.421875 0.535156 2.058594 -0.265625 2.058594 -1.257812 C 2.058594 -1.871094 2.175781 -2.441406 2.402344 -2.976562 C 3.320312 -5.113281 4.292969 -7.746094 5.320312 -10.871094 C 6.351562 -14 7.210938 -17.054688 7.898438 -20.027344 C 7.058594 -19.035156 6.238281 -18.140625 5.4375 -17.339844 C 4.636719 -16.539062 3.929688 -15.832031 3.320312 -15.222656 L 1.488281 -13.390625 C 0.726562 -12.628906 -0.078125 -12.246094 -0.914062 -12.246094 C -1.832031 -12.246094 -2.652344 -12.609375 -3.375 -13.332031 C -4.101562 -14.058594 -4.464844 -14.878906 -4.464844 -15.792969 C -4.464844 -16.632812 -4.082031 -17.433594 -3.320312 -18.199219 L -1.488281 -20.027344 C -0.34375 -21.171875 1.183594 -22.792969 3.089844 -24.894531 C 4.996094 -26.992188 6.636719 -28.878906 8.011719 -30.558594 C 8.316406 -30.941406 8.792969 -31.359375 9.441406 -31.816406 C 10.089844 -32.273438 10.871094 -32.503906 11.789062 -32.503906 C 13.085938 -32.503906 14.019531 -32.179688 14.59375 -31.53125 C 15.164062 -30.882812 15.527344 -30.175781 15.679688 -29.414062 C 15.832031 -28.652344 15.910156 -28.117188 15.910156 -27.8125 C 15.910156 -26.363281 15.773438 -24.777344 15.507812 -23.0625 C 15.242188 -21.34375 14.878906 -19.570312 14.421875 -17.738281 C 17.550781 -21.25 20.925781 -24.339844 24.550781 -27.011719 C 28.171875 -29.679688 31.816406 -31.015625 35.480469 -31.015625 C 38.609375 -31.015625 41.050781 -30.0625 42.804688 -28.15625 C 44.558594 -26.246094 45.4375 -23.804688 45.4375 -20.828125 C 45.4375 -19 44.960938 -17.109375 44.007812 -15.164062 C 43.050781 -13.21875 42.023438 -11.253906 40.914062 -9.269531 C 39.808594 -7.285156 38.949219 -5.304688 38.339844 -3.320312 C 38.113281 -2.554688 37.996094 -2.023438 37.996094 -1.714844 C 37.996094 -1.488281 38.074219 -1.375 38.226562 -1.375 C 38.53125 -1.375 39.066406 -1.640625 39.828125 -2.175781 C 41.203125 -3.089844 42.804688 -4.328125 44.636719 -5.894531 C 46.464844 -7.457031 48.296875 -9.078125 50.128906 -10.757812 C 51.960938 -12.4375 53.582031 -13.964844 54.992188 -15.335938 C 56.40625 -16.710938 57.378906 -17.664062 57.910156 -18.199219 L 59.742188 -20.027344 C 60.507812 -20.792969 61.308594 -21.171875 62.144531 -21.171875 C 63.0625 -21.171875 63.882812 -20.8125 64.605469 -20.085938 C 65.332031 -19.359375 65.695312 -18.539062 65.695312 -17.625 Z M 65.695312 -17.625 "/></g></g></g><g fill="#000000" fill-opacity="1"><g transform="translate(136.565428, 104.635644)"><g><path d="M 52.992188 -17.625 C 52.992188 -16.785156 52.609375 -15.984375 51.847656 -15.222656 L 50.015625 -13.390625 C 46.277344 -9.652344 42.976562 -6.617188 40.113281 -4.292969 C 37.253906 -1.964844 34.621094 -0.113281 32.21875 1.257812 C 29.8125 2.632812 27.390625 3.851562 24.949219 4.921875 C 23.117188 9.804688 21.058594 14.34375 18.769531 18.539062 C 16.480469 22.738281 13.847656 26.132812 10.871094 28.726562 C 7.898438 31.320312 4.425781 32.617188 0.457031 32.617188 C -1.144531 32.617188 -2.824219 32.238281 -4.578125 31.472656 C -6.332031 30.710938 -7.800781 29.585938 -8.984375 28.097656 C -10.167969 26.609375 -10.757812 24.757812 -10.757812 22.546875 C -10.757812 19.800781 -10.050781 17.394531 -8.640625 15.335938 C -7.230469 13.277344 -5.378906 11.484375 -3.089844 9.957031 C -0.800781 8.429688 1.699219 7.097656 4.40625 5.953125 C 7.113281 4.808594 9.765625 3.757812 12.359375 2.804688 C 14.953125 1.851562 17.242188 0.953125 19.226562 0.113281 C 19.457031 -0.496094 19.667969 -1.105469 19.855469 -1.714844 C 20.046875 -2.328125 20.179688 -2.859375 20.257812 -3.320312 C 20.5625 -4.386719 20.886719 -5.457031 21.230469 -6.523438 C 21.574219 -7.59375 21.898438 -8.621094 22.203125 -9.613281 C 19.226562 -6.636719 16.386719 -4.445312 13.675781 -3.03125 C 10.96875 -1.621094 8.46875 -0.914062 6.179688 -0.914062 C 3.128906 -0.914062 0.761719 -2.003906 -0.914062 -4.175781 C -2.59375 -6.351562 -3.433594 -8.621094 -3.433594 -10.988281 C -3.433594 -14.648438 -2.574219 -18.0625 -0.859375 -21.230469 C 0.859375 -24.398438 3.109375 -27.199219 5.894531 -29.640625 C 8.679688 -32.085938 11.675781 -33.992188 14.878906 -35.363281 C 18.082031 -36.738281 21.171875 -37.425781 24.148438 -37.425781 C 27.125 -37.425781 29.71875 -36.664062 31.929688 -35.136719 L 32.046875 -35.25 C 32.734375 -36.472656 33.6875 -37.082031 34.90625 -37.082031 C 35.824219 -37.082031 36.644531 -36.777344 37.367188 -36.167969 C 38.09375 -35.554688 38.457031 -34.753906 38.457031 -33.761719 C 38.457031 -33.152344 38.300781 -32.582031 37.996094 -32.046875 C 37.921875 -31.894531 37.863281 -31.722656 37.824219 -31.53125 C 37.789062 -31.339844 37.691406 -31.167969 37.539062 -31.015625 C 37.15625 -30.40625 36.832031 -29.832031 36.566406 -29.300781 C 36.300781 -28.765625 35.976562 -28.039062 35.59375 -27.125 C 34.375 -24.226562 33.171875 -20.828125 31.988281 -16.9375 C 30.804688 -13.046875 29.527344 -8.964844 28.15625 -4.691406 C 31.054688 -6.449219 33.914062 -8.429688 36.738281 -10.644531 C 39.5625 -12.855469 42.382812 -15.375 45.207031 -18.199219 L 47.039062 -20.027344 C 47.800781 -20.792969 48.601562 -21.171875 49.441406 -21.171875 C 50.359375 -21.171875 51.179688 -20.8125 51.902344 -20.085938 C 52.628906 -19.359375 52.992188 -18.539062 52.992188 -17.625 Z M 28.382812 -29.183594 C 27.238281 -30.101562 25.828125 -30.558594 24.148438 -30.558594 C 21.9375 -30.558594 19.628906 -30.003906 17.226562 -28.898438 C 14.820312 -27.792969 12.570312 -26.324219 10.472656 -24.492188 C 8.375 -22.660156 6.675781 -20.582031 5.378906 -18.253906 C 4.082031 -15.925781 3.433594 -13.503906 3.433594 -10.988281 C 3.433594 -9.996094 3.699219 -9.214844 4.234375 -8.640625 C 4.769531 -8.070312 5.417969 -7.78125 6.179688 -7.78125 C 8.011719 -7.78125 9.917969 -8.449219 11.902344 -9.785156 C 13.886719 -11.121094 15.851562 -12.875 17.796875 -15.050781 C 19.742188 -17.226562 21.632812 -19.550781 23.460938 -22.03125 C 25.292969 -24.511719 26.933594 -26.894531 28.382812 -29.183594 Z M 16.25 8.242188 C 14.574219 8.925781 12.78125 9.691406 10.871094 10.53125 C 8.964844 11.367188 6.90625 12.324219 4.691406 13.390625 C -1.03125 16.214844 -3.890625 19.265625 -3.890625 22.546875 C -3.890625 23.234375 -3.511719 23.9375 -2.746094 24.664062 C -1.984375 25.390625 -0.914062 25.75 0.457031 25.75 C 2.746094 25.75 4.863281 24.875 6.808594 23.117188 C 8.753906 21.363281 10.511719 19.152344 12.074219 16.480469 C 13.636719 13.808594 15.03125 11.0625 16.25 8.242188 Z M 16.25 8.242188 "/></g></g></g><g fill="#000000" fill-opacity="1"><g transform="translate(181.656715, 104.635644)"><g><path d="M 40.171875 -17.625 C 40.171875 -16.785156 39.789062 -15.984375 39.027344 -15.222656 L 37.195312 -13.390625 C 34.984375 -11.179688 32.464844 -8.8125 29.640625 -6.292969 C 26.820312 -3.777344 23.804688 -1.640625 20.601562 0.113281 C 17.394531 1.871094 14.117188 2.746094 10.757812 2.746094 C 7.707031 2.746094 5.167969 1.964844 3.148438 0.402344 C 1.125 -1.164062 -0.382812 -3.222656 -1.375 -5.78125 C -2.367188 -8.335938 -2.859375 -11.101562 -2.859375 -14.078125 C -2.859375 -17.816406 -2.175781 -21.210938 -0.800781 -24.261719 C 0.570312 -27.316406 2.328125 -29.929688 4.464844 -32.101562 C 6.601562 -34.277344 8.851562 -35.957031 11.214844 -37.140625 C 13.582031 -38.320312 15.792969 -38.914062 17.855469 -38.914062 C 20.753906 -38.914062 23.0625 -37.996094 24.777344 -36.167969 C 26.496094 -34.335938 27.355469 -32.121094 27.355469 -29.527344 C 27.355469 -26.550781 26.226562 -23.84375 23.976562 -21.402344 C 21.726562 -18.960938 18.808594 -16.976562 15.222656 -15.449219 C 11.636719 -13.925781 7.898438 -13.007812 4.003906 -12.703125 C 4.160156 -10.71875 4.710938 -8.792969 5.664062 -6.925781 C 6.617188 -5.054688 8.316406 -4.121094 10.757812 -4.121094 C 13.277344 -4.121094 15.871094 -4.941406 18.539062 -6.582031 C 21.210938 -8.222656 23.765625 -10.148438 26.210938 -12.359375 C 28.652344 -14.574219 30.710938 -16.519531 32.390625 -18.199219 L 34.21875 -20.027344 C 34.984375 -20.792969 35.785156 -21.171875 36.625 -21.171875 C 37.539062 -21.171875 38.359375 -20.8125 39.085938 -20.085938 C 39.808594 -19.359375 40.171875 -18.539062 40.171875 -17.625 Z M 20.488281 -29.527344 C 20.488281 -31.207031 19.609375 -32.046875 17.855469 -32.046875 C 16.023438 -32.046875 14.25 -31.4375 12.53125 -30.214844 C 10.816406 -28.992188 9.308594 -27.449219 8.011719 -25.578125 C 6.714844 -23.710938 5.722656 -21.746094 5.035156 -19.683594 C 7.78125 -20.066406 10.339844 -20.753906 12.703125 -21.746094 C 15.070312 -22.738281 16.957031 -23.9375 18.371094 -25.351562 C 19.78125 -26.761719 20.488281 -28.15625 20.488281 -29.527344 Z M 20.488281 -29.527344 "/></g></g></g><g fill="#000000" fill-opacity="1"><g transform="translate(213.930116, 104.635644)"><g><path d="M 39.601562 -65.464844 C 39.601562 -62.640625 38.742188 -59.496094 37.023438 -56.023438 C 35.308594 -52.550781 33 -48.871094 30.101562 -44.980469 C 27.199219 -41.085938 23.9375 -37.121094 20.316406 -33.074219 C 16.691406 -29.03125 12.972656 -25.066406 9.15625 -21.171875 C 8.621094 -18.960938 8.242188 -16.824219 8.011719 -14.765625 C 7.78125 -12.703125 7.667969 -10.835938 7.667969 -9.15625 C 7.667969 -8.773438 7.707031 -7.992188 7.78125 -6.808594 C 7.859375 -5.628906 8.070312 -4.539062 8.410156 -3.546875 C 8.753906 -2.554688 9.347656 -2.058594 10.1875 -2.058594 C 10.949219 -2.058594 12.015625 -2.535156 13.390625 -3.492188 C 14.765625 -4.445312 16.234375 -5.664062 17.796875 -7.152344 C 19.359375 -8.640625 20.867188 -10.148438 22.316406 -11.675781 C 23.765625 -13.199219 25.046875 -14.574219 26.152344 -15.792969 C 27.257812 -17.015625 28.003906 -17.816406 28.382812 -18.199219 L 30.214844 -20.027344 C 30.976562 -20.792969 31.777344 -21.171875 32.617188 -21.171875 C 33.535156 -21.171875 34.355469 -20.8125 35.078125 -20.085938 C 35.804688 -19.359375 36.167969 -18.539062 36.167969 -17.625 C 36.167969 -16.785156 35.785156 -15.984375 35.023438 -15.222656 L 33.191406 -13.390625 C 31.96875 -12.167969 30.460938 -10.546875 28.667969 -8.527344 C 26.875 -6.503906 24.929688 -4.484375 22.832031 -2.460938 C 20.734375 -0.4375 18.597656 1.277344 16.421875 2.691406 C 14.25 4.101562 12.167969 4.808594 10.1875 4.808594 C 7.667969 4.808594 5.722656 4.0625 4.347656 2.574219 C 2.976562 1.085938 2.042969 -0.742188 1.546875 -2.917969 C 1.050781 -5.09375 0.800781 -7.171875 0.800781 -9.15625 C 0.800781 -9.691406 0.820312 -10.28125 0.859375 -10.929688 C 0.898438 -11.578125 0.953125 -12.285156 1.03125 -13.046875 C 0.726562 -12.820312 0.417969 -12.628906 0.113281 -12.476562 C -0.191406 -12.324219 -0.535156 -12.246094 -0.914062 -12.246094 C -1.832031 -12.246094 -2.652344 -12.609375 -3.375 -13.332031 C -4.101562 -14.058594 -4.464844 -14.878906 -4.464844 -15.792969 C -4.464844 -16.632812 -4.082031 -17.433594 -3.320312 -18.199219 L -1.488281 -20.027344 C -0.800781 -20.714844 -0.0585938 -21.476562 0.742188 -22.316406 C 1.546875 -23.15625 2.441406 -24.074219 3.433594 -25.066406 C 4.425781 -29.03125 5.644531 -33.265625 7.097656 -37.769531 C 8.546875 -42.269531 10.207031 -46.65625 12.074219 -50.929688 C 13.945312 -55.203125 15.964844 -59.09375 18.140625 -62.605469 C 20.316406 -66.113281 22.621094 -68.898438 25.066406 -70.960938 C 27.507812 -73.019531 30.023438 -74.050781 32.617188 -74.050781 C 35.289062 -74.050781 37.121094 -73.171875 38.113281 -71.417969 C 39.105469 -69.660156 39.601562 -67.679688 39.601562 -65.464844 Z M 32.734375 -65.464844 C 32.734375 -65.769531 32.734375 -66.058594 32.734375 -66.324219 C 32.734375 -66.589844 32.695312 -66.839844 32.617188 -67.066406 L 32.503906 -67.410156 C 31.207031 -67.410156 29.777344 -66.496094 28.210938 -64.664062 C 26.648438 -62.832031 25.066406 -60.507812 23.460938 -57.683594 C 21.859375 -54.859375 20.351562 -51.941406 18.941406 -48.925781 C 17.53125 -45.914062 16.328125 -43.1875 15.335938 -40.746094 C 14.34375 -38.300781 13.65625 -36.546875 13.277344 -35.480469 C 16.480469 -38.988281 19.570312 -42.59375 22.546875 -46.296875 C 25.523438 -49.996094 27.964844 -53.523438 29.871094 -56.882812 C 31.777344 -60.238281 32.734375 -63.101562 32.734375 -65.464844 Z M 32.734375 -65.464844 "/></g></g></g><g fill="#000000" fill-opacity="1"><g transform="translate(242.197937, 104.635644)"><g><path d="M 29.871094 -54.476562 C 29.871094 -53.640625 29.488281 -52.835938 28.726562 -52.074219 L 25.636719 -48.984375 C 24.875 -48.222656 24.074219 -47.839844 23.234375 -47.839844 C 22.316406 -47.839844 21.496094 -48.203125 20.773438 -48.925781 C 20.046875 -49.652344 19.683594 -50.472656 19.683594 -51.386719 C 19.683594 -52.226562 20.066406 -53.027344 20.828125 -53.792969 L 23.921875 -56.882812 C 24.683594 -57.644531 25.484375 -58.027344 26.324219 -58.027344 C 27.238281 -58.027344 28.058594 -57.664062 28.785156 -56.9375 C 29.507812 -56.214844 29.871094 -55.394531 29.871094 -54.476562 Z M 37.082031 -17.625 C 37.082031 -16.785156 36.699219 -15.984375 35.9375 -15.222656 L 34.105469 -13.390625 C 32.734375 -12.015625 31.148438 -10.453125 29.355469 -8.699219 C 27.5625 -6.941406 25.65625 -5.246094 23.632812 -3.605469 C 21.613281 -1.964844 19.53125 -0.609375 17.394531 0.457031 C 15.261719 1.527344 13.160156 2.058594 11.101562 2.058594 C 8.507812 2.058594 6.484375 1.257812 5.035156 -0.34375 C 3.585938 -1.945312 2.859375 -3.929688 2.859375 -6.292969 C 2.859375 -8.203125 3.242188 -10.1875 4.003906 -12.246094 C 4.769531 -14.304688 5.457031 -16.214844 6.066406 -17.96875 C 5.609375 -17.511719 5.148438 -17.054688 4.691406 -16.59375 C 4.234375 -16.136719 3.777344 -15.679688 3.320312 -15.222656 L 1.488281 -13.390625 C 0.726562 -12.628906 -0.078125 -12.246094 -0.914062 -12.246094 C -1.832031 -12.246094 -2.652344 -12.609375 -3.375 -13.332031 C -4.101562 -14.058594 -4.464844 -14.878906 -4.464844 -15.792969 C -4.464844 -16.632812 -4.082031 -17.433594 -3.320312 -18.199219 L -1.488281 -20.027344 C 1.183594 -22.699219 3.738281 -25.445312 6.179688 -28.269531 C 8.621094 -31.09375 10.453125 -33.230469 11.675781 -34.679688 C 11.828125 -34.832031 12.246094 -35.078125 12.933594 -35.421875 C 13.621094 -35.765625 14.078125 -35.9375 14.304688 -35.9375 C 15.375 -35.9375 16.347656 -35.535156 17.226562 -34.734375 C 18.101562 -33.933594 18.539062 -33 18.539062 -31.929688 C 18.539062 -31.398438 18.464844 -30.976562 18.3125 -30.671875 C 18.007812 -30.0625 17.53125 -28.957031 16.882812 -27.355469 C 16.234375 -25.75 15.507812 -23.902344 14.707031 -21.800781 C 13.90625 -19.703125 13.125 -17.605469 12.359375 -15.507812 C 11.597656 -13.410156 10.96875 -11.519531 10.472656 -9.84375 C 9.976562 -8.164062 9.726562 -6.980469 9.726562 -6.292969 C 9.726562 -5.609375 9.824219 -5.1875 10.015625 -5.035156 C 10.207031 -4.882812 10.566406 -4.808594 11.101562 -4.808594 C 12.398438 -4.808594 13.90625 -5.320312 15.621094 -6.351562 C 17.339844 -7.382812 19.074219 -8.640625 20.828125 -10.128906 C 22.585938 -11.617188 24.207031 -13.105469 25.695312 -14.59375 C 27.183594 -16.082031 28.382812 -17.28125 29.300781 -18.199219 L 31.128906 -20.027344 C 31.894531 -20.792969 32.695312 -21.171875 33.535156 -21.171875 C 34.449219 -21.171875 35.269531 -20.8125 35.996094 -20.085938 C 36.71875 -19.359375 37.082031 -18.539062 37.082031 -17.625 Z M 37.082031 -17.625 "/></g></g></g><g fill="#000000" fill-opacity="1"><g transform="translate(271.381285, 104.635644)"><g><path d="M 60.085938 -17.625 C 60.085938 -16.785156 59.703125 -15.984375 58.941406 -15.222656 L 57.109375 -13.390625 C 56.042969 -12.324219 54.574219 -10.835938 52.703125 -8.925781 C 50.835938 -7.019531 48.792969 -5.09375 46.582031 -3.148438 C 44.367188 -1.203125 42.175781 0.4375 40 1.773438 C 37.824219 3.109375 35.859375 3.777344 34.105469 3.777344 C 32.199219 3.777344 30.75 3.320312 29.757812 2.402344 C 28.765625 1.488281 28.039062 0.324219 27.582031 -1.085938 C 27.125 -2.5 26.703125 -3.929688 26.324219 -5.378906 C 25.789062 -7.363281 25.273438 -8.566406 24.777344 -8.984375 C 24.28125 -9.402344 23.117188 -9.652344 21.289062 -9.726562 C 20.066406 -9.804688 19.152344 -10.207031 18.539062 -10.929688 C 17.929688 -11.65625 17.625 -12.398438 17.625 -13.160156 C 17.625 -14 17.910156 -14.746094 18.484375 -15.394531 C 19.054688 -16.042969 19.914062 -16.441406 21.058594 -16.59375 C 23.652344 -16.976562 26.226562 -17.738281 28.785156 -18.882812 C 31.339844 -20.027344 33.457031 -21.460938 35.136719 -23.175781 C 36.816406 -24.894531 37.652344 -26.667969 37.652344 -28.5 C 37.652344 -29.261719 37.425781 -29.890625 36.96875 -30.386719 C 36.507812 -30.882812 35.859375 -31.128906 35.023438 -31.128906 C 33.34375 -31.128906 31.4375 -30.195312 29.300781 -28.328125 C 27.164062 -26.457031 24.96875 -24.089844 22.71875 -21.230469 C 20.46875 -18.371094 18.351562 -15.414062 16.367188 -12.359375 C 14.382812 -9.308594 12.648438 -6.5625 11.160156 -4.121094 C 9.671875 -1.679688 8.660156 0.0390625 8.125 1.03125 C 7.746094 1.792969 7.265625 2.328125 6.695312 2.632812 C 6.125 2.9375 5.53125 3.089844 4.921875 3.089844 C 4.082031 3.089844 3.320312 2.765625 2.632812 2.117188 C 1.945312 1.46875 1.601562 0.648438 1.601562 -0.34375 C 1.601562 -0.800781 1.714844 -1.296875 1.945312 -1.832031 C 2.402344 -3.203125 3.03125 -5.398438 3.835938 -8.410156 C 4.636719 -11.425781 5.570312 -14.878906 6.636719 -18.769531 C 6.027344 -18.082031 5.4375 -17.433594 4.863281 -16.824219 C 4.292969 -16.214844 3.777344 -15.679688 3.320312 -15.222656 L 1.488281 -13.390625 C 0.726562 -12.628906 -0.078125 -12.246094 -0.914062 -12.246094 C -1.832031 -12.246094 -2.652344 -12.609375 -3.375 -13.332031 C -4.101562 -14.058594 -4.464844 -14.878906 -4.464844 -15.792969 C -4.464844 -16.632812 -4.082031 -17.433594 -3.320312 -18.199219 L -1.488281 -20.027344 C -0.265625 -21.25 1.527344 -23.234375 3.890625 -25.980469 C 6.257812 -28.726562 8.773438 -31.855469 11.445312 -35.363281 C 12.894531 -40.09375 14.421875 -44.75 16.023438 -49.328125 C 17.625 -53.90625 19.285156 -58.046875 21 -61.746094 C 22.71875 -65.445312 24.472656 -68.402344 26.265625 -70.617188 C 28.058594 -72.828125 29.796875 -73.933594 31.472656 -73.933594 C 33 -73.933594 34.105469 -73.382812 34.792969 -72.273438 C 35.480469 -71.167969 35.824219 -69.96875 35.824219 -68.671875 C 35.824219 -65.464844 34.945312 -61.785156 33.191406 -57.625 C 31.4375 -53.46875 29.183594 -49.214844 26.4375 -44.863281 C 23.691406 -40.515625 20.828125 -36.355469 17.855469 -32.390625 C 17.242188 -30.253906 16.691406 -28.308594 16.195312 -26.550781 C 15.699219 -24.796875 15.261719 -23.347656 14.878906 -22.203125 C 16.40625 -24.261719 18.199219 -26.515625 20.257812 -28.957031 C 22.316406 -31.398438 24.605469 -33.515625 27.125 -35.308594 C 29.640625 -37.101562 32.273438 -37.996094 35.023438 -37.996094 C 38.074219 -37.996094 40.421875 -36.988281 42.058594 -34.964844 C 43.699219 -32.941406 44.519531 -30.785156 44.519531 -28.5 C 44.519531 -25.902344 43.851562 -23.578125 42.519531 -21.515625 C 41.183594 -19.457031 39.484375 -17.664062 37.425781 -16.136719 C 35.363281 -14.613281 33.191406 -13.351562 30.902344 -12.359375 C 31.742188 -11.140625 32.253906 -9.863281 32.445312 -8.527344 C 32.636719 -7.191406 32.960938 -5.875 33.417969 -4.578125 C 33.648438 -3.816406 34.03125 -3.433594 34.5625 -3.433594 C 34.867188 -3.433594 35.289062 -3.546875 35.824219 -3.777344 C 37.042969 -4.386719 38.472656 -5.378906 40.113281 -6.753906 C 41.753906 -8.125 43.414062 -9.613281 45.09375 -11.214844 C 46.773438 -12.820312 48.277344 -14.269531 49.613281 -15.566406 C 50.949219 -16.863281 51.847656 -17.738281 52.304688 -18.199219 L 54.136719 -20.027344 C 54.898438 -20.792969 55.699219 -21.171875 56.539062 -21.171875 C 57.453125 -21.171875 58.273438 -20.8125 59 -20.085938 C 59.722656 -19.359375 60.085938 -18.539062 60.085938 -17.625 Z M 60.085938 -17.625 "/></g></g></g><g fill="#000000" fill-opacity="1"><g transform="translate(323.568194, 104.635644)"><g><path d="M 50.472656 -17.625 C 50.472656 -16.785156 50.089844 -15.984375 49.328125 -15.222656 C 48.640625 -14.535156 47.953125 -13.828125 47.269531 -13.105469 C 46.582031 -12.378906 45.894531 -11.675781 45.207031 -10.988281 C 43.757812 -9.539062 42.117188 -7.933594 40.285156 -6.179688 C 38.457031 -4.425781 36.566406 -2.9375 34.621094 -1.714844 C 32.675781 -0.496094 30.863281 0.113281 29.183594 0.113281 C 26.589844 0.113281 24.816406 -0.914062 23.863281 -2.976562 C 22.910156 -5.035156 22.433594 -7.132812 22.433594 -9.269531 L 22.433594 -9.613281 C 19.457031 -6.105469 16.367188 -3.050781 13.160156 -0.457031 C 9.957031 2.136719 6.980469 3.433594 4.234375 3.433594 C 1.945312 3.433594 0.191406 2.824219 -1.03125 1.601562 C -2.25 0.382812 -3.109375 -1.085938 -3.605469 -2.804688 C -4.101562 -4.519531 -4.347656 -6.066406 -4.347656 -7.4375 C -4.347656 -10.414062 -3.738281 -13.484375 -2.519531 -16.652344 C -1.296875 -19.820312 0.402344 -22.738281 2.574219 -25.40625 C 4.75 -28.078125 7.265625 -30.253906 10.128906 -31.929688 C 12.988281 -33.609375 16.023438 -34.449219 19.226562 -34.449219 C 23.195312 -34.449219 26.363281 -32.847656 28.726562 -29.640625 C 29.335938 -30.558594 29.949219 -31.398438 30.558594 -32.160156 C 31.320312 -33.152344 32.199219 -33.648438 33.191406 -33.648438 C 34.03125 -33.648438 34.714844 -33.417969 35.25 -32.960938 C 36.242188 -32.199219 36.738281 -31.246094 36.738281 -30.101562 C 36.738281 -29.414062 36.546875 -28.765625 36.167969 -28.15625 L 33.878906 -24.949219 C 32.121094 -22.433594 30.921875 -19.761719 30.273438 -16.9375 C 29.625 -14.117188 29.300781 -11.597656 29.300781 -9.386719 C 29.300781 -7.859375 29.488281 -7.097656 29.871094 -7.097656 C 30.101562 -7.097656 30.710938 -7.402344 31.703125 -8.011719 C 33.152344 -9.078125 34.753906 -10.453125 36.507812 -12.132812 C 38.265625 -13.808594 39.753906 -15.261719 40.972656 -16.480469 C 42.269531 -17.777344 43.070312 -18.578125 43.375 -18.882812 C 43.683594 -19.1875 44.0625 -19.570312 44.519531 -20.027344 C 45.285156 -20.792969 46.085938 -21.171875 46.925781 -21.171875 C 47.839844 -21.171875 48.660156 -20.8125 49.386719 -20.085938 C 50.109375 -19.359375 50.472656 -18.539062 50.472656 -17.625 Z M 24.492188 -23.578125 C 24.035156 -24.644531 23.367188 -25.578125 22.488281 -26.378906 C 21.613281 -27.183594 20.523438 -27.582031 19.226562 -27.582031 C 17.242188 -27.582031 15.261719 -26.992188 13.277344 -25.808594 C 11.292969 -24.625 9.5 -23.042969 7.898438 -21.058594 C 6.292969 -19.074219 4.996094 -16.902344 4.003906 -14.535156 C 3.015625 -12.167969 2.519531 -9.804688 2.519531 -7.4375 C 2.519531 -5.53125 2.746094 -4.386719 3.203125 -4.003906 C 3.664062 -3.625 4.003906 -3.433594 4.234375 -3.433594 C 5.378906 -3.433594 6.773438 -4.0625 8.410156 -5.320312 C 10.050781 -6.582031 11.808594 -8.222656 13.675781 -10.242188 C 15.546875 -12.265625 17.414062 -14.457031 19.285156 -16.824219 C 21.152344 -19.1875 22.890625 -21.441406 24.492188 -23.578125 Z M 24.492188 -23.578125 "/></g></g></g></svg>