<svg xmlns="http://www.w3.org/2000/svg" xmlns:xlink="http://www.w3.org/1999/xlink" width="200" zoomAndPan="magnify" viewBox="0 0 150 157.92" height="200" preserveAspectRatio="xMidYMid meet" version="1.0"><defs><clipPath id="0d0c838fe6"><path d="M 2.089844 15 L 136 15 L 136 126 L 2.089844 126 Z M 2.089844 15 " clip-rule="nonzero"/></clipPath><clipPath id="abc2427bd5"><path d="M 2.089844 55 L 148 55 L 148 134.933594 L 2.089844 134.933594 Z M 2.089844 55 " clip-rule="nonzero"/></clipPath></defs><g clip-path="url(#0d0c838fe6)"><path fill="#000000" d="M 4.800781 125.730469 C 3.5 125.730469 2.445312 124.675781 2.445312 123.378906 L 2.445312 28.445312 C 2.445312 21.304688 8.269531 15.492188 15.429688 15.492188 L 49.609375 15.492188 C 56.15625 15.492188 61.589844 20.355469 62.46875 26.648438 L 120.71875 26.648438 C 128.644531 26.648438 135.097656 33.085938 135.097656 41 L 135.097656 57.355469 C 135.097656 58.65625 134.042969 59.707031 132.738281 59.707031 C 131.433594 59.707031 130.382812 58.65625 130.382812 57.355469 L 130.382812 41 C 130.382812 35.679688 126.046875 31.351562 120.71875 31.351562 L 60.234375 31.351562 C 58.933594 31.351562 57.878906 30.296875 57.878906 29 L 57.878906 28.445312 C 57.878906 23.898438 54.167969 20.199219 49.609375 20.199219 L 15.429688 20.199219 C 10.867188 20.199219 7.160156 23.898438 7.160156 28.445312 L 7.160156 123.378906 C 7.160156 124.679688 6.105469 125.730469 4.800781 125.730469 Z M 4.800781 125.730469 " fill-opacity="1" fill-rule="nonzero"/></g><g clip-path="url(#abc2427bd5)"><path fill="#000000" d="M 123.792969 134.429688 L 12.09375 134.429688 C 9.046875 134.429688 6.378906 133.230469 4.570312 131.046875 C 2.773438 128.878906 2.074219 125.921875 2.648438 122.933594 L 13.75 65.609375 C 14.886719 59.761719 20.636719 55.003906 26.5625 55.003906 L 138.257812 55.003906 C 141.308594 55.003906 143.984375 56.207031 145.792969 58.390625 C 147.589844 60.5625 148.285156 63.519531 147.707031 66.5 L 136.605469 123.824219 C 135.46875 129.675781 129.722656 134.429688 123.792969 134.429688 Z M 26.558594 59.707031 C 22.84375 59.707031 19.09375 62.820312 18.375 66.503906 L 7.277344 123.824219 C 6.964844 125.453125 7.292969 126.957031 8.207031 128.054688 C 9.101562 129.132812 10.480469 129.726562 12.09375 129.726562 L 123.792969 129.726562 C 127.511719 129.726562 131.257812 126.613281 131.976562 122.933594 L 143.074219 65.609375 C 143.390625 63.984375 143.0625 62.484375 142.152344 61.386719 C 141.253906 60.304688 139.871094 59.707031 138.257812 59.707031 Z M 26.558594 59.707031 " fill-opacity="1" fill-rule="nonzero"/></g><path fill="#000000" d="M 16.136719 68.070312 C 14.835938 68.070312 13.78125 67.019531 13.78125 65.71875 L 13.78125 43.757812 C 13.78125 41.601562 15.535156 39.847656 17.695312 39.847656 L 117.371094 39.847656 C 119.527344 39.847656 121.28125 41.605469 121.28125 43.757812 L 121.28125 57.359375 C 121.28125 58.65625 120.226562 59.710938 118.921875 59.710938 C 117.621094 59.710938 116.566406 58.65625 116.566406 57.359375 L 116.566406 44.554688 L 18.496094 44.554688 L 18.496094 65.71875 C 18.496094 67.019531 17.441406 68.070312 16.136719 68.070312 Z M 16.136719 68.070312 " fill-opacity="1" fill-rule="nonzero"/></svg>