<svg xmlns="http://www.w3.org/2000/svg" xmlns:xlink="http://www.w3.org/1999/xlink" width="200" zoomAndPan="magnify" viewBox="0 0 150 157.92" height="200" preserveAspectRatio="xMidYMid meet" version="1.0"><defs><clipPath id="a4e05ca1b7"><path d="M 22.527344 15 L 45 15 L 45 55 L 22.527344 55 Z M 22.527344 15 " clip-rule="nonzero"/></clipPath><clipPath id="a1e2556ebe"><path d="M 25 58 L 123 58 L 123 134.933594 L 25 134.933594 Z M 25 58 " clip-rule="nonzero"/></clipPath><clipPath id="514d058b4c"><path d="M 120 27 L 127.472656 27 L 127.472656 32 L 120 32 Z M 120 27 " clip-rule="nonzero"/></clipPath></defs><path fill="#000000" d="M 76.308594 47.78125 C 79.390625 47.78125 81.914062 45.257812 81.914062 42.175781 C 81.914062 39.09375 79.390625 36.570312 76.308594 36.570312 C 73.226562 36.570312 70.703125 39.09375 70.703125 42.175781 C 70.796875 45.257812 73.320312 47.78125 76.308594 47.78125 Z M 76.308594 40.308594 C 77.335938 40.308594 78.175781 41.148438 78.175781 42.175781 C 78.175781 43.203125 77.335938 44.042969 76.308594 44.042969 C 75.28125 44.042969 74.441406 43.203125 74.441406 42.175781 C 74.441406 41.148438 75.375 40.308594 76.308594 40.308594 Z M 76.308594 40.308594 " fill-opacity="1" fill-rule="nonzero"/><path fill="#000000" d="M 66.59375 26.296875 C 63.511719 26.296875 60.988281 28.816406 60.988281 31.898438 C 60.988281 34.980469 63.511719 37.503906 66.59375 37.503906 C 69.675781 37.503906 72.199219 34.980469 72.199219 31.898438 C 72.199219 28.816406 69.582031 26.296875 66.59375 26.296875 Z M 66.59375 33.769531 C 65.566406 33.769531 64.726562 32.925781 64.726562 31.898438 C 64.726562 30.871094 65.566406 30.03125 66.59375 30.03125 C 67.621094 30.03125 68.460938 30.871094 68.460938 31.898438 C 68.460938 32.925781 67.527344 33.769531 66.59375 33.769531 Z M 66.59375 33.769531 " fill-opacity="1" fill-rule="nonzero"/><path fill="#000000" d="M 57.90625 31.898438 C 57.90625 28.816406 55.382812 26.296875 52.300781 26.296875 C 49.21875 26.296875 46.695312 28.816406 46.695312 31.898438 C 46.695312 34.980469 49.21875 37.503906 52.300781 37.503906 C 55.382812 37.503906 57.90625 34.980469 57.90625 31.898438 Z M 50.527344 31.898438 C 50.527344 30.871094 51.367188 30.03125 52.394531 30.03125 C 53.421875 30.03125 54.261719 30.871094 54.261719 31.898438 C 54.261719 32.925781 53.421875 33.769531 52.394531 33.769531 C 51.367188 33.769531 50.527344 32.925781 50.527344 31.898438 Z M 50.527344 31.898438 " fill-opacity="1" fill-rule="nonzero"/><g clip-path="url(#a4e05ca1b7)"><path fill="#000000" d="M 22.785156 33.769531 C 22.785156 33.863281 22.785156 33.863281 22.785156 33.769531 C 22.875 33.953125 22.875 33.953125 22.875 34.046875 L 29.507812 54.691406 C 29.976562 54.503906 30.535156 54.410156 31.097656 54.410156 L 33.339844 54.410156 L 26.894531 34.234375 L 28.480469 33.675781 L 35.113281 54.503906 L 39.035156 54.503906 L 32.03125 32.554688 L 33.617188 31.992188 L 40.8125 54.503906 L 44.734375 54.503906 L 36.703125 29.378906 C 36.703125 29.285156 36.609375 29.285156 36.609375 29.191406 C 36.609375 29.097656 36.609375 29.097656 36.609375 29.003906 C 36.515625 28.722656 36.328125 28.535156 36.234375 28.351562 C 36.234375 28.351562 36.140625 28.257812 36.140625 28.257812 L 26.613281 16.019531 C 26.144531 15.367188 25.304688 15.179688 24.558594 15.367188 C 23.8125 15.644531 23.25 16.300781 23.25 17.046875 L 22.691406 32.742188 C 22.691406 32.832031 22.691406 32.832031 22.691406 32.925781 C 22.691406 33.207031 22.691406 33.488281 22.785156 33.769531 Z M 31.75 28.722656 L 29.136719 29.65625 L 26.519531 30.59375 L 26.707031 24.613281 L 28.109375 24.148438 Z M 31.75 28.722656 " fill-opacity="1" fill-rule="nonzero"/></g><g clip-path="url(#a1e2556ebe)"><path fill="#000000" d="M 118.15625 99.0625 L 118.53125 98.875 C 118.621094 98.875 118.808594 98.78125 118.902344 98.78125 C 119.742188 98.5 121.144531 98.035156 121.984375 96.726562 C 122.640625 95.605469 122.828125 94.203125 122.265625 92.992188 C 121.519531 91.121094 120.304688 89.628906 118.996094 87.945312 C 117.96875 86.636719 116.941406 85.332031 116.007812 83.742188 C 115.820312 83.367188 115.539062 82.996094 115.351562 82.621094 C 113.859375 80.101562 112.363281 77.484375 112.832031 75.429688 C 113.765625 70.105469 113.296875 64.6875 111.429688 59.550781 C 111.148438 58.800781 110.496094 58.335938 109.65625 58.335938 L 30.257812 58.335938 C 29.507812 58.335938 28.855469 58.800781 28.480469 59.457031 C 26.800781 63.566406 25.679688 67.863281 25.398438 71.503906 C 24.839844 79.164062 26.707031 86.636719 30.722656 92.617188 C 31.378906 93.644531 32.03125 94.671875 32.589844 95.605469 C 33.339844 96.914062 34.179688 98.222656 35.207031 99.621094 C 39.597656 105.789062 48.75 121.105469 39.316406 131.847656 C 38.851562 132.410156 38.757812 133.15625 39.035156 133.8125 C 39.316406 134.464844 39.972656 134.933594 40.71875 134.933594 L 84.527344 134.933594 C 85.273438 134.933594 86.023438 134.464844 86.300781 133.71875 C 86.582031 132.96875 86.394531 132.222656 85.835938 131.664062 C 83.3125 129.234375 82.003906 127.273438 82.097656 123.253906 C 89.199219 127.367188 96.765625 129.792969 104.050781 130.449219 C 106.292969 130.632812 108.347656 130.074219 110.027344 128.859375 C 111.429688 127.832031 112.457031 126.429688 112.925781 124.84375 C 113.671875 122.320312 113.296875 119.519531 113.019531 117.277344 C 112.925781 116.53125 112.832031 115.503906 112.832031 114.847656 C 112.832031 114.847656 112.925781 114.847656 112.925781 114.847656 C 113.859375 114.660156 116.195312 114.195312 116.195312 111.953125 C 116.195312 111.207031 115.914062 110.550781 115.539062 110.085938 C 116.101562 109.992188 116.566406 109.804688 116.941406 109.523438 C 119.371094 107.65625 118.0625 104.574219 117.128906 102.613281 C 116.753906 101.769531 116.101562 100.371094 116.289062 99.902344 C 116.753906 99.527344 117.5 99.34375 118.15625 99.0625 Z M 113.859375 97.195312 C 111.710938 99.25 112.925781 102.050781 113.859375 104.105469 C 114.140625 104.851562 114.699219 105.972656 114.699219 106.441406 C 114.417969 106.441406 113.953125 106.441406 113.671875 106.535156 C 112.457031 106.535156 110.683594 106.628906 110.308594 108.308594 C 110.027344 109.617188 110.964844 110.550781 111.710938 111.390625 C 110.871094 111.578125 109.9375 111.953125 109.46875 112.980469 C 108.90625 114.289062 109.1875 115.875 109.375 117.835938 C 109.65625 119.800781 109.9375 122.132812 109.375 123.910156 C 109.1875 124.65625 108.628906 125.402344 107.878906 125.964844 C 107.039062 126.617188 105.824219 126.898438 104.519531 126.804688 C 97.324219 126.152344 89.851562 123.628906 82.847656 119.332031 L 82.566406 119.144531 C 82.285156 118.957031 81.914062 118.773438 81.632812 118.585938 C 81.632812 118.585938 81.539062 118.585938 81.539062 118.492188 C 77.054688 115.59375 76.960938 113.820312 76.960938 113.445312 C 77.054688 112.417969 76.308594 111.484375 75.28125 111.390625 C 74.253906 111.296875 73.320312 112.046875 73.226562 113.074219 C 73.039062 115.6875 74.8125 118.398438 78.550781 120.921875 C 78.175781 125.589844 78.921875 128.484375 80.605469 131.007812 L 44.546875 131.007812 C 51.835938 118.773438 42.867188 103.640625 38.382812 97.289062 C 37.449219 95.980469 36.703125 94.765625 35.953125 93.550781 C 35.394531 92.523438 34.738281 91.496094 33.992188 90.46875 C 30.441406 85.144531 28.761719 78.511719 29.320312 71.691406 C 29.507812 68.796875 30.351562 65.339844 31.65625 61.976562 L 108.441406 61.976562 C 109.75 66.089844 110.027344 70.476562 109.28125 74.683594 C 108.628906 78.136719 110.589844 81.5 112.269531 84.398438 C 112.457031 84.769531 112.738281 85.144531 112.925781 85.515625 C 113.953125 87.292969 115.167969 88.878906 116.195312 90.1875 C 117.410156 91.683594 118.34375 92.992188 118.902344 94.296875 C 118.996094 94.484375 118.996094 94.578125 118.902344 94.578125 C 118.808594 94.765625 118.25 94.953125 117.875 95.140625 C 117.6875 95.230469 117.5 95.230469 117.316406 95.324219 L 116.941406 95.417969 C 115.914062 95.886719 114.792969 96.257812 113.859375 97.195312 Z M 113.859375 97.195312 " fill-opacity="1" fill-rule="nonzero"/></g><path fill="#000000" d="M 103.117188 15.273438 C 99.191406 14.992188 95.363281 16.394531 92.46875 19.007812 C 89.664062 21.625 88.078125 25.175781 88.078125 29.003906 C 88.078125 33.300781 90.039062 37.316406 93.589844 39.933594 C 94.617188 40.679688 95.269531 41.894531 95.269531 43.015625 L 95.269531 45.351562 C 95.269531 47.03125 96.484375 48.808594 98.351562 48.808594 L 105.824219 48.808594 C 107.695312 48.808594 109 47.03125 109 45.351562 L 109 42.828125 C 109 41.707031 109.5625 40.585938 110.589844 39.839844 C 114.324219 37.039062 116.382812 32.554688 116.007812 27.976562 C 115.632812 21.25 110.027344 15.738281 103.117188 15.273438 Z M 108.347656 37.039062 C 106.386719 38.53125 105.265625 40.679688 105.265625 43.015625 L 105.265625 45.164062 L 98.914062 45.164062 L 98.914062 43.109375 C 98.914062 40.773438 97.699219 38.4375 95.832031 37.039062 C 93.308594 35.074219 91.8125 32.179688 91.8125 29.097656 C 91.8125 26.296875 92.933594 23.773438 94.988281 21.8125 C 97.136719 19.851562 99.847656 18.820312 102.835938 19.007812 C 107.972656 19.382812 111.992188 23.398438 112.363281 28.351562 C 112.550781 31.714844 111.054688 34.980469 108.347656 37.039062 Z M 108.347656 37.039062 " fill-opacity="1" fill-rule="nonzero"/><path fill="#000000" d="M 106.574219 29.84375 C 106.574219 29.65625 106.574219 29.566406 106.574219 29.472656 C 106.574219 29.378906 106.574219 29.378906 106.480469 29.285156 C 106.480469 29.191406 106.480469 29.191406 106.386719 29.097656 C 106.386719 29.003906 106.292969 29.003906 106.292969 28.910156 C 106.292969 28.816406 106.199219 28.816406 106.199219 28.722656 C 106.199219 28.722656 106.105469 28.628906 106.105469 28.628906 C 106.105469 28.535156 106.011719 28.535156 106.011719 28.445312 C 106.011719 28.445312 105.917969 28.351562 105.917969 28.351562 C 105.824219 28.445312 105.824219 28.351562 105.730469 28.351562 C 105.640625 28.351562 105.640625 28.257812 105.546875 28.257812 C 105.546875 28.257812 105.453125 28.257812 105.453125 28.164062 C 105.359375 28.070312 105.265625 28.070312 105.078125 28.070312 C 104.984375 28.070312 104.796875 28.070312 104.703125 28.070312 L 102.648438 28.070312 L 103.957031 24.894531 C 104.332031 23.960938 103.957031 22.839844 103.023438 22.464844 C 102.089844 22.089844 100.96875 22.464844 100.59375 23.398438 L 98.164062 29.097656 C 98.074219 29.191406 98.074219 29.378906 98.074219 29.472656 C 98.074219 29.566406 98.074219 29.75 98.074219 29.84375 C 98.074219 29.84375 98.074219 29.9375 98.074219 29.9375 C 98.074219 30.03125 98.074219 30.125 98.074219 30.21875 C 98.074219 30.3125 98.074219 30.3125 98.164062 30.40625 C 98.164062 30.5 98.164062 30.5 98.257812 30.59375 C 98.257812 30.683594 98.351562 30.683594 98.351562 30.777344 C 98.351562 30.871094 98.445312 30.871094 98.445312 30.964844 C 98.445312 31.058594 98.539062 31.058594 98.539062 31.058594 C 98.539062 31.152344 98.632812 31.152344 98.632812 31.246094 C 98.632812 31.246094 98.726562 31.339844 98.820312 31.339844 C 98.820312 31.339844 98.914062 31.433594 98.914062 31.433594 C 99.007812 31.527344 99.101562 31.527344 99.191406 31.621094 C 99.285156 31.714844 99.472656 31.714844 99.566406 31.714844 C 99.660156 31.714844 99.847656 31.714844 99.941406 31.714844 L 101.996094 31.714844 L 100.5 34.890625 C 100.128906 35.824219 100.5 36.945312 101.527344 37.316406 C 101.808594 37.410156 101.996094 37.503906 102.277344 37.503906 C 103.023438 37.503906 103.675781 37.039062 103.957031 36.382812 L 106.386719 30.683594 C 106.480469 30.59375 106.480469 30.40625 106.480469 30.3125 C 106.574219 30.125 106.574219 30.03125 106.574219 29.84375 Z M 106.574219 29.84375 " fill-opacity="1" fill-rule="nonzero"/><path fill="#000000" d="M 99.285156 50.769531 C 98.257812 50.769531 97.417969 51.609375 97.417969 52.636719 C 97.417969 53.664062 98.257812 54.503906 99.285156 54.503906 L 104.890625 54.503906 C 105.917969 54.503906 106.757812 53.664062 106.757812 52.636719 C 106.757812 51.609375 105.917969 50.769531 104.890625 50.769531 Z M 99.285156 50.769531 " fill-opacity="1" fill-rule="nonzero"/><path fill="#000000" d="M 119.835938 24.148438 C 120.304688 24.148438 120.863281 23.960938 121.238281 23.585938 L 123.855469 20.785156 C 124.507812 20.035156 124.507812 18.820312 123.761719 18.167969 C 123.011719 17.515625 121.796875 17.515625 121.144531 18.261719 L 118.53125 21.0625 C 117.875 21.8125 117.875 23.027344 118.621094 23.679688 C 118.902344 23.960938 119.371094 24.148438 119.835938 24.148438 Z M 119.835938 24.148438 " fill-opacity="1" fill-rule="nonzero"/><path fill="#000000" d="M 123.761719 37.785156 L 121.144531 34.980469 C 120.492188 34.234375 119.277344 34.140625 118.53125 34.890625 C 117.78125 35.542969 117.6875 36.757812 118.4375 37.503906 L 121.050781 40.308594 C 121.425781 40.679688 121.890625 40.867188 122.453125 40.867188 C 122.917969 40.867188 123.386719 40.679688 123.761719 40.398438 C 124.414062 39.746094 124.507812 38.625 123.761719 37.785156 Z M 123.761719 37.785156 " fill-opacity="1" fill-rule="nonzero"/><g clip-path="url(#514d058b4c)"><path fill="#000000" d="M 127.308594 29.285156 C 127.308594 28.257812 126.46875 27.417969 125.441406 27.417969 L 121.984375 27.417969 C 120.957031 27.417969 120.117188 28.257812 120.117188 29.285156 C 120.117188 30.3125 120.957031 31.152344 121.984375 31.152344 L 125.441406 31.152344 C 126.46875 31.152344 127.308594 30.3125 127.308594 29.285156 Z M 127.308594 29.285156 " fill-opacity="1" fill-rule="nonzero"/></g><path fill="#000000" d="M 48.84375 54.503906 C 48.75 54.503906 48.75 54.410156 48.65625 54.410156 L 48.65625 54.503906 Z M 48.84375 54.503906 " fill-opacity="1" fill-rule="nonzero"/><path fill="#000000" d="M 91.8125 54.503906 C 92 50.394531 91.535156 46.285156 90.414062 42.269531 C 86.675781 39 84.433594 34.421875 84.339844 29.472656 C 79.765625 23.210938 73.503906 19.195312 66.3125 17.886719 C 60.894531 16.953125 47.351562 15.644531 39.316406 24.519531 C 39.035156 24.800781 38.851562 25.082031 38.664062 25.359375 L 39.316406 26.296875 C 39.691406 26.855469 40.0625 27.417969 40.25 28.070312 L 40.625 29.097656 C 41.09375 28.445312 41.558594 27.695312 42.121094 27.136719 C 48.84375 19.476562 60.800781 20.691406 65.660156 21.53125 C 72.664062 22.746094 78.828125 27.230469 82.941406 33.953125 C 86.582031 40.027344 88.359375 47.40625 88.078125 54.503906 Z M 91.8125 54.503906 " fill-opacity="1" fill-rule="nonzero"/><path fill="#000000" d="M 79.109375 53.945312 C 79.578125 53.945312 80.042969 54.132812 80.417969 54.503906 L 84.527344 54.503906 C 83.96875 52.078125 81.726562 50.207031 79.109375 50.207031 C 76.496094 50.207031 74.253906 52.078125 73.691406 54.503906 L 77.800781 54.503906 C 78.175781 54.132812 78.644531 53.945312 79.109375 53.945312 Z M 79.109375 53.945312 " fill-opacity="1" fill-rule="nonzero"/></svg>