<svg xmlns="http://www.w3.org/2000/svg" xmlns:xlink="http://www.w3.org/1999/xlink" width="200" zoomAndPan="magnify" viewBox="0 0 150 149.999998" height="200" preserveAspectRatio="xMidYMid meet" version="1.0"><defs><clipPath id="241d1320fe"><path d="M 0 8.8125 L 150 8.8125 L 150 141.5625 L 0 141.5625 Z M 0 8.8125 " clip-rule="nonzero"/></clipPath></defs><path fill="#000000" d="M 94.5 90.089844 C 94.5 90.613281 94.601562 91.117188 94.800781 91.601562 C 95 92.082031 95.285156 92.511719 95.652344 92.882812 C 96.023438 93.25 96.449219 93.535156 96.929688 93.738281 C 97.414062 93.9375 97.914062 94.039062 98.4375 94.039062 C 98.960938 94.039062 99.460938 93.9375 99.945312 93.738281 C 100.425781 93.535156 100.851562 93.25 101.222656 92.882812 C 101.589844 92.511719 101.875 92.082031 102.074219 91.601562 C 102.273438 91.117188 102.375 90.613281 102.375 90.089844 C 102.375 89.566406 102.273438 89.0625 102.074219 88.578125 C 101.875 88.09375 101.589844 87.667969 101.222656 87.296875 C 100.851562 86.925781 100.425781 86.640625 99.945312 86.441406 C 99.460938 86.242188 98.960938 86.140625 98.4375 86.140625 C 97.914062 86.140625 97.414062 86.242188 96.929688 86.441406 C 96.449219 86.640625 96.023438 86.925781 95.652344 87.296875 C 95.285156 87.667969 95 88.09375 94.800781 88.578125 C 94.601562 89.0625 94.5 89.566406 94.5 90.089844 Z M 99.1875 90.089844 C 99.1875 90.296875 99.113281 90.472656 98.96875 90.621094 C 98.820312 90.769531 98.644531 90.839844 98.4375 90.839844 C 98.246094 90.816406 98.089844 90.734375 97.960938 90.589844 C 97.832031 90.445312 97.769531 90.277344 97.769531 90.082031 C 97.769531 89.890625 97.832031 89.722656 97.960938 89.578125 C 98.089844 89.433594 98.246094 89.347656 98.4375 89.324219 C 98.644531 89.328125 98.824219 89.402344 98.96875 89.554688 C 99.113281 89.703125 99.1875 89.878906 99.1875 90.089844 Z M 99.1875 90.089844 " fill-opacity="1" fill-rule="nonzero"/><path fill="#000000" d="M 112.5 94.027344 C 112.757812 94.027344 113.015625 94.003906 113.269531 93.953125 C 113.523438 93.902344 113.769531 93.828125 114.007812 93.730469 C 114.25 93.628906 114.476562 93.507812 114.691406 93.367188 C 114.90625 93.222656 115.105469 93.058594 115.289062 92.875 C 115.472656 92.691406 115.636719 92.492188 115.78125 92.277344 C 115.925781 92.0625 116.046875 91.832031 116.148438 91.59375 C 116.246094 91.355469 116.320312 91.105469 116.371094 90.851562 C 116.421875 90.597656 116.449219 90.339844 116.449219 90.082031 C 116.449219 89.820312 116.425781 89.5625 116.375 89.308594 C 116.324219 89.054688 116.25 88.808594 116.148438 88.566406 C 116.050781 88.328125 115.929688 88.101562 115.785156 87.882812 C 115.640625 87.667969 115.480469 87.46875 115.296875 87.285156 C 115.113281 87.101562 114.914062 86.9375 114.699219 86.792969 C 114.484375 86.648438 114.257812 86.527344 114.015625 86.429688 C 113.777344 86.328125 113.53125 86.253906 113.277344 86.203125 C 113.023438 86.152344 112.765625 86.128906 112.507812 86.128906 C 112.25 86.128906 111.992188 86.15625 111.738281 86.207031 C 111.484375 86.257812 111.238281 86.332031 111 86.429688 C 110.761719 86.53125 110.535156 86.652344 110.320312 86.796875 C 110.101562 86.941406 109.90625 87.105469 109.722656 87.289062 C 109.539062 87.472656 109.375 87.675781 109.234375 87.890625 C 109.089844 88.105469 108.96875 88.335938 108.871094 88.574219 C 108.773438 88.816406 108.699219 89.0625 108.648438 89.316406 C 108.597656 89.570312 108.574219 89.828125 108.574219 90.089844 C 108.574219 90.609375 108.671875 91.113281 108.871094 91.59375 C 109.074219 92.078125 109.355469 92.503906 109.722656 92.871094 C 110.09375 93.242188 110.515625 93.527344 110.996094 93.726562 C 111.480469 93.925781 111.980469 94.027344 112.5 94.027344 Z M 112.5 89.324219 C 112.710938 89.320312 112.890625 89.394531 113.042969 89.542969 C 113.195312 89.691406 113.269531 89.871094 113.273438 90.082031 C 113.277344 90.292969 113.203125 90.472656 113.054688 90.625 C 112.90625 90.777344 112.726562 90.851562 112.515625 90.851562 C 112.304688 90.855469 112.125 90.78125 111.972656 90.628906 C 111.824219 90.480469 111.75 90.300781 111.75 90.089844 C 111.75 89.878906 111.824219 89.703125 111.96875 89.554688 C 112.113281 89.402344 112.292969 89.328125 112.5 89.324219 Z M 112.5 89.324219 " fill-opacity="1" fill-rule="nonzero"/><path fill="#000000" d="M 84.375 86.140625 C 83.851562 86.140625 83.351562 86.242188 82.867188 86.441406 C 82.386719 86.640625 81.960938 86.925781 81.589844 87.296875 C 81.222656 87.667969 80.9375 88.09375 80.738281 88.578125 C 80.539062 89.0625 80.4375 89.566406 80.4375 90.089844 C 80.4375 90.613281 80.539062 91.117188 80.738281 91.601562 C 80.9375 92.082031 81.222656 92.511719 81.589844 92.882812 C 81.960938 93.25 82.386719 93.535156 82.867188 93.738281 C 83.351562 93.9375 83.851562 94.039062 84.375 94.039062 C 84.898438 94.039062 85.398438 93.9375 85.882812 93.738281 C 86.363281 93.535156 86.789062 93.25 87.160156 92.882812 C 87.527344 92.511719 87.8125 92.082031 88.011719 91.601562 C 88.210938 91.117188 88.3125 90.613281 88.3125 90.089844 C 88.3125 89.828125 88.289062 89.574219 88.238281 89.316406 C 88.1875 89.0625 88.113281 88.816406 88.015625 88.574219 C 87.917969 88.335938 87.796875 88.109375 87.652344 87.890625 C 87.507812 87.675781 87.34375 87.476562 87.164062 87.292969 C 86.980469 87.109375 86.78125 86.945312 86.566406 86.800781 C 86.351562 86.65625 86.121094 86.535156 85.882812 86.4375 C 85.644531 86.339844 85.398438 86.265625 85.144531 86.214844 C 84.890625 86.164062 84.632812 86.140625 84.375 86.140625 Z M 84.375 90.839844 C 84.164062 90.839844 83.984375 90.765625 83.835938 90.617188 C 83.6875 90.464844 83.613281 90.285156 83.613281 90.074219 C 83.613281 89.863281 83.691406 89.679688 83.839844 89.53125 C 83.992188 89.382812 84.171875 89.3125 84.382812 89.3125 C 84.59375 89.316406 84.773438 89.390625 84.921875 89.542969 C 85.066406 89.695312 85.140625 89.878906 85.136719 90.089844 C 85.136719 90.300781 85.0625 90.476562 84.914062 90.625 C 84.765625 90.773438 84.585938 90.84375 84.375 90.839844 Z M 84.375 90.839844 " fill-opacity="1" fill-rule="nonzero"/><path fill="#000000" d="M 70.089844 86.140625 C 69.566406 86.140625 69.066406 86.242188 68.582031 86.441406 C 68.101562 86.640625 67.675781 86.925781 67.304688 87.296875 C 66.9375 87.667969 66.652344 88.09375 66.453125 88.578125 C 66.253906 89.0625 66.152344 89.566406 66.152344 90.089844 C 66.152344 90.613281 66.253906 91.117188 66.453125 91.601562 C 66.652344 92.082031 66.9375 92.511719 67.304688 92.882812 C 67.675781 93.25 68.101562 93.535156 68.582031 93.738281 C 69.066406 93.9375 69.566406 94.039062 70.089844 94.039062 C 70.613281 94.039062 71.113281 93.9375 71.597656 93.738281 C 72.078125 93.535156 72.503906 93.25 72.875 92.882812 C 73.242188 92.511719 73.527344 92.082031 73.726562 91.601562 C 73.925781 91.117188 74.027344 90.613281 74.027344 90.089844 C 74.027344 89.566406 73.925781 89.0625 73.726562 88.578125 C 73.527344 88.09375 73.242188 87.667969 72.875 87.296875 C 72.503906 86.925781 72.078125 86.640625 71.597656 86.441406 C 71.113281 86.242188 70.613281 86.140625 70.089844 86.140625 Z M 70.089844 90.839844 C 69.878906 90.84375 69.695312 90.773438 69.546875 90.621094 C 69.394531 90.472656 69.316406 90.292969 69.316406 90.082031 C 69.316406 89.867188 69.390625 89.6875 69.539062 89.539062 C 69.6875 89.386719 69.871094 89.3125 70.082031 89.3125 C 70.292969 89.316406 70.472656 89.390625 70.621094 89.542969 C 70.769531 89.695312 70.84375 89.875 70.839844 90.089844 C 70.839844 90.296875 70.765625 90.472656 70.621094 90.621094 C 70.472656 90.769531 70.296875 90.839844 70.089844 90.839844 Z M 70.089844 90.839844 " fill-opacity="1" fill-rule="nonzero"/><path fill="#000000" d="M 126.785156 94.027344 C 127.308594 94.027344 127.808594 93.925781 128.292969 93.726562 C 128.777344 93.523438 129.203125 93.238281 129.570312 92.867188 C 129.941406 92.496094 130.222656 92.070312 130.425781 91.585938 C 130.625 91.101562 130.722656 90.597656 130.722656 90.074219 C 130.722656 89.550781 130.621094 89.046875 130.421875 88.5625 C 130.21875 88.078125 129.933594 87.652344 129.566406 87.28125 C 129.195312 86.910156 128.769531 86.625 128.285156 86.425781 C 127.800781 86.226562 127.300781 86.128906 126.777344 86.128906 C 126.253906 86.128906 125.753906 86.230469 125.269531 86.433594 C 124.789062 86.632812 124.363281 86.921875 123.992188 87.292969 C 123.625 87.664062 123.34375 88.089844 123.144531 88.574219 C 122.945312 89.0625 122.847656 89.566406 122.847656 90.089844 C 122.847656 90.613281 122.949219 91.113281 123.152344 91.597656 C 123.351562 92.078125 123.636719 92.503906 124.003906 92.875 C 124.375 93.242188 124.800781 93.527344 125.28125 93.726562 C 125.761719 93.925781 126.265625 94.027344 126.785156 94.027344 Z M 126.785156 89.324219 C 126.976562 89.347656 127.132812 89.433594 127.261719 89.578125 C 127.390625 89.722656 127.453125 89.890625 127.453125 90.082031 C 127.453125 90.277344 127.390625 90.445312 127.261719 90.589844 C 127.132812 90.734375 126.976562 90.816406 126.785156 90.839844 C 126.59375 90.816406 126.4375 90.734375 126.308594 90.589844 C 126.179688 90.445312 126.117188 90.277344 126.117188 90.082031 C 126.117188 89.890625 126.179688 89.722656 126.308594 89.578125 C 126.4375 89.433594 126.59375 89.347656 126.785156 89.324219 Z M 126.785156 89.324219 " fill-opacity="1" fill-rule="nonzero"/><g clip-path="url(#241d1320fe)"><path fill="#000000" d="M 13.441406 71.804688 L 9.246094 95.917969 C 9.21875 96.089844 9.207031 96.257812 9.214844 96.433594 C 9.222656 96.605469 9.25 96.773438 9.296875 96.941406 C 9.339844 97.105469 9.40625 97.265625 9.484375 97.417969 C 9.566406 97.570312 9.664062 97.714844 9.773438 97.84375 C 9.886719 97.976562 10.011719 98.09375 10.148438 98.199219 C 10.285156 98.300781 10.433594 98.386719 10.589844 98.460938 C 10.746094 98.53125 10.910156 98.582031 11.078125 98.617188 C 11.246094 98.652344 11.417969 98.671875 11.589844 98.667969 C 11.976562 98.667969 12.339844 98.578125 12.679688 98.398438 L 41.285156 83.296875 C 43.289062 83.589844 45.328125 83.789062 47.355469 83.917969 C 47.039062 85.617188 46.878906 87.328125 46.875 89.054688 C 46.875 109.773438 70.007812 126.660156 98.4375 126.660156 C 101.882812 126.664062 105.308594 126.414062 108.714844 125.910156 L 137.355469 141.011719 C 137.75 141.21875 138.167969 141.304688 138.609375 141.273438 C 139.054688 141.242188 139.457031 141.09375 139.816406 140.832031 C 140.1875 140.566406 140.457031 140.222656 140.628906 139.796875 C 140.796875 139.371094 140.839844 138.933594 140.753906 138.484375 L 136.558594 114.367188 C 145.242188 107.410156 150 98.457031 150 89.054688 C 150 69.371094 129.105469 53.175781 102.644531 51.613281 C 102.960938 49.914062 103.121094 48.203125 103.125 46.476562 C 103.125 25.757812 79.992188 8.871094 51.5625 8.871094 C 23.132812 8.871094 0 25.757812 0 46.476562 C 0 55.925781 4.757812 64.882812 13.441406 71.804688 Z M 145.3125 89.054688 C 145.3125 97.398438 140.800781 105.367188 132.597656 111.5 C 132.234375 111.773438 131.96875 112.121094 131.804688 112.542969 C 131.644531 112.96875 131.605469 113.40625 131.695312 113.851562 L 135.316406 134.652344 L 110.214844 121.3125 C 109.875 121.125 109.511719 121.035156 109.125 121.042969 C 109.003906 121.03125 108.882812 121.03125 108.761719 121.042969 C 105.339844 121.585938 101.898438 121.855469 98.4375 121.855469 C 72.585938 121.855469 51.5625 107.105469 51.5625 88.949219 C 51.5625 70.792969 72.585938 56.148438 98.4375 56.148438 C 124.289062 56.148438 145.3125 70.886719 145.3125 89.054688 Z M 51.5625 13.605469 C 77.414062 13.605469 98.4375 28.34375 98.4375 46.511719 C 98.4375 48.175781 98.257812 49.824219 97.898438 51.449219 C 74.320312 51.625 54.539062 63.375 48.679688 79.277344 C 46.199219 79.171875 43.734375 78.925781 41.285156 78.535156 C 40.773438 78.453125 40.289062 78.53125 39.832031 78.773438 L 14.683594 92.015625 L 18.304688 71.214844 C 18.394531 70.769531 18.355469 70.332031 18.195312 69.910156 C 18.03125 69.484375 17.765625 69.136719 17.402344 68.863281 C 9.199219 62.789062 4.6875 54.820312 4.6875 46.476562 C 4.6875 28.34375 25.78125 13.605469 51.5625 13.605469 Z M 51.5625 13.605469 " fill-opacity="1" fill-rule="nonzero"/></g></svg>