<svg xmlns="http://www.w3.org/2000/svg" xmlns:xlink="http://www.w3.org/1999/xlink" width="200" zoomAndPan="magnify" viewBox="0 0 150 157.92" height="200" preserveAspectRatio="xMidYMid meet" version="1.0"><defs><clipPath id="923deb4f76"><path d="M 13.097656 35 L 136.785156 35 L 136.785156 133 L 13.097656 133 Z M 13.097656 35 " clip-rule="nonzero"/></clipPath></defs><path fill="#000000" d="M 78.6875 19.992188 L 81.699219 24.929688 C 77.46875 27.996094 75.34375 32.578125 74.734375 36.738281 C 74.570312 37.847656 75.417969 38.835938 76.535156 38.84375 L 81.414062 38.84375 C 83.238281 38.84375 84.667969 40.265625 84.667969 42.101562 L 84.667969 54.351562 C 84.667969 56.1875 83.238281 57.605469 81.414062 57.605469 L 70.976562 57.605469 C 69.15625 57.605469 67.746094 56.1875 67.746094 54.351562 L 67.746094 39.914062 C 67.746094 32.066406 72.214844 24.316406 78.6875 19.992188 Z M 78.257812 15.5 C 69.449219 19.957031 64.09375 30.089844 64.09375 39.914062 C 64.09375 44.730469 64.09375 54.355469 64.09375 54.355469 C 64.09375 58.140625 67.195312 61.265625 70.980469 61.265625 L 81.414062 61.265625 C 85.203125 61.265625 88.324219 58.152344 88.324219 54.355469 L 88.324219 42.101562 C 88.324219 38.304688 85.203125 35.191406 81.414062 35.191406 L 78.757812 35.191406 C 79.675781 32.144531 81.65625 29.007812 85.109375 27.109375 C 86.027344 26.605469 86.339844 25.4375 85.796875 24.550781 L 80.632812 16.167969 C 79.933594 15.046875 79.191406 15.027344 78.257812 15.5 Z M 78.257812 15.5 " fill-opacity="1" fill-rule="evenodd"/><path fill="#000000" d="M 49.1875 19.992188 L 52.195312 24.929688 C 47.980469 27.996094 45.84375 32.578125 45.238281 36.738281 C 45.066406 37.847656 45.925781 38.835938 47.03125 38.84375 L 51.910156 38.84375 C 53.734375 38.84375 55.167969 40.265625 55.167969 42.101562 L 55.167969 54.351562 C 55.167969 56.1875 53.746094 57.605469 51.910156 57.605469 L 41.484375 57.605469 C 39.652344 57.605469 38.242188 56.1875 38.242188 54.351562 L 38.242188 39.914062 C 38.242188 32.066406 42.722656 24.316406 49.1875 19.992188 Z M 48.75 15.5 C 39.953125 19.957031 34.589844 30.089844 34.589844 39.914062 C 34.589844 44.730469 34.589844 54.355469 34.589844 54.355469 C 34.589844 58.140625 37.6875 61.265625 41.484375 61.265625 L 51.910156 61.265625 C 55.699219 61.265625 58.820312 58.152344 58.820312 54.355469 L 58.820312 42.101562 C 58.820312 38.304688 55.710938 35.191406 51.910156 35.191406 L 49.265625 35.191406 C 50.171875 32.144531 52.164062 29.007812 55.605469 27.109375 C 56.523438 26.605469 56.835938 25.4375 56.292969 24.550781 L 51.128906 16.167969 C 50.429688 15.046875 49.6875 15.027344 48.75 15.5 Z M 48.75 15.5 " fill-opacity="1" fill-rule="evenodd"/><g clip-path="url(#923deb4f76)"><path fill="#000000" d="M 28.5625 35.1875 C 20.152344 35.1875 13.328125 42.015625 13.328125 50.421875 L 13.328125 101.988281 C 13.328125 110.390625 20.152344 117.222656 28.5625 117.222656 L 63.035156 117.222656 L 73.375 130.28125 C 77.007812 134.882812 84.128906 132.449219 84.128906 127.210938 L 84.128906 117.222656 L 121.1875 117.222656 C 129.59375 117.222656 136.402344 110.390625 136.402344 101.988281 L 136.402344 50.421875 C 136.402344 42.015625 129.59375 35.1875 121.1875 35.1875 L 94.351562 35.1875 C 91.886719 35.148438 91.886719 38.878906 94.351562 38.847656 L 121.1875 38.847656 C 127.628906 38.847656 132.742188 43.976562 132.742188 50.421875 L 132.742188 101.988281 C 132.742188 108.433594 127.628906 113.566406 121.1875 113.566406 L 82.300781 113.566406 C 81.292969 113.566406 80.472656 114.390625 80.472656 115.402344 L 80.472656 126.789062 C 80.472656 129.96875 77.390625 129.488281 76.160156 127.933594 L 65.351562 114.25 C 65.007812 113.820312 64.472656 113.570312 63.921875 113.570312 L 28.5625 113.570312 C 22.117188 113.570312 16.984375 108.4375 16.984375 101.988281 L 16.984375 50.421875 C 16.984375 43.984375 22.117188 38.847656 28.5625 38.847656 C 31.023438 38.878906 31.023438 35.148438 28.5625 35.1875 Z M 28.5625 35.1875 " fill-opacity="1" fill-rule="evenodd"/></g><path fill="#000000" d="M 31.851562 97.335938 C 30.835938 97.324219 30 98.140625 30 99.160156 C 30 100.1875 30.835938 101.003906 31.851562 100.996094 L 79.945312 100.996094 C 80.960938 101.003906 81.800781 100.1875 81.800781 99.160156 C 81.800781 98.140625 80.960938 97.324219 79.945312 97.335938 Z M 31.851562 97.335938 " fill-opacity="1" fill-rule="nonzero"/><path fill="#000000" d="M 31.851562 70.84375 C 30.835938 70.824219 30 71.652344 30 72.667969 C 30 73.6875 30.835938 74.511719 31.851562 74.503906 L 51.058594 74.503906 C 52.074219 74.511719 52.910156 73.6875 52.910156 72.667969 C 52.910156 71.652344 52.074219 70.824219 51.058594 70.84375 Z M 31.851562 70.84375 " fill-opacity="1" fill-rule="nonzero"/><path fill="#000000" d="M 61.523438 70.84375 C 60.511719 70.824219 59.671875 71.652344 59.671875 72.667969 C 59.671875 73.6875 60.511719 74.511719 61.523438 74.503906 L 117.109375 74.503906 C 118.128906 74.511719 118.960938 73.6875 118.960938 72.667969 C 118.960938 71.652344 118.128906 70.824219 117.109375 70.84375 Z M 61.523438 70.84375 " fill-opacity="1" fill-rule="nonzero"/><path fill="#000000" d="M 31.671875 84.097656 C 29.230469 84.117188 29.414062 87.753906 31.851562 87.753906 L 87.4375 87.753906 C 89.898438 87.753906 89.898438 84.097656 87.4375 84.097656 C 68.851562 84.128906 50.242188 83.984375 31.671875 84.097656 Z M 31.671875 84.097656 " fill-opacity="1" fill-rule="nonzero"/><path fill="#000000" d="M 97.722656 84.097656 C 95.285156 84.128906 95.46875 87.753906 97.902344 87.753906 L 117.109375 87.753906 C 119.578125 87.753906 119.578125 84.085938 117.109375 84.097656 C 110.65625 84.128906 104.164062 84.003906 97.722656 84.097656 Z M 97.722656 84.097656 " fill-opacity="1" fill-rule="nonzero"/></svg>