<svg xmlns="http://www.w3.org/2000/svg" xmlns:xlink="http://www.w3.org/1999/xlink" width="200" zoomAndPan="magnify" viewBox="0 0 150 149.999998" height="200" preserveAspectRatio="xMidYMid meet" version="1.0"><defs><clipPath id="7d30f066ae"><path d="M 1 1 L 148.5 1 L 148.5 149 L 1 149 Z M 1 1 " clip-rule="nonzero"/></clipPath></defs><g clip-path="url(#7d30f066ae)"><path fill="#ffffff" d="M 143.925781 74.933594 C 143.886719 89.355469 139.40625 103.449219 131.050781 115.214844 C 123.03125 126.507812 111.492188 135.335938 98.480469 140.089844 C 84.738281 145.101562 69.566406 145.679688 55.496094 141.679688 C 42.007812 137.84375 29.9375 129.863281 20.988281 119.082031 C 12.042969 108.304688 6.398438 94.4375 5.347656 80.320312 C 4.273438 65.90625 7.65625 51.402344 15.144531 39.03125 C 22.371094 27.09375 33.164062 17.535156 45.84375 11.722656 C 59.011719 5.691406 74.160156 4.019531 88.34375 6.914062 C 102.199219 9.738281 114.960938 16.800781 124.734375 27.027344 C 134.492188 37.238281 140.925781 50.316406 143.121094 64.261719 C 143.679688 67.789062 143.917969 71.363281 143.925781 74.929688 C 143.933594 77.582031 148.050781 77.585938 148.042969 74.929688 C 148.003906 59.777344 143.324219 44.773438 134.503906 32.425781 C 125.855469 20.316406 113.714844 11.003906 99.746094 5.867188 C 85.773438 0.726562 69.179688 0.0078125 54.398438 4.210938 C 40.164062 8.261719 27.242188 16.707031 17.84375 28.144531 C 8.445312 39.585938 2.453125 54.132812 1.253906 69.167969 C 0.0546875 84.199219 3.683594 99.863281 11.585938 112.914062 C 19.214844 125.515625 30.660156 135.777344 44.09375 141.851562 C 58.199219 148.230469 74.074219 150.015625 89.253906 146.960938 C 103.824219 144.03125 117.378906 136.492188 127.644531 125.753906 C 137.949219 114.972656 144.90625 101.082031 147.152344 86.324219 C 147.726562 82.550781 148.03125 78.75 148.042969 74.929688 C 148.050781 72.28125 143.933594 72.277344 143.925781 74.929688 Z M 143.925781 74.933594 " fill-opacity="1" fill-rule="nonzero"/></g><path fill="#ffffff" d="M 61.535156 110.6875 C 61.304688 110.191406 61.074219 109.691406 60.855469 109.183594 C 60.539062 108.464844 60.476562 108.3125 60.101562 107.367188 C 59.335938 105.425781 58.652344 103.449219 58.039062 101.453125 C 56.21875 95.535156 55 89.417969 54.375 83.257812 C 53.015625 69.863281 54.101562 56.152344 58.023438 43.25 C 58.65625 41.167969 59.363281 39.113281 60.160156 37.085938 C 60.324219 36.675781 60.488281 36.269531 60.65625 35.863281 C 60.875 35.332031 60.492188 36.246094 60.703125 35.746094 C 60.765625 35.605469 60.824219 35.46875 60.882812 35.328125 C 61.097656 34.839844 61.316406 34.351562 61.542969 33.871094 C 60.355469 33.179688 59.171875 32.484375 57.984375 31.792969 C 54.257812 39.785156 52 48.464844 50.785156 57.175781 C 48.773438 71.605469 49.523438 86.5625 53.5 100.613281 C 54.675781 104.773438 56.152344 108.851562 57.984375 112.761719 C 59.109375 115.160156 62.664062 113.074219 61.542969 110.683594 C 60.890625 109.289062 60.558594 108.507812 60.066406 107.261719 C 59.289062 105.285156 58.59375 103.273438 57.976562 101.242188 C 56.140625 95.226562 54.929688 89.015625 54.324219 82.761719 C 53.042969 69.472656 54.164062 55.894531 58.070312 43.109375 C 58.695312 41.058594 59.398438 39.027344 60.183594 37.03125 C 60.34375 36.625 60.503906 36.226562 60.667969 35.828125 C 60.886719 35.304688 60.503906 36.210938 60.714844 35.71875 C 60.773438 35.582031 60.832031 35.441406 60.890625 35.308594 C 61.101562 34.828125 61.316406 34.351562 61.535156 33.875 C 62.652344 31.488281 59.105469 29.394531 57.980469 31.796875 C 54.195312 39.890625 51.929688 48.695312 50.726562 57.527344 C 48.765625 71.925781 49.558594 86.851562 53.5625 100.855469 C 54.726562 104.929688 56.183594 108.925781 57.980469 112.765625 C 59.105469 115.164062 62.65625 113.078125 61.535156 110.6875 Z M 61.535156 110.6875 " fill-opacity="1" fill-rule="nonzero"/><path fill="#ffffff" d="M 111.195312 116.589844 L 111.320312 116.867188 L 111.039062 115.824219 L 111.011719 116.121094 L 111.292969 115.078125 C 111.558594 114.699219 110.875 115.386719 110.722656 115.515625 L 109.019531 116.945312 L 107.394531 118.3125 C 107.21875 118.457031 107.050781 118.625 106.867188 118.753906 C 106.671875 118.890625 106.441406 118.921875 106.738281 118.785156 L 107.78125 118.503906 L 107.488281 118.476562 L 108.53125 118.757812 C 108.929688 119.042969 108.359375 118.480469 108.246094 118.34375 L 107.117188 116.972656 L 104.324219 113.5625 C 103.179688 112.164062 102.03125 110.765625 100.886719 109.367188 C 99.972656 108.25 98.347656 108.8125 97.652344 109.785156 C 94.835938 113.734375 92.015625 117.683594 89.199219 121.632812 L 92.964844 122.125 C 89.96875 110.601562 86.96875 99.078125 83.972656 87.554688 C 83.40625 85.367188 82.835938 83.179688 82.265625 80.992188 L 79.238281 83.320312 C 88.789062 87.914062 98.34375 92.503906 107.894531 97.097656 C 110.992188 98.585938 114.089844 100.074219 117.183594 101.5625 L 117.183594 98.007812 C 112.835938 100.089844 108.488281 102.167969 104.136719 104.25 C 102.835938 104.875 102.953125 106.550781 103.71875 107.484375 C 106.316406 110.660156 108.917969 113.832031 111.515625 117.007812 C 112.226562 117.875 113.6875 117.730469 114.429688 117.007812 C 115.289062 116.164062 115.128906 114.949219 114.429688 114.09375 C 111.828125 110.921875 109.230469 107.746094 106.632812 104.570312 L 106.214844 107.808594 C 110.566406 105.726562 114.914062 103.644531 119.261719 101.5625 C 120.613281 100.917969 120.605469 98.652344 119.261719 98.007812 C 108.648438 92.90625 98.035156 87.800781 87.421875 82.699219 C 85.386719 81.71875 83.351562 80.738281 81.316406 79.761719 C 79.734375 79 77.816406 80.257812 78.292969 82.089844 C 80.988281 92.460938 83.6875 102.835938 86.386719 113.207031 C 87.253906 116.546875 88.121094 119.882812 88.988281 123.222656 C 89.464844 125.0625 91.773438 125.089844 92.753906 123.714844 C 95.570312 119.765625 98.390625 115.8125 101.207031 111.863281 L 97.972656 112.28125 C 100.441406 115.292969 102.910156 118.304688 105.378906 121.320312 C 106.242188 122.371094 107.457031 122.992188 108.816406 122.34375 C 109.625 121.960938 110.335938 121.199219 111.015625 120.628906 C 112.90625 119.042969 116.054688 117.394531 114.75 114.511719 C 114.289062 113.488281 112.828125 113.261719 111.933594 113.773438 C 110.882812 114.367188 110.738281 115.582031 111.195312 116.589844 Z M 111.195312 116.589844 " fill-opacity="1" fill-rule="nonzero"/><path fill="#ffffff" d="M 108.996094 93.074219 C 100.914062 89.1875 92.832031 85.300781 84.75 81.414062 C 83.605469 80.863281 82.460938 80.3125 81.316406 79.761719 C 79.730469 79 77.8125 80.257812 78.289062 82.089844 C 80.550781 90.777344 82.808594 99.46875 85.070312 108.15625 C 85.390625 109.390625 85.710938 110.621094 86.03125 111.855469 L 87.46875 109.320312 C 72.957031 114.871094 56.421875 111.449219 45.488281 100.375 C 35.425781 90.1875 31.625 75 35.535156 61.242188 C 39.445312 47.484375 50.3125 37.042969 63.914062 33.667969 C 77.515625 30.296875 92.484375 34.886719 102.050781 45.351562 C 112.472656 56.75 115.320312 73.796875 109.25 88.007812 C 108.386719 90.023438 107.339844 91.953125 106.175781 93.808594 C 104.761719 96.0625 108.324219 98.132812 109.730469 95.886719 C 119.039062 81.058594 118.734375 61.425781 108.652344 47.054688 C 99.691406 34.28125 84.257812 26.945312 68.664062 28.675781 C 53.351562 30.375 39.773438 40.308594 33.617188 54.464844 C 27.328125 68.925781 29.144531 86.199219 38.722656 98.808594 C 48.664062 111.894531 65.1875 118.410156 81.390625 115.34375 C 83.839844 114.878906 86.226562 114.179688 88.558594 113.289062 C 89.609375 112.886719 90.296875 111.921875 89.996094 110.753906 C 87.734375 102.0625 85.476562 93.371094 83.214844 84.683594 C 82.894531 83.449219 82.574219 82.21875 82.253906 80.988281 L 79.226562 83.3125 C 87.308594 87.199219 95.394531 91.085938 103.476562 94.96875 C 104.621094 95.523438 105.765625 96.070312 106.910156 96.625 C 109.289062 97.765625 111.382812 94.214844 108.988281 93.066406 Z M 108.996094 93.074219 " fill-opacity="1" fill-rule="nonzero"/><path fill="#ffffff" d="M 114.488281 70.222656 L 31.949219 70.222656 L 34.007812 72.28125 C 33.320312 72.96875 32.636719 73.65625 31.949219 74.339844 L 114.488281 74.339844 L 112.429688 72.28125 C 112.429688 74.929688 116.550781 74.9375 116.550781 72.28125 C 116.550781 71.167969 115.605469 70.222656 114.488281 70.222656 L 31.949219 70.222656 C 30.835938 70.222656 29.890625 71.167969 29.890625 72.28125 C 29.890625 73.394531 30.832031 74.339844 31.949219 74.339844 L 114.488281 74.339844 C 117.140625 74.339844 117.144531 70.222656 114.488281 70.222656 Z M 114.488281 70.222656 " fill-opacity="1" fill-rule="nonzero"/><path fill="#ffffff" d="M 107.988281 47.695312 L 38.445312 47.695312 L 40.507812 49.757812 C 39.820312 50.441406 39.132812 51.128906 38.445312 51.816406 L 107.988281 51.816406 L 105.929688 49.757812 C 105.929688 52.40625 110.050781 52.414062 110.050781 49.757812 C 110.050781 48.644531 109.105469 47.695312 107.988281 47.695312 L 38.445312 47.695312 C 37.335938 47.695312 36.386719 48.640625 36.386719 49.757812 C 36.386719 50.867188 37.332031 51.816406 38.445312 51.816406 L 107.988281 51.816406 C 110.640625 51.816406 110.644531 47.695312 107.988281 47.695312 Z M 107.988281 47.695312 " fill-opacity="1" fill-rule="nonzero"/><path fill="#ffffff" d="M 83.726562 92.742188 L 38.445312 92.742188 C 37.335938 92.742188 36.386719 93.6875 36.386719 94.804688 C 36.386719 95.914062 37.332031 96.863281 38.445312 96.863281 L 83.726562 96.863281 C 84.839844 96.863281 85.785156 95.917969 85.785156 94.804688 C 85.785156 92.152344 81.667969 92.148438 81.667969 94.804688 C 82.351562 94.117188 83.039062 93.429688 83.726562 92.742188 L 38.445312 92.742188 L 40.507812 94.804688 C 39.820312 95.488281 39.132812 96.175781 38.445312 96.863281 L 83.726562 96.863281 C 86.375 96.863281 86.382812 92.742188 83.726562 92.742188 Z M 83.726562 92.742188 " fill-opacity="1" fill-rule="nonzero"/><path fill="#ffffff" d="M 75.277344 114.074219 L 75.277344 30.484375 L 73.21875 32.546875 L 71.160156 30.484375 L 71.160156 114.074219 L 73.21875 112.015625 C 70.570312 112.015625 70.5625 116.132812 73.21875 116.132812 C 74.332031 116.132812 75.277344 115.1875 75.277344 114.074219 L 75.277344 30.484375 C 75.277344 29.375 74.335938 28.425781 73.21875 28.425781 C 72.105469 28.425781 71.160156 29.371094 71.160156 30.484375 L 71.160156 114.074219 C 71.160156 116.722656 75.277344 116.730469 75.277344 114.074219 Z M 75.277344 114.074219 " fill-opacity="1" fill-rule="nonzero"/><path fill="#ffffff" d="M 96.085938 87.867188 C 96.945312 81.164062 96.890625 74.332031 96.390625 67.605469 C 95.679688 58.082031 94.039062 48.554688 91.222656 39.417969 C 90.539062 37.203125 89.789062 35.007812 88.914062 32.855469 C 88.496094 31.828125 87.542969 31.09375 86.378906 31.417969 C 85.40625 31.6875 84.519531 32.910156 84.941406 33.953125 C 87.050781 39.160156 88.558594 44.632812 89.746094 50.117188 C 91.824219 59.742188 92.839844 69.640625 92.582031 79.488281 C 92.507812 82.289062 92.324219 85.089844 91.972656 87.867188 C 91.832031 88.972656 93.015625 89.929688 94.03125 89.929688 C 95.261719 89.929688 95.949219 88.976562 96.089844 87.867188 C 96.960938 81.039062 96.894531 74.078125 96.363281 67.226562 C 95.628906 57.808594 93.996094 48.402344 91.203125 39.371094 C 90.527344 37.171875 89.777344 34.992188 88.914062 32.859375 L 84.941406 33.953125 C 87.074219 39.199219 88.589844 44.710938 89.777344 50.238281 C 91.839844 59.859375 92.847656 69.761719 92.582031 79.601562 C 92.503906 82.363281 92.324219 85.128906 91.972656 87.871094 C 91.832031 88.976562 93.023438 89.929688 94.03125 89.929688 C 95.261719 89.929688 95.949219 88.980469 96.09375 87.871094 Z M 96.085938 87.867188 " fill-opacity="1" fill-rule="nonzero"/></svg>