<svg xmlns="http://www.w3.org/2000/svg" xmlns:xlink="http://www.w3.org/1999/xlink" width="500" zoomAndPan="magnify" viewBox="0 0 375 149.999998" height="200" preserveAspectRatio="xMidYMid meet" version="1.0"><defs><g/></defs><g fill="#ffffff" fill-opacity="1"><g transform="translate(4.563412, 96.749996)"><g><path d="M 38.664062 -29.753906 C 38.664062 -29.195312 38.382812 -28.746094 37.824219 -28.410156 C 35.527344 -27.121094 32.808594 -25.664062 29.671875 -24.039062 C 26.53125 -22.414062 23.367188 -20.816406 20.171875 -19.246094 C 16.980469 -17.679688 14.148438 -16.304688 11.683594 -15.128906 C 13.8125 -14.289062 16.039062 -13.351562 18.367188 -12.3125 C 20.691406 -11.277344 22.960938 -10.253906 25.171875 -9.246094 C 27.386719 -8.238281 29.335938 -7.285156 31.015625 -6.386719 C 31.632812 -6.109375 31.941406 -5.632812 31.941406 -4.960938 C 31.941406 -4.566406 31.785156 -4.175781 31.476562 -3.78125 C 31.167969 -3.390625 30.792969 -3.195312 30.34375 -3.195312 C 30.230469 -3.195312 30.089844 -3.207031 29.921875 -3.234375 C 29.753906 -3.265625 29.613281 -3.304688 29.503906 -3.363281 C 27.484375 -4.425781 25.117188 -5.574219 22.398438 -6.808594 C 19.683594 -8.042969 16.949219 -9.246094 14.203125 -10.421875 C 11.460938 -11.597656 8.992188 -12.609375 6.808594 -13.449219 C 5.910156 -13.785156 5.464844 -14.316406 5.464844 -15.046875 C 5.464844 -15.71875 5.882812 -16.222656 6.722656 -16.558594 C 8.347656 -17.230469 10.394531 -18.167969 12.859375 -19.375 C 15.324219 -20.578125 17.972656 -21.882812 20.804688 -23.28125 C 23.632812 -24.683594 26.390625 -26.085938 29.082031 -27.484375 C 31.773438 -28.886719 34.125 -30.148438 36.140625 -31.265625 C 36.480469 -31.4375 36.757812 -31.519531 36.984375 -31.519531 C 37.429688 -31.519531 37.824219 -31.335938 38.160156 -30.972656 C 38.496094 -30.609375 38.664062 -30.203125 38.664062 -29.753906 Z M 38.664062 -29.753906 "/></g></g></g><g fill="#ffffff" fill-opacity="1"><g transform="translate(42.384279, 96.749996)"><g><path d="M 39.085938 -51.609375 C 39.085938 -51.328125 38.945312 -50.992188 38.664062 -50.597656 C 36.925781 -48.359375 34.953125 -45.542969 32.738281 -42.152344 C 30.523438 -38.761719 28.242188 -35.007812 25.886719 -30.890625 C 23.535156 -26.769531 21.179688 -22.511719 18.828125 -18.113281 C 16.472656 -13.714844 14.234375 -9.398438 12.105469 -5.167969 C 9.972656 -0.9375 8.082031 2.996094 6.429688 6.640625 C 4.777344 10.28125 3.472656 13.390625 2.523438 15.96875 C 2.296875 16.699219 1.792969 17.0625 1.007812 17.0625 C 0.617188 17.0625 0.222656 16.921875 -0.167969 16.640625 C -0.558594 16.363281 -0.757812 15.96875 -0.757812 15.464844 C -0.757812 15.183594 -0.726562 14.960938 -0.671875 14.792969 C 0.335938 12.160156 1.667969 8.992188 3.320312 5.296875 C 4.972656 1.597656 6.878906 -2.382812 9.035156 -6.640625 C 11.191406 -10.898438 13.460938 -15.242188 15.84375 -19.667969 C 18.226562 -24.09375 20.621094 -28.394531 23.03125 -32.570312 C 25.441406 -36.746094 27.765625 -40.554688 30.007812 -44 C 32.25 -47.449219 34.265625 -50.320312 36.058594 -52.617188 C 36.339844 -53.066406 36.757812 -53.289062 37.320312 -53.289062 C 37.769531 -53.289062 38.175781 -53.121094 38.539062 -52.785156 C 38.902344 -52.449219 39.085938 -52.054688 39.085938 -51.609375 Z M 39.085938 -51.609375 "/></g></g></g><g fill="#ffffff" fill-opacity="1"><g transform="translate(66.337276, 96.749996)"><g><path d="M 58.753906 -12.945312 C 58.753906 -12.496094 58.585938 -12.105469 58.25 -11.765625 L 56.902344 -10.421875 C 56.230469 -9.75 55.238281 -8.699219 53.917969 -7.269531 C 52.601562 -5.839844 51.160156 -4.355469 49.589844 -2.816406 C 48.023438 -1.273438 46.46875 0.0273438 44.925781 1.09375 C 43.386719 2.15625 42.027344 2.691406 40.847656 2.691406 C 39.222656 2.691406 38.132812 2.003906 37.570312 0.628906 C 37.011719 -0.742188 36.730469 -2.15625 36.730469 -3.613281 C 36.730469 -5.128906 36.925781 -6.933594 37.320312 -9.035156 C 37.710938 -11.136719 38.1875 -13.265625 38.75 -15.421875 C 39.308594 -17.582031 39.8125 -19.5 40.261719 -21.179688 C 37.066406 -21.40625 33.972656 -21.574219 30.972656 -21.683594 C 27.976562 -21.796875 25.160156 -21.855469 22.527344 -21.855469 L 20.171875 -21.855469 C 19.667969 -21.855469 19.09375 -21.855469 18.449219 -21.855469 C 17.804688 -21.855469 17.148438 -21.824219 16.472656 -21.769531 C 13.898438 -18.96875 11.472656 -15.996094 9.203125 -12.859375 C 6.933594 -9.722656 5.085938 -6.585938 3.65625 -3.445312 C 2.226562 -0.308594 1.511719 2.746094 1.511719 5.714844 C 1.511719 6.277344 1.34375 6.695312 1.007812 6.976562 C 0.671875 7.257812 0.28125 7.398438 -0.167969 7.398438 C -0.558594 7.398438 -0.9375 7.257812 -1.304688 6.976562 C -1.667969 6.695312 -1.847656 6.277344 -1.847656 5.714844 C -1.847656 2.746094 -1.234375 -0.28125 0 -3.363281 C 1.234375 -6.445312 2.859375 -9.496094 4.875 -12.523438 C 6.890625 -15.550781 9.105469 -18.464844 11.515625 -21.265625 C 10.171875 -20.929688 8.894531 -20.605469 7.691406 -20.296875 C 6.484375 -19.992188 5.882812 -19.304688 5.882812 -18.238281 C 5.882812 -18.070312 5.910156 -17.917969 5.96875 -17.777344 C 6.023438 -17.636719 6.050781 -17.453125 6.050781 -17.230469 C 6.050781 -16.726562 5.882812 -16.335938 5.546875 -16.054688 C 5.210938 -15.773438 4.820312 -15.632812 4.371094 -15.632812 C 3.753906 -15.632812 3.292969 -15.898438 2.984375 -16.433594 C 2.675781 -16.964844 2.523438 -17.511719 2.523438 -18.070312 C 2.523438 -19.863281 3.136719 -21.238281 4.371094 -22.191406 C 5.601562 -23.140625 7.171875 -23.828125 9.078125 -24.25 C 10.984375 -24.667969 12.917969 -24.9375 14.878906 -25.046875 C 17.007812 -27.34375 19.121094 -29.488281 21.222656 -31.476562 C 23.324219 -33.46875 25.242188 -35.21875 26.980469 -36.730469 C 32.359375 -41.4375 36.828125 -45.179688 40.386719 -47.953125 C 43.945312 -50.726562 46.566406 -52.113281 48.246094 -52.113281 C 49.3125 -52.113281 50.039062 -51.75 50.429688 -51.019531 C 50.824219 -50.292969 51.019531 -49.480469 51.019531 -48.582031 C 51.019531 -48.191406 50.851562 -47.308594 50.515625 -45.933594 C 50.179688 -44.5625 49.757812 -42.910156 49.253906 -40.976562 C 48.75 -39.042969 48.203125 -37.023438 47.617188 -34.921875 C 47.027344 -32.824219 46.46875 -30.832031 45.933594 -28.957031 C 45.402344 -27.078125 44.96875 -25.496094 44.632812 -24.207031 L 46.480469 -24.039062 C 46.984375 -23.984375 47.363281 -23.785156 47.617188 -23.449219 C 47.867188 -23.113281 47.992188 -22.75 47.992188 -22.359375 C 47.992188 -21.964844 47.855469 -21.585938 47.574219 -21.222656 C 47.292969 -20.859375 46.875 -20.675781 46.3125 -20.675781 C 46.257812 -20.675781 45.921875 -20.703125 45.304688 -20.761719 C 44.6875 -20.816406 44.15625 -20.871094 43.707031 -20.929688 C 43.257812 -19.359375 42.753906 -17.496094 42.195312 -15.339844 C 41.632812 -13.183594 41.144531 -11.054688 40.722656 -8.953125 C 40.304688 -6.851562 40.09375 -5.070312 40.09375 -3.613281 C 40.09375 -1.710938 40.402344 -0.757812 41.019531 -0.757812 C 41.523438 -0.757812 42.363281 -1.261719 43.539062 -2.269531 C 44.828125 -3.335938 46.257812 -4.621094 47.824219 -6.136719 C 49.394531 -7.648438 50.808594 -9.035156 52.070312 -10.296875 C 53.332031 -11.558594 54.15625 -12.382812 54.550781 -12.777344 L 55.894531 -14.121094 C 56.230469 -14.457031 56.625 -14.625 57.070312 -14.625 C 57.519531 -14.625 57.914062 -14.457031 58.25 -14.121094 C 58.585938 -13.785156 58.753906 -13.390625 58.753906 -12.945312 Z M 47.65625 -48.582031 C 46.648438 -48.191406 45.148438 -47.25 43.160156 -45.765625 C 41.171875 -44.28125 38.957031 -42.515625 36.519531 -40.472656 C 34.082031 -38.425781 31.632812 -36.339844 29.167969 -34.210938 C 27.820312 -33.03125 26.351562 -31.6875 24.753906 -30.175781 C 23.15625 -28.660156 21.488281 -27.007812 19.753906 -25.214844 L 22.527344 -25.214844 C 25.273438 -25.214844 28.226562 -25.160156 31.394531 -25.046875 C 34.558594 -24.9375 37.824219 -24.738281 41.1875 -24.460938 C 41.523438 -25.636719 41.957031 -27.175781 42.488281 -29.082031 C 43.019531 -30.988281 43.582031 -32.992188 44.167969 -35.09375 C 44.757812 -37.191406 45.316406 -39.210938 45.851562 -41.144531 C 46.382812 -43.078125 46.816406 -44.730469 47.152344 -46.101562 C 47.488281 -47.476562 47.65625 -48.300781 47.65625 -48.582031 Z M 47.65625 -48.582031 "/></g></g></g><g fill="#ffffff" fill-opacity="1"><g transform="translate(120.211091, 96.749996)"><g><path d="M 47.320312 -12.945312 C 47.320312 -12.496094 47.152344 -12.105469 46.816406 -11.765625 L 45.472656 -10.421875 C 44.96875 -9.917969 44.15625 -9.105469 43.035156 -7.984375 C 41.914062 -6.863281 40.652344 -5.644531 39.253906 -4.328125 C 37.851562 -3.011719 36.378906 -1.75 34.839844 -0.546875 C 33.296875 0.660156 31.84375 1.652344 30.46875 2.4375 C 29.097656 3.222656 27.933594 3.613281 26.980469 3.613281 C 25.917969 3.613281 25.089844 3.265625 24.5 2.5625 C 23.914062 1.863281 23.617188 0.980469 23.617188 -0.0859375 C 23.617188 -2.101562 24.054688 -4.0625 24.921875 -5.96875 C 25.789062 -7.871094 26.671875 -9.707031 27.570312 -11.472656 C 28.464844 -13.238281 28.914062 -14.933594 28.914062 -16.558594 C 28.914062 -17.34375 28.773438 -17.875 28.492188 -18.15625 C 28.214844 -18.433594 27.820312 -18.574219 27.316406 -18.574219 C 26.027344 -18.574219 24.570312 -18.097656 22.945312 -17.148438 C 21.320312 -16.195312 19.652344 -14.960938 17.945312 -13.449219 C 16.234375 -11.933594 14.570312 -10.324219 12.945312 -8.617188 C 11.320312 -6.90625 9.847656 -5.265625 8.53125 -3.699219 C 7.214844 -2.128906 6.164062 -0.867188 5.378906 0.0859375 C 5.042969 0.589844 4.539062 0.839844 3.867188 0.839844 C 3.472656 0.839844 3.109375 0.6875 2.773438 0.378906 C 2.4375 0.0703125 2.269531 -0.308594 2.269531 -0.757812 C 2.269531 -1.035156 2.351562 -1.34375 2.523438 -1.679688 C 3.082031 -3.027344 3.683594 -4.636719 4.328125 -6.515625 C 4.972656 -8.390625 5.574219 -10.324219 6.136719 -12.3125 C 6.695312 -14.304688 7.089844 -16.109375 7.3125 -17.734375 C 6.359375 -16.671875 5.367188 -15.5625 4.328125 -14.414062 C 3.292969 -13.265625 2.464844 -12.382812 1.847656 -11.765625 L 0.503906 -10.421875 C 0.167969 -10.085938 -0.222656 -9.917969 -0.671875 -9.917969 C -1.121094 -9.917969 -1.511719 -10.085938 -1.847656 -10.421875 C -2.183594 -10.757812 -2.351562 -11.152344 -2.351562 -11.597656 C -2.351562 -12.046875 -2.183594 -12.441406 -1.847656 -12.777344 L -0.503906 -14.121094 C 0.335938 -14.960938 1.472656 -16.167969 2.898438 -17.734375 C 4.328125 -19.304688 5.546875 -20.703125 6.554688 -21.9375 C 6.722656 -22.160156 6.992188 -22.398438 7.355469 -22.652344 C 7.71875 -22.90625 8.152344 -23.03125 8.65625 -23.03125 C 9.609375 -23.03125 10.210938 -22.679688 10.464844 -21.980469 C 10.714844 -21.277344 10.84375 -20.761719 10.84375 -20.425781 C 10.84375 -18.910156 10.632812 -17.148438 10.210938 -15.128906 C 9.792969 -13.113281 9.273438 -11.066406 8.65625 -8.992188 C 9.722656 -10.171875 10.996094 -11.5 12.480469 -12.984375 C 13.964844 -14.472656 15.550781 -15.886719 17.230469 -17.230469 C 18.910156 -18.574219 20.621094 -19.695312 22.359375 -20.59375 C 24.09375 -21.488281 25.75 -21.9375 27.316406 -21.9375 C 28.941406 -21.9375 30.175781 -21.417969 31.015625 -20.382812 C 31.855469 -19.347656 32.277344 -18.070312 32.277344 -16.558594 C 32.277344 -14.597656 31.828125 -12.691406 30.929688 -10.84375 C 30.035156 -8.992188 29.152344 -7.171875 28.285156 -5.378906 C 27.414062 -3.585938 26.980469 -1.820312 26.980469 -0.0859375 C 26.980469 0.0273438 26.996094 0.113281 27.023438 0.167969 C 27.050781 0.222656 27.066406 0.28125 27.066406 0.335938 C 27.679688 0.335938 28.578125 -0.0703125 29.753906 -0.882812 C 30.929688 -1.695312 32.234375 -2.71875 33.664062 -3.949219 C 35.09375 -5.183594 36.492188 -6.429688 37.867188 -7.691406 C 39.238281 -8.953125 40.402344 -10.058594 41.355469 -11.011719 C 42.304688 -11.964844 42.894531 -12.550781 43.117188 -12.777344 L 44.464844 -14.121094 C 44.800781 -14.457031 45.191406 -14.625 45.640625 -14.625 C 46.089844 -14.625 46.480469 -14.457031 46.816406 -14.121094 C 47.152344 -13.785156 47.320312 -13.390625 47.320312 -12.945312 Z M 47.320312 -12.945312 "/></g></g></g><g fill="#ffffff" fill-opacity="1"><g transform="translate(162.654536, 96.749996)"><g><path d="M 37.992188 -12.945312 C 37.992188 -12.496094 37.824219 -12.105469 37.488281 -11.765625 L 36.140625 -10.421875 C 33.398438 -7.675781 30.46875 -5.15625 27.359375 -2.859375 C 24.25 -0.558594 20.957031 1.429688 17.484375 3.109375 C 16.921875 4.902344 16.292969 6.652344 15.589844 8.363281 C 14.890625 10.074219 14.066406 11.738281 13.113281 13.363281 C 12.160156 14.988281 11.054688 16.558594 9.792969 18.070312 C 8.53125 19.585938 7.117188 20.804688 5.546875 21.726562 C 3.976562 22.652344 2.242188 23.113281 0.335938 23.113281 C -0.785156 23.113281 -1.917969 22.863281 -3.066406 22.359375 C -4.214844 21.855469 -5.167969 21.109375 -5.925781 20.128906 C -6.683594 19.148438 -7.058594 17.960938 -7.058594 16.558594 C -7.058594 14.652344 -6.527344 12.972656 -5.464844 11.515625 C -4.398438 10.058594 -3.027344 8.785156 -1.34375 7.691406 C 0.335938 6.597656 2.171875 5.644531 4.160156 4.832031 C 6.148438 4.019531 8.082031 3.277344 9.960938 2.605469 C 11.835938 1.933594 13.449219 1.289062 14.792969 0.671875 C 15.410156 -1.121094 15.984375 -3.011719 16.515625 -5 C 17.046875 -6.992188 17.566406 -8.769531 18.070312 -10.339844 C 15.492188 -7.257812 13.054688 -5.015625 10.757812 -3.613281 C 8.460938 -2.214844 6.386719 -1.511719 4.539062 -1.511719 C 2.578125 -1.511719 1.050781 -2.214844 -0.0429688 -3.613281 C -1.132812 -5.015625 -1.679688 -6.5 -1.679688 -8.070312 C -1.679688 -10.589844 -1.066406 -12.972656 0.167969 -15.214844 C 1.402344 -17.453125 2.996094 -19.429688 4.960938 -21.140625 C 6.921875 -22.847656 9.023438 -24.191406 11.261719 -25.171875 C 13.503906 -26.15625 15.660156 -26.644531 17.734375 -26.644531 C 20.144531 -26.644531 22.132812 -25.945312 23.703125 -24.542969 L 24.292969 -25.550781 C 24.628906 -26.113281 25.074219 -26.390625 25.636719 -26.390625 C 26.085938 -26.390625 26.492188 -26.222656 26.855469 -25.886719 C 27.21875 -25.550781 27.402344 -25.160156 27.402344 -24.710938 C 27.402344 -24.375 27.34375 -24.09375 27.234375 -23.871094 C 27.066406 -23.589844 26.867188 -23.253906 26.644531 -22.863281 C 26.421875 -22.46875 26.167969 -22.050781 25.886719 -21.601562 C 24.320312 -18.574219 23.03125 -15.324219 22.023438 -11.851562 C 21.011719 -8.378906 19.976562 -4.902344 18.910156 -1.429688 C 21.488281 -2.886719 24.011719 -4.539062 26.476562 -6.386719 C 28.941406 -8.238281 31.378906 -10.367188 33.789062 -12.777344 L 35.132812 -14.121094 C 35.46875 -14.457031 35.863281 -14.625 36.3125 -14.625 C 36.757812 -14.625 37.152344 -14.457031 37.488281 -14.121094 C 37.824219 -13.785156 37.992188 -13.390625 37.992188 -12.945312 Z M 21.9375 -21.515625 C 20.871094 -22.695312 19.472656 -23.28125 17.734375 -23.28125 C 16.054688 -23.28125 14.273438 -22.863281 12.398438 -22.023438 C 10.519531 -21.179688 8.769531 -20.046875 7.144531 -18.617188 C 5.519531 -17.1875 4.203125 -15.5625 3.195312 -13.742188 C 2.183594 -11.921875 1.679688 -10.03125 1.679688 -8.070312 C 1.679688 -7.171875 1.945312 -6.414062 2.480469 -5.800781 C 3.011719 -5.183594 3.699219 -4.875 4.539062 -4.875 C 5.996094 -4.875 7.523438 -5.40625 9.121094 -6.472656 C 10.714844 -7.535156 12.285156 -8.910156 13.828125 -10.589844 C 15.367188 -12.273438 16.839844 -14.078125 18.238281 -16.011719 C 19.640625 -17.945312 20.871094 -19.78125 21.9375 -21.515625 Z M 13.363281 4.960938 C 12.1875 5.40625 10.660156 5.96875 8.785156 6.640625 C 6.90625 7.3125 5 8.109375 3.066406 9.035156 C 1.132812 9.960938 -0.476562 11.039062 -1.765625 12.273438 C -3.054688 13.503906 -3.699219 14.933594 -3.699219 16.558594 C -3.699219 17.398438 -3.304688 18.140625 -2.523438 18.785156 C -1.738281 19.429688 -0.785156 19.753906 0.335938 19.753906 C 2.296875 19.753906 4.089844 18.996094 5.714844 17.484375 C 7.339844 15.96875 8.796875 14.078125 10.085938 11.808594 C 11.375 9.539062 12.46875 7.257812 13.363281 4.960938 Z M 13.363281 4.960938 "/></g></g></g><g fill="#ffffff" fill-opacity="1"><g transform="translate(195.76878, 96.749996)"><g><path d="M 28.578125 -12.945312 C 28.578125 -12.496094 28.410156 -12.105469 28.074219 -11.765625 L 26.730469 -10.421875 C 25.160156 -8.855469 23.367188 -7.171875 21.347656 -5.378906 C 19.332031 -3.585938 17.175781 -2.046875 14.878906 -0.757812 C 12.578125 0.53125 10.253906 1.175781 7.902344 1.175781 C 4.875 1.175781 2.589844 0.0546875 1.050781 -2.183594 C -0.492188 -4.425781 -1.261719 -7.144531 -1.261719 -10.339844 C -1.261719 -12.242188 -0.898438 -14.203125 -0.167969 -16.222656 C 0.558594 -18.238281 1.582031 -20.117188 2.898438 -21.855469 C 4.214844 -23.589844 5.773438 -25.003906 7.566406 -26.097656 C 9.359375 -27.191406 11.292969 -27.738281 13.363281 -27.738281 C 14.878906 -27.738281 16.207031 -27.316406 17.355469 -26.476562 C 18.503906 -25.636719 19.078125 -24.402344 19.078125 -22.777344 C 19.078125 -21.097656 18.492188 -19.570312 17.316406 -18.199219 C 16.136719 -16.824219 14.640625 -15.632812 12.816406 -14.625 C 10.996094 -13.617188 9.132812 -12.761719 7.226562 -12.0625 C 5.324219 -11.359375 3.613281 -10.816406 2.101562 -10.421875 C 2.101562 -9.191406 2.269531 -7.941406 2.605469 -6.683594 C 2.941406 -5.421875 3.53125 -4.355469 4.371094 -3.488281 C 5.210938 -2.621094 6.386719 -2.183594 7.902344 -2.183594 C 9.863281 -2.183594 11.851562 -2.789062 13.867188 -3.992188 C 15.886719 -5.195312 17.820312 -6.640625 19.667969 -8.320312 C 21.515625 -10.003906 23.085938 -11.488281 24.375 -12.777344 L 25.71875 -14.121094 C 26.054688 -14.457031 26.449219 -14.625 26.898438 -14.625 C 27.34375 -14.625 27.738281 -14.457031 28.074219 -14.121094 C 28.410156 -13.785156 28.578125 -13.390625 28.578125 -12.945312 Z M 15.71875 -22.777344 C 15.71875 -23.171875 15.550781 -23.535156 15.214844 -23.871094 C 14.878906 -24.207031 14.261719 -24.375 13.363281 -24.375 C 11.683594 -24.375 10.128906 -23.871094 8.699219 -22.863281 C 7.269531 -21.855469 6.039062 -20.550781 5 -18.953125 C 3.964844 -17.355469 3.195312 -15.71875 2.691406 -14.035156 C 3.921875 -14.371094 5.28125 -14.835938 6.765625 -15.421875 C 8.25 -16.011719 9.679688 -16.671875 11.054688 -17.398438 C 12.425781 -18.128906 13.546875 -18.953125 14.414062 -19.878906 C 15.285156 -20.804688 15.71875 -21.769531 15.71875 -22.777344 Z M 15.71875 -22.777344 "/></g></g></g><g fill="#ffffff" fill-opacity="1"><g transform="translate(219.469779, 96.749996)"><g><path d="M 28.242188 -48.078125 C 28.242188 -46.0625 27.625 -43.804688 26.390625 -41.3125 C 25.160156 -38.816406 23.480469 -36.15625 21.347656 -33.328125 C 19.21875 -30.496094 16.839844 -27.609375 14.203125 -24.667969 C 11.570312 -21.726562 8.824219 -18.800781 5.96875 -15.886719 C 5.183594 -12.300781 4.789062 -9.246094 4.789062 -6.722656 C 4.789062 -6.445312 4.820312 -5.800781 4.875 -4.789062 C 4.929688 -3.78125 5.097656 -2.84375 5.378906 -1.976562 C 5.660156 -1.105469 6.136719 -0.671875 6.808594 -0.671875 C 7.257812 -0.671875 7.871094 -0.867188 8.65625 -1.261719 C 9.441406 -1.652344 10.394531 -2.351562 11.515625 -3.363281 C 11.90625 -3.699219 12.636719 -4.355469 13.699219 -5.335938 C 14.765625 -6.316406 15.996094 -7.480469 17.398438 -8.824219 C 18.800781 -10.171875 20.144531 -11.488281 21.433594 -12.777344 L 22.777344 -14.121094 C 23.113281 -14.457031 23.507812 -14.625 23.953125 -14.625 C 24.402344 -14.625 24.796875 -14.457031 25.132812 -14.121094 C 25.46875 -13.785156 25.636719 -13.390625 25.636719 -12.945312 C 25.636719 -12.496094 25.46875 -12.105469 25.132812 -11.765625 L 23.785156 -10.421875 C 22.5 -9.132812 21.140625 -7.804688 19.710938 -6.429688 C 18.28125 -5.058594 17.019531 -3.867188 15.929688 -2.859375 C 14.835938 -1.847656 14.09375 -1.175781 13.699219 -0.839844 C 12.523438 0.222656 11.359375 1.078125 10.210938 1.722656 C 9.0625 2.367188 7.929688 2.691406 6.808594 2.691406 C 5.238281 2.691406 4.0625 2.144531 3.277344 1.050781 C 2.492188 -0.0429688 1.988281 -1.316406 1.765625 -2.773438 C 1.539062 -4.230469 1.429688 -5.546875 1.429688 -6.722656 C 1.429688 -7.507812 1.472656 -8.308594 1.554688 -9.121094 C 1.640625 -9.933594 1.738281 -10.785156 1.847656 -11.683594 L 0.503906 -10.421875 C 0.113281 -10.085938 -0.28125 -9.917969 -0.671875 -9.917969 C -1.121094 -9.917969 -1.511719 -10.085938 -1.847656 -10.421875 C -2.183594 -10.757812 -2.351562 -11.152344 -2.351562 -11.597656 C -2.351562 -12.046875 -2.183594 -12.441406 -1.847656 -12.777344 L -0.503906 -14.121094 C 0 -14.625 0.546875 -15.15625 1.132812 -15.71875 C 1.722656 -16.277344 2.324219 -16.894531 2.941406 -17.566406 C 3.949219 -21.882812 5.335938 -26.324219 7.101562 -30.890625 C 8.867188 -35.457031 10.757812 -39.503906 12.777344 -43.035156 C 16.808594 -50.039062 20.535156 -53.542969 23.953125 -53.542969 C 25.578125 -53.542969 26.699219 -52.996094 27.316406 -51.902344 C 27.933594 -50.808594 28.242188 -49.535156 28.242188 -48.078125 Z M 24.878906 -48.078125 C 24.878906 -49.480469 24.515625 -50.179688 23.785156 -50.179688 C 23.394531 -50.179688 22.890625 -50.011719 22.273438 -49.675781 C 21.152344 -49.003906 19.976562 -47.839844 18.742188 -46.1875 C 17.511719 -44.535156 16.320312 -42.601562 15.171875 -40.386719 C 14.023438 -38.175781 12.957031 -35.917969 11.976562 -33.621094 C 10.996094 -31.324219 10.128906 -29.195312 9.371094 -27.234375 C 8.617188 -25.273438 8.070312 -23.730469 7.734375 -22.609375 C 9.695312 -24.738281 11.683594 -26.96875 13.699219 -29.292969 C 15.71875 -31.617188 17.566406 -33.929688 19.246094 -36.226562 C 20.929688 -38.523438 22.289062 -40.695312 23.324219 -42.742188 C 24.359375 -44.785156 24.878906 -46.566406 24.878906 -48.078125 Z M 24.878906 -48.078125 "/></g></g></g><g fill="#ffffff" fill-opacity="1"><g transform="translate(240.229155, 96.749996)"><g><path d="M 19.835938 -36.816406 C 19.835938 -36.367188 19.667969 -35.972656 19.332031 -35.636719 L 17.0625 -33.367188 C 16.726562 -33.03125 16.335938 -32.863281 15.886719 -32.863281 C 15.4375 -32.863281 15.046875 -33.03125 14.710938 -33.367188 C 14.371094 -33.703125 14.203125 -34.097656 14.203125 -34.546875 C 14.203125 -34.992188 14.371094 -35.386719 14.710938 -35.722656 L 16.980469 -37.992188 C 17.316406 -38.328125 17.707031 -38.496094 18.15625 -38.496094 C 18.605469 -38.496094 18.996094 -38.328125 19.332031 -37.992188 C 19.667969 -37.65625 19.835938 -37.261719 19.835938 -36.816406 Z M 25.46875 -12.945312 C 25.46875 -12.496094 25.300781 -12.105469 24.964844 -11.765625 L 23.617188 -10.421875 C 20.480469 -7.285156 17.988281 -4.917969 16.136719 -3.320312 C 14.289062 -1.722656 12.789062 -0.660156 11.640625 -0.125 C 10.492188 0.40625 9.328125 0.671875 8.152344 0.671875 C 6.472656 0.671875 5.183594 0.183594 4.285156 -0.796875 C 3.390625 -1.777344 2.941406 -3.054688 2.941406 -4.621094 C 2.941406 -5.6875 3.179688 -7.003906 3.65625 -8.574219 C 4.132812 -10.140625 4.664062 -11.683594 5.253906 -13.195312 C 5.839844 -14.710938 6.304688 -15.941406 6.640625 -16.894531 C 5.910156 -16.054688 5.128906 -15.183594 4.285156 -14.289062 C 3.445312 -13.390625 2.632812 -12.550781 1.847656 -11.765625 L 0.503906 -10.421875 C 0.167969 -10.085938 -0.222656 -9.917969 -0.671875 -9.917969 C -1.121094 -9.917969 -1.511719 -10.085938 -1.847656 -10.421875 C -2.183594 -10.757812 -2.351562 -11.152344 -2.351562 -11.597656 C -2.351562 -12.046875 -2.183594 -12.441406 -1.847656 -12.777344 L -0.503906 -14.121094 C 1.457031 -16.082031 3.347656 -18.113281 5.167969 -20.214844 C 6.992188 -22.316406 8.347656 -23.898438 9.246094 -24.964844 C 9.359375 -25.074219 9.566406 -25.203125 9.875 -25.34375 C 10.183594 -25.480469 10.394531 -25.550781 10.507812 -25.550781 C 11.066406 -25.550781 11.585938 -25.355469 12.0625 -24.964844 C 12.539062 -24.570312 12.777344 -24.09375 12.777344 -23.535156 C 12.777344 -23.421875 12.71875 -23.199219 12.609375 -22.863281 C 12.328125 -22.246094 11.851562 -21.097656 11.179688 -19.417969 C 10.507812 -17.734375 9.792969 -15.886719 9.035156 -13.867188 C 8.277344 -11.851562 7.636719 -9.988281 7.101562 -8.277344 C 6.570312 -6.570312 6.304688 -5.351562 6.304688 -4.621094 C 6.304688 -3.335938 6.921875 -2.691406 8.152344 -2.691406 C 8.714844 -2.691406 9.289062 -2.789062 9.875 -2.984375 C 10.464844 -3.179688 11.191406 -3.601562 12.0625 -4.246094 C 12.929688 -4.890625 14.09375 -5.882812 15.550781 -7.226562 C 17.007812 -8.574219 18.910156 -10.421875 21.265625 -12.777344 L 22.609375 -14.121094 C 22.945312 -14.457031 23.339844 -14.625 23.785156 -14.625 C 24.234375 -14.625 24.628906 -14.457031 24.964844 -14.121094 C 25.300781 -13.785156 25.46875 -13.390625 25.46875 -12.945312 Z M 25.46875 -12.945312 "/></g></g></g><g fill="#ffffff" fill-opacity="1"><g transform="translate(260.820416, 96.749996)"><g><path d="M 43.203125 -12.945312 C 43.203125 -12.496094 43.035156 -12.105469 42.699219 -11.765625 L 41.355469 -10.421875 C 40.679688 -9.75 39.6875 -8.753906 38.371094 -7.4375 C 37.054688 -6.121094 35.636719 -4.789062 34.125 -3.445312 C 32.554688 -2.046875 30.945312 -0.796875 29.292969 0.292969 C 27.640625 1.386719 26.222656 1.933594 25.046875 1.933594 C 23.480469 1.933594 22.386719 1.429688 21.769531 0.421875 C 21.152344 -0.589844 20.621094 -2.101562 20.171875 -4.117188 C 19.835938 -5.742188 19.386719 -6.78125 18.828125 -7.226562 C 18.265625 -7.675781 17.257812 -7.929688 15.800781 -7.984375 C 15.355469 -8.042969 14.960938 -8.210938 14.625 -8.488281 C 14.289062 -8.769531 14.121094 -9.160156 14.121094 -9.667969 C 14.121094 -10.617188 14.625 -11.179688 15.632812 -11.347656 C 17.59375 -11.683594 19.570312 -12.300781 21.558594 -13.195312 C 23.546875 -14.09375 25.203125 -15.214844 26.519531 -16.558594 C 27.835938 -17.902344 28.492188 -19.359375 28.492188 -20.929688 C 28.492188 -21.65625 28.253906 -22.300781 27.78125 -22.863281 C 27.304688 -23.421875 26.617188 -23.703125 25.71875 -23.703125 C 24.375 -23.703125 22.890625 -23.03125 21.265625 -21.683594 C 19.640625 -20.339844 17.972656 -18.632812 16.265625 -16.558594 C 14.554688 -14.484375 12.957031 -12.328125 11.472656 -10.085938 C 9.988281 -7.84375 8.699219 -5.785156 7.605469 -3.910156 C 6.515625 -2.03125 5.742188 -0.671875 5.296875 0.167969 C 5.015625 0.839844 4.539062 1.175781 3.867188 1.175781 C 3.472656 1.175781 3.082031 1.023438 2.691406 0.714844 C 2.296875 0.40625 2.101562 0.0273438 2.101562 -0.421875 C 2.101562 -0.699219 2.128906 -0.925781 2.183594 -1.09375 C 2.632812 -2.324219 3.25 -4.382812 4.035156 -7.269531 C 4.820312 -10.15625 5.742188 -13.449219 6.808594 -17.148438 C 5.800781 -15.96875 4.875 -14.933594 4.035156 -14.035156 C 3.195312 -13.140625 2.464844 -12.382812 1.847656 -11.765625 L 0.503906 -10.421875 C 0.167969 -10.085938 -0.222656 -9.917969 -0.671875 -9.917969 C -1.121094 -9.917969 -1.511719 -10.085938 -1.847656 -10.421875 C -2.183594 -10.757812 -2.351562 -11.152344 -2.351562 -11.597656 C -2.351562 -12.046875 -2.183594 -12.441406 -1.847656 -12.777344 L -0.503906 -14.121094 C 0.839844 -15.464844 2.351562 -17.117188 4.035156 -19.078125 C 5.714844 -21.042969 7.425781 -23.140625 9.160156 -25.382812 C 10.226562 -28.859375 11.332031 -32.25 12.480469 -35.554688 C 13.628906 -38.859375 14.808594 -41.871094 16.011719 -44.589844 C 17.214844 -47.308594 18.421875 -49.464844 19.625 -51.0625 C 20.832031 -52.660156 21.992188 -53.457031 23.113281 -53.457031 C 24.011719 -53.457031 24.628906 -53.136719 24.964844 -52.492188 C 25.300781 -51.847656 25.46875 -51.160156 25.46875 -50.429688 C 25.46875 -48.078125 24.824219 -45.386719 23.535156 -42.363281 C 22.246094 -39.335938 20.578125 -36.242188 18.535156 -33.074219 C 16.488281 -29.910156 14.371094 -26.867188 12.1875 -23.953125 C 11.628906 -22.050781 11.109375 -20.160156 10.632812 -18.28125 C 10.15625 -16.402344 9.667969 -14.570312 9.160156 -12.777344 C 10.785156 -15.128906 12.539062 -17.398438 14.414062 -19.585938 C 16.292969 -21.769531 18.199219 -23.5625 20.128906 -24.964844 C 22.0625 -26.363281 23.925781 -27.066406 25.71875 -27.066406 C 27.679688 -27.066406 29.195312 -26.421875 30.257812 -25.132812 C 31.324219 -23.84375 31.855469 -22.441406 31.855469 -20.929688 C 31.855469 -19.023438 31.324219 -17.328125 30.257812 -15.84375 C 29.195312 -14.359375 27.847656 -13.097656 26.222656 -12.0625 C 24.597656 -11.023438 22.917969 -10.171875 21.179688 -9.496094 C 22.246094 -8.546875 22.917969 -7.4375 23.199219 -6.179688 C 23.480469 -4.917969 23.703125 -3.808594 23.871094 -2.859375 C 24.039062 -1.90625 24.429688 -1.429688 25.046875 -1.429688 C 25.777344 -1.429688 26.796875 -1.917969 28.117188 -2.898438 C 29.433594 -3.878906 30.792969 -4.988281 32.191406 -6.21875 C 33.703125 -7.566406 35.105469 -8.882812 36.394531 -10.171875 C 37.683594 -11.460938 38.550781 -12.328125 39 -12.777344 L 40.34375 -14.121094 C 40.679688 -14.457031 41.074219 -14.625 41.523438 -14.625 C 41.96875 -14.625 42.363281 -14.457031 42.699219 -14.121094 C 43.035156 -13.785156 43.203125 -13.390625 43.203125 -12.945312 Z M 21.769531 -48.078125 C 20.535156 -46.230469 19.402344 -44.128906 18.367188 -41.773438 C 17.328125 -39.421875 16.335938 -36.925781 15.382812 -34.292969 C 16.839844 -36.648438 18.140625 -39.015625 19.289062 -41.394531 C 20.4375 -43.777344 21.265625 -46.003906 21.769531 -48.078125 Z M 21.769531 -48.078125 "/></g></g></g><g fill="#ffffff" fill-opacity="1"><g transform="translate(299.145556, 96.749996)"><g><path d="M 35.804688 -12.945312 C 35.804688 -12.496094 35.636719 -12.105469 35.300781 -11.765625 L 33.957031 -10.421875 C 33.285156 -9.75 32.445312 -8.882812 31.4375 -7.816406 C 30.425781 -6.753906 29.320312 -5.6875 28.117188 -4.621094 C 26.910156 -3.558594 25.691406 -2.648438 24.460938 -1.890625 C 23.226562 -1.132812 22.105469 -0.757812 21.097656 -0.757812 C 19.417969 -0.757812 18.226562 -1.386719 17.523438 -2.648438 C 16.824219 -3.910156 16.472656 -5.210938 16.472656 -6.554688 C 16.472656 -7.003906 16.503906 -7.480469 16.558594 -7.984375 C 16.613281 -8.488281 16.726562 -9.023438 16.894531 -9.582031 C 15.382812 -7.621094 13.796875 -5.785156 12.144531 -4.078125 C 10.492188 -2.367188 8.867188 -0.980469 7.269531 0.0859375 C 5.671875 1.148438 4.175781 1.679688 2.773438 1.679688 C 1.371094 1.679688 0.265625 1.289062 -0.546875 0.503906 C -1.359375 -0.28125 -1.917969 -1.21875 -2.226562 -2.3125 C -2.535156 -3.402344 -2.691406 -4.453125 -2.691406 -5.464844 C -2.691406 -7.59375 -2.253906 -9.765625 -1.386719 -11.976562 C -0.519531 -14.191406 0.6875 -16.234375 2.226562 -18.113281 C 3.769531 -19.992188 5.535156 -21.515625 7.523438 -22.695312 C 9.511719 -23.871094 11.597656 -24.460938 13.785156 -24.460938 C 15.410156 -24.460938 16.796875 -24.066406 17.945312 -23.28125 C 19.09375 -22.5 20.03125 -21.488281 20.761719 -20.257812 L 22.777344 -23.113281 C 22.945312 -23.394531 23.15625 -23.578125 23.410156 -23.660156 C 23.660156 -23.746094 23.898438 -23.785156 24.125 -23.785156 C 24.570312 -23.785156 24.964844 -23.617188 25.300781 -23.28125 C 25.636719 -22.945312 25.804688 -22.554688 25.804688 -22.105469 C 25.804688 -21.769531 25.691406 -21.460938 25.46875 -21.179688 L 23.953125 -18.996094 C 23.785156 -18.714844 23.367188 -17.902344 22.695312 -16.558594 C 22.023438 -15.214844 21.378906 -13.628906 20.761719 -11.808594 C 20.144531 -9.988281 19.835938 -8.238281 19.835938 -6.554688 C 19.835938 -4.875 20.230469 -4.035156 21.011719 -4.035156 C 21.574219 -4.035156 22.359375 -4.398438 23.367188 -5.128906 C 24.375 -5.855469 25.453125 -6.753906 26.601562 -7.816406 C 27.75 -8.882812 28.789062 -9.890625 29.710938 -10.84375 C 30.636719 -11.796875 31.265625 -12.441406 31.605469 -12.777344 L 32.949219 -14.121094 C 33.285156 -14.457031 33.675781 -14.625 34.125 -14.625 C 34.574219 -14.625 34.964844 -14.457031 35.300781 -14.121094 C 35.636719 -13.785156 35.804688 -13.390625 35.804688 -12.945312 Z M 18.574219 -17.148438 C 18.183594 -18.210938 17.609375 -19.136719 16.851562 -19.921875 C 16.097656 -20.703125 15.074219 -21.097656 13.785156 -21.097656 C 12.214844 -21.097656 10.648438 -20.636719 9.078125 -19.710938 C 7.507812 -18.785156 6.09375 -17.554688 4.832031 -16.011719 C 3.570312 -14.472656 2.5625 -12.777344 1.808594 -10.925781 C 1.050781 -9.078125 0.671875 -7.257812 0.671875 -5.464844 C 0.671875 -4.0625 0.882812 -3.082031 1.304688 -2.523438 C 1.722656 -1.960938 2.214844 -1.679688 2.773438 -1.679688 C 3.726562 -1.679688 4.847656 -2.15625 6.136719 -3.109375 C 7.425781 -4.0625 8.796875 -5.308594 10.253906 -6.851562 C 11.710938 -8.390625 13.152344 -10.058594 14.582031 -11.851562 C 16.011719 -13.644531 17.34375 -15.410156 18.574219 -17.148438 Z M 18.574219 -17.148438 "/></g></g></g><g fill="#ffffff" fill-opacity="1"><g transform="translate(330.074585, 96.749996)"><g><path d="M 35.804688 -18.492188 C 35.804688 -17.988281 35.527344 -17.511719 34.964844 -17.0625 C 32.332031 -14.988281 29.347656 -12.859375 26.015625 -10.675781 C 22.679688 -8.488281 19.359375 -6.445312 16.054688 -4.539062 C 12.746094 -2.632812 9.75 -0.980469 7.058594 0.421875 C 6.949219 0.476562 6.808594 0.519531 6.640625 0.546875 C 6.472656 0.574219 6.332031 0.589844 6.21875 0.589844 C 5.773438 0.589844 5.394531 0.390625 5.085938 0 C 4.777344 -0.390625 4.621094 -0.785156 4.621094 -1.175781 C 4.621094 -1.847656 4.929688 -2.324219 5.546875 -2.605469 C 7.957031 -3.839844 10.617188 -5.28125 13.53125 -6.933594 C 16.445312 -8.585938 19.402344 -10.367188 22.398438 -12.273438 C 25.398438 -14.175781 28.15625 -16.082031 30.679688 -17.988281 C 28.773438 -18.828125 26.671875 -19.695312 24.375 -20.59375 C 22.078125 -21.488281 19.863281 -22.316406 17.734375 -23.074219 C 15.605469 -23.828125 13.8125 -24.375 12.355469 -24.710938 C 11.515625 -24.9375 11.09375 -25.441406 11.09375 -26.222656 C 11.09375 -26.671875 11.234375 -27.078125 11.515625 -27.441406 C 11.796875 -27.808594 12.1875 -27.988281 12.691406 -27.988281 L 13.195312 -27.90625 C 14.542969 -27.570312 16.152344 -27.09375 18.027344 -26.476562 C 19.90625 -25.859375 21.855469 -25.160156 23.871094 -24.375 C 25.886719 -23.589844 27.835938 -22.804688 29.710938 -22.023438 C 31.589844 -21.238281 33.230469 -20.535156 34.628906 -19.921875 C 35.414062 -19.585938 35.804688 -19.109375 35.804688 -18.492188 Z M 35.804688 -18.492188 "/></g></g></g></svg>